<?xml version="1.0" standalone="no"?>
<!DOCTYPE svg PUBLIC "-//W3C//DTD SVG 1.1//EN" "http://www.w3.org/Graphics/SVG/1.1/DTD/svg11.dtd" >
<svg xmlns="http://www.w3.org/2000/svg">
<metadata>
Created by FontPrep 20130207 at Thu Sep 14 17:54:39 2017
 By Ron Gierlach
Copyright (c) 2012 by Fontfabric LLC. All rights reserved.
</metadata>
<defs>
<font id="389ffe825cf96a80b1cc0e8d71a15570" horiz-adv-x='1024' >
  <font-face 
    font-family="Panton-Bold"
    font-weight="700"
    font-stretch="normal"
    units-per-em="2048"
    panose-1="0 0 8 0 0 0 0 0 0 0"
    ascent="1516"
    descent="-532"
    x-height="1061"
    cap-height="1454"
    bbox="-427.793 -528 2374 1988.01"
    underline-thickness="102"
    underline-position="-102"
    unicode-range="U+0020-FB02"
  />
<missing-glyph horiz-adv-x="1404" 
d="M410 1214v-974h596v974h-596zM1262 70q0 -38 -16 -54t-54 -16h-969q-39 0 -54 15t-15 55v1314q0 38 15 54t54 16h969q39 0 54 -15t16 -55v-1314z" />
    <glyph glyph-name="fi" unicode="fi" horiz-adv-x="1216" 
d="M1034 1516q35 0 49 -14t15 -52v-90q0 -37 -14 -51t-50 -15h-356q-123 0 -177 -50t-55 -161v-22h588q35 0 49 -13t15 -49v-936q0 -35 -14 -49t-50 -14h-110q-35 0 -50 14q-14 14 -14 49v779h-414v-779q0 -35 -13 -49t-50 -14h-109q-37 0 -51 14t-14 49v779h-123
q-35 0 -48 14t-13 49v94q0 35 13 49t48 13h123v22q0 432 469 433h356z" />
    <glyph glyph-name="fl" unicode="fl" horiz-adv-x="1169" 
d="M981 1516q35 0 49 -14t14 -50v-1389q0 -35 -14 -49t-49 -14h-111q-37 0 -50 14t-13 49v1231h-129q-121 0 -176 -49t-56 -162v-22h160q37 0 50 -13t14 -49v-94q0 -35 -14 -49t-50 -14h-160v-779q0 -35 -13 -49t-50 -14h-109q-37 0 -51 14t-14 49v779h-123q-35 0 -48 14
t-13 49v94q0 35 13 49t48 13h123v24q0 430 469 431h303z" />
    <glyph glyph-name=".notdef" horiz-adv-x="1404" 
d="M410 1214v-974h596v974h-596zM1262 70q0 -38 -16 -54t-54 -16h-969q-39 0 -54 15t-15 55v1314q0 38 15 54t54 16h969q39 0 54 -15t16 -55v-1314z" />
    <glyph glyph-name=".null" horiz-adv-x="1028" 
 />
    <glyph glyph-name="nonmarkingreturn" horiz-adv-x="681" 
 />
    <glyph glyph-name="space" unicode=" " horiz-adv-x="448" 
 />
    <glyph glyph-name="exclam" unicode="!" horiz-adv-x="493" 
d="M254 266q74 0 102 -28t29 -103v-18q0 -76 -29 -104t-102 -27h-16q-74 0 -103 28t-29 103v18q0 74 29 103t103 28h16zM307 1516q35 0 50 -14t14 -50l-29 -973q-2 -35 -15 -48t-48 -13h-64q-35 0 -48 13t-15 48l-27 973q-2 35 13 49t50 15h119z" />
    <glyph glyph-name="quotedbl" unicode="&#x22;" horiz-adv-x="712" 
d="M524 930h-65q-37 0 -48 9t-12 44v416q-1 35 11 45t49 10h94q37 0 49 -10t10 -45l-26 -416q-2 -35 -14 -44t-48 -9zM240 930h-66q-37 0 -47 9t-10 44v416q0 35 11 45t46 10h96q37 0 48 -10t10 -45l-27 -416q-2 -35 -13 -44t-48 -9z" />
    <glyph glyph-name="numbersign" unicode="#" horiz-adv-x="1456" 
d="M641 811l-76 -248h248l76 248h-248zM1346 1028q37 0 47 -13t0 -48l-29 -99q-18 -57 -84 -57h-164l-74 -248h166q68 0 47 -61l-28 -99q-18 -57 -84 -57h-166l-84 -283q-11 -35 -29 -49t-53 -14h-100q-68 0 -47 63l86 283h-248l-86 -283q-16 -63 -80 -63h-103q-66 0 -45 63
l84 283h-161q-35 0 -46 13t-2 49l29 98q10 33 28 45t56 12h162l74 248h-164q-68 0 -47 61l28 99q7 33 27 45t57 12h162l84 277q16 61 80 61h102q35 0 45 -13t0 -48l-84 -277h248l84 277q10 35 28 48t52 13h103q35 0 45 -13t0 -48l-82 -277h166z" />
    <glyph glyph-name="dollar" unicode="$" horiz-adv-x="1212" 
d="M664 1585q35 0 48 -14t13 -49v-101q141 -20 229 -91t148 -193q18 -37 9 -60t-50 -41l-100 -45q-35 -16 -56 -8q-20 8 -41 45q-41 80 -99 119t-176 39t-179 -40q-62 -40 -62 -112t44 -108q44 -35 97 -46q53 -10 143 -20t146 -19q55 -9 131 -36t120 -67t77 -114t33 -171
q0 -168 -108 -277t-306 -137v-107q0 -35 -13 -49t-48 -14h-113q-35 0 -49 14t-15 49v105q-307 39 -409 315q-25 68 47 94l100 37q39 14 59 4t38 -49q68 -172 276 -172q283 0 283 180q0 92 -82 124t-188 41q-105 9 -163 21t-133 39q-73 29 -119 69t-78 112t-32 166
q0 166 102 271t299 132v101q1 35 15 49t49 14h113z" />
    <glyph glyph-name="percent" unicode="%" horiz-adv-x="1679" 
d="M1413 403q0 125 -141 125t-142 -125v-120q0 -127 142 -127t141 127v120zM932 414q0 143 88 224t252 81t252 -81t88 -224v-146q0 -141 -88 -221t-252 -80t-252 80t-88 221v146zM547 1171q0 125 -141 125t-142 -125v-122q0 -125 142 -125t141 125v122zM1421 1454
q35 0 43 -20t-10 -48l-975 -1325q-31 -41 -53 -51t-84 -10h-80q-37 0 -46 20t11 50l975 1327q28 39 50 48t79 9h90zM66 1182q0 143 88 224t252 81t252 -81t87 -224v-146q0 -141 -88 -221q-87 -80 -251 -80t-252 80t-88 221v146z" />
    <glyph glyph-name="ampersand" unicode="&#x26;" horiz-adv-x="1386" 
d="M522 195q82 -1 138 33t137 110l-297 305q-180 -86 -181 -242q1 -90 61 -148t142 -58zM768 1124q0 64 -45 108q-45 46 -120 46t-121 -49t-46 -111t25 -106q25 -43 86 -107l74 39q79 36 113 76t34 104zM213 1109q0 157 105 267q104 110 278 109q174 1 285 -103t111 -244
t-68 -228q-66 -89 -205 -156l-21 -11l252 -258l127 123q41 43 84 0l82 -82q33 -37 -6 -75l-133 -129l248 -261q55 -61 -31 -61h-145q-57 0 -95 37l-131 133q-125 -117 -219 -159t-213 -42q-196 0 -318 122t-122 315q0 256 270 401q-135 145 -135 302z" />
    <glyph glyph-name="quotesingle" unicode="'" horiz-adv-x="430" 
d="M240 930h-66q-37 0 -47 9t-10 44v416q0 35 11 45t46 10h96q37 0 48 -10t10 -45l-27 -416q-2 -35 -13 -44t-48 -9z" />
    <glyph glyph-name="parenleft" unicode="(" horiz-adv-x="587" 
d="M111 1249q0 197 72 316q73 119 218 186q35 14 51 5t35 -44l45 -88q12 -35 6 -51t-40 -35q-78 -39 -116 -100t-38 -170v-1082q0 -109 38 -170t116 -100q35 -20 42 -36t-8 -50l-45 -88q-18 -35 -34 -44t-52 5q-145 69 -218 187t-72 315v1044z" />
    <glyph glyph-name="parenright" unicode=")" horiz-adv-x="587" 
d="M475 1249v-1044q0 -197 -73 -316t-218 -186q-53 -27 -86 39l-43 88q-12 35 -5 51t40 35q78 39 116 100t38 170v1082q0 109 -38 170t-116 100q-33 18 -40 34t5 52l43 88q33 66 86 39q145 -69 218 -187t73 -315z" />
    <glyph glyph-name="asterisk" unicode="*" horiz-adv-x="743" 
d="M408 1378q45 0 32 -39l-22 -178l162 78q37 18 51 -20l20 -66q12 -43 -28 -45l-177 -33l123 -129q31 -31 -4 -53l-55 -41q-37 -25 -53 12l-84 154l-84 -154q-16 -37 -53 -14l-56 43q-37 25 -4 53l125 129l-176 33q-41 6 -29 45l21 66q16 39 51 20l160 -78l-23 178
q-8 39 33 39h70z" />
    <glyph glyph-name="plus" unicode="+" horiz-adv-x="1112" 
d="M971 782q39 0 54 -15t15 -54v-84q0 -39 -15 -55t-54 -15h-303v-303q0 -39 -16 -54t-56 -16h-82q-39 0 -54 16t-16 54v303h-301q-39 0 -54 15t-15 55v84q0 39 15 54t54 15h301v301q0 39 16 55t54 15h82q39 0 55 -15t17 -55v-301h303z" />
    <glyph glyph-name="comma" unicode="," horiz-adv-x="450" 
d="M147 -250h-45q-30 0 -38 9t-5 38l52 381q6 42 24 58t60 16h92q90 0 63 -74l-125 -364q-12 -36 -28 -50t-50 -14z" />
    <glyph glyph-name="hyphen" unicode="-" horiz-adv-x="843" 
d="M657 657q39 0 55 -15t15 -54v-90q0 -38 -15 -54t-55 -16h-471q-39 0 -54 15t-15 55v90q0 39 15 54t54 15h471z" />
    <glyph glyph-name="period" unicode="." horiz-adv-x="464" 
d="M240 266q76 0 104 -28t27 -103v-18q0 -76 -28 -104t-103 -27h-15q-75 0 -103 28t-28 103v18q0 74 28 103t103 28h15z" />
    <glyph glyph-name="slash" unicode="/" horiz-adv-x="901" 
d="M215 -123h-115q-67 0 -43 57l545 1465q14 33 32 45t52 12h117q35 0 44 -14t-3 -43l-545 -1465q-13 -33 -31 -45t-53 -12z" />
    <glyph glyph-name="zero" unicode="0" horiz-adv-x="1298" 
d="M934 991q0 121 -75 188t-210 67t-210 -68q-75 -66 -74 -187v-526q1 -121 75 -189t209 -68t210 68t75 189v526zM106 991q0 227 144 361t399 133q257 0 399 -133t142 -361v-526q0 -229 -142 -363t-398 -133q-256 0 -400 133q-143 133 -144 363v526z" />
    <glyph glyph-name="one" unicode="1" horiz-adv-x="901" 
d="M674 1454q39 0 54 -15t15 -55v-1314q0 -38 -15 -54t-54 -16h-117q-39 0 -54 15t-16 55v1073l-286 -160q-41 -23 -64 -15t-41 42l-51 92q-16 35 -9 54t42 40l399 229q47 29 98 29h99z" />
    <glyph glyph-name="two" unicode="2" horiz-adv-x="1224" 
d="M641 1485q225 0 361 -134t137 -323q0 -221 -123 -340t-449 -248q-3 -2 -29 -11t-32 -12t-30 -13t-32 -15q-8 -6 -25 -16q-17 -9 -25 -19t-19 -25q-12 -15 -15 -53v-36h684q38 0 54 -16t16 -54v-100q0 -38 -15 -54t-55 -16h-882q-39 0 -54 15t-16 55v153q0 199 129 302
q66 52 123 83q57 30 205 88t211 107q109 82 108 213q0 96 -66 163q-67 67 -171 66q-203 0 -283 -182q-16 -39 -34 -48t-56 3l-111 41q-70 27 -45 88q139 338 539 338z" />
    <glyph glyph-name="three" unicode="3" horiz-adv-x="1255" 
d="M642 1485q226 -1 352 -111t126 -316t-159 -298q207 -94 206 -346q0 -205 -133 -325t-393 -120q-434 0 -555 344q-23 66 45 90l111 39q37 12 55 3t35 -46q36 -100 102 -145t207 -45q258 0 258 207t-213 207h-213q-39 0 -54 14t-16 55v92q-1 38 15 54t55 16h176
q98 0 157 52q58 52 58 141q0 199 -229 198q-133 0 -193 -43t-98 -145q-14 -37 -32 -46t-58 3l-111 39q-68 25 -45 90q58 172 188 257t356 85z" />
    <glyph glyph-name="four" unicode="4" horiz-adv-x="1292" 
d="M791 565v549l-445 -549h445zM1171 565q39 0 55 -15t15 -54v-88q0 -38 -14 -54t-56 -16h-141v-268q0 -38 -15 -54t-54 -16h-101q-39 0 -54 15t-15 55v268h-676q-39 0 -55 15q-15 15 -15 55v73q0 51 25 84l680 844q41 49 98 49h113q39 0 54 -14t15 -55v-824h141z" />
    <glyph glyph-name="five" unicode="5" horiz-adv-x="1220" 
d="M1016 1454q39 0 54 -15t15 -55v-100q0 -39 -15 -54t-54 -16h-586l-31 -301h248q242 0 370 -130q128 -131 128 -333t-138 -341t-376 -140q-434 0 -555 334q-25 66 43 90l112 39q37 14 55 5t33 -48q68 -180 310 -180q111 1 179 65t66 172q0 108 -66 169q-67 60 -175 61
h-432q-45 0 -62 19q-16 19 -12 63l61 596q6 57 31 79t82 21h715z" />
    <glyph glyph-name="six" unicode="6" horiz-adv-x="1298" 
d="M362 502q0 -293 295 -293q143 0 220 58q75 58 75 172t-68 170q-68 57 -248 57t-274 -48v-116zM678 905q530 0 530 -467q0 -217 -146 -343t-410 -126q-264 -1 -405 141q-142 142 -143 394v446q0 254 142 394t411 141q408 0 529 -324q14 -37 5 -55t-48 -35l-109 -39
q-37 -14 -54 -5t-34 48q-72 170 -289 170q-295 0 -295 -293v-86q145 39 316 39z" />
    <glyph glyph-name="seven" unicode="7" horiz-adv-x="1103" 
d="M1001 1454q39 0 55 -15t15 -55v-71q0 -47 -20 -99l-519 -1153q-16 -39 -40 -50t-89 -11h-112q-68 0 -35 70l520 1144h-659q-39 0 -55 16t-15 54v100q0 38 15 54t55 16h884z" />
    <glyph glyph-name="eight" unicode="8" horiz-adv-x="1284" 
d="M346 391q0 -199 297 -198q155 0 221 51t66 133t-20 107q-20 26 -32 40q-11 14 -55 35t-84 32q-39 11 -60 17t-126 29q-207 -72 -207 -246zM903 1071q0 94 -68 142q-69 48 -192 49q-252 0 -252 -191q1 -92 61 -136t185 -77l82 -20q184 77 184 233zM133 1075q0 195 135 303
t379 107t375 -101t131 -288q0 -215 -209 -334q118 -53 186 -138t68 -227q0 -199 -135 -313t-422 -115q-555 0 -555 396q0 233 250 360q-203 117 -203 350z" />
    <glyph glyph-name="nine" unicode="9" horiz-adv-x="1298" 
d="M936 952q0 143 -76 218t-219 75t-219 -58t-76 -172t69 -170q69 -57 248 -57t273 48v116zM621 549q-530 0 -531 467q0 217 146 343t409 126q263 1 405 -141t142 -394v-446q0 -254 -142 -394t-409 -141q-406 0 -530 324q-12 37 -3 55t48 35l108 39q37 14 54 5t34 -48
q72 -170 289 -170q295 0 295 293v86q-145 -39 -315 -39z" />
    <glyph glyph-name="colon" unicode=":" horiz-adv-x="509" 
d="M262 266q76 0 104 -28t27 -103v-18q1 -76 -27 -104t-104 -27h-14q-74 0 -103 28t-28 103v18q0 74 28 103q29 29 103 28h14zM262 1016q76 0 104 -28t27 -103v-19q1 -74 -27 -102t-104 -29h-14q-74 0 -103 28t-28 103v19q1 75 29 103t102 28h14z" />
    <glyph glyph-name="semicolon" unicode=";" horiz-adv-x="534" 
d="M180 -250h-43q-31 0 -40 9t-5 38l53 381q5 42 23 58t59 16h92q90 0 66 -74l-125 -364q-12 -36 -28 -50t-52 -14zM291 1016q75 0 103 -28t28 -103v-19q0 -74 -28 -102t-103 -29h-15q-74 0 -102 28t-29 103v19q0 75 29 103t102 28h15z" />
    <glyph glyph-name="less" unicode="&#x3c;" horiz-adv-x="989" 
d="M879 1110v-88q-1 -54 -13 -74t-51 -41l-459 -231v-10l457 -228q41 -20 53 -40t13 -74v-99q0 -92 -74 -53l-690 377q-33 19 -44 35t-12 51v65q1 36 13 54t43 34l690 375q74 39 74 -53z" />
    <glyph glyph-name="equal" unicode="=" horiz-adv-x="1204" 
d="M1016 582q39 0 54 -16t15 -54v-90q0 -39 -15 -54t-54 -16h-828q-41 0 -55 14t-14 56v90q0 41 14 55t55 15h828zM1016 987q39 0 54 -16t15 -56v-90q0 -39 -15 -54t-54 -15h-828q-41 0 -55 15t-14 54v90q0 41 15 57t54 15h828z" />
    <glyph glyph-name="greater" unicode="&#x3e;" horiz-adv-x="989" 
d="M111 1112q0 47 16 59t57 -8l688 -375q34 -18 46 -34t12 -52v-65q0 -35 -12 -52t-46 -36l-688 -375q-41 -20 -57 -7t-16 60v88q0 53 12 73t51 40l459 231v13l-457 227q-41 19 -53 39t-12 76v98z" />
    <glyph glyph-name="question" unicode="?" horiz-adv-x="1165" 
d="M541 266q75 0 103 -28t28 -103v-18q0 -76 -29 -104t-102 -27h-17q-74 0 -102 28t-29 103v18q0 74 29 103t102 28h17zM1102 1090q0 -136 -45 -213q-25 -43 -44 -73t-73 -71t-108 -72t-92 -54q-104 -63 -103 -163q0 -39 -14 -52t-52 -13h-82q-37 0 -51 13t-14 52
q0 131 51 205t146 137q29 14 88 58q59 43 67 53t29 36t32 71t11 75q0 93 -67 151t-187 58t-190 -48q-69 -48 -111 -144q-15 -39 -33 -47t-55 4l-99 34q-70 23 -43 89q131 338 535 337q231 0 368 -120q136 -121 136 -303z" />
    <glyph glyph-name="at" unicode="@" horiz-adv-x="1847" 
d="M700 739v-284q0 -86 45 -126t154 -40t211 30v539q0 19 -18 27q-86 23 -194 23t-152 -42q-46 -41 -46 -127zM90 676q0 375 215 592t615 217t615 -218q216 -218 216 -591v-154q0 -206 -99 -322t-251 -116q-88 0 -131 35q-16 12 -45 43q-166 -55 -363 -56q-360 0 -360 345
v294q0 166 89 255t271 90q229 0 379 -62q39 -14 53 -34t15 -62v-592q0 -82 96 -82q68 0 114 61t46 199v162q0 301 -165 470t-478 169q-312 0 -480 -169t-168 -470v-162q0 -301 166 -462t480 -160q180 0 444 51q35 6 35 -23v-90q0 -41 -37 -53q-231 -51 -442 -51
q-401 0 -616 209q-214 209 -214 583v154z" />
    <glyph glyph-name="A" unicode="A" horiz-adv-x="1347" 
d="M659 1219q0 -117 -45 -248l-157 -434h422l-156 432q-34 105 -47 215l-2 35h-15zM1278 0h-107q-63 0 -88.5 12.5t-38.5 48.5l-94 265h-565l-96 -265q-12 -37 -38 -49t-89 -12h-94q-72 0 -48 68l512 1331q14 35 32 46t54 11h109q37 0 55.5 -11t30.5 -44l512 -1333
q25 -68 -47 -68z" />
    <glyph glyph-name="B" unicode="B" horiz-adv-x="1331" 
d="M981 428q0 193 -195 193h-387v-381h387q195 0 195 188zM938 1034q0 180 -188 180h-351v-360h351q188 0 188 180zM780 1454q199 0 310 -99t110 -284q0 -217 -156 -309v-8q209 -74 209 -355q0 -187 -127 -293t-333 -106h-580q-39 0 -55 15t-17 55v1314q1 38 17 54t55 16
h567z" />
    <glyph glyph-name="C" unicode="C" horiz-adv-x="1310" 
d="M100 952q0 248 153 390.5t433 142.5q436 0 557 -342q25 -66 -43 -90l-113 -39q-37 -12 -55 -3t-33 46q-68 188 -313 188q-158 0 -243 -74.5t-85 -216.5v-452q0 -141 85 -217t243 -76q244 0 313 190q16 39 35 48.5t56 -5.5l110 -39q68 -25 45 -90q-121 -344 -559 -344
q-281 0 -433.5 142.5t-152.5 392.5v448z" />
    <glyph glyph-name="D" unicode="D" horiz-adv-x="1363" 
d="M1010 915q0 145 -87 222t-249 77h-275v-974h275q162 0 249 76.5t87 222.5v376zM672 1454q283 0 438.5 -144.5t155.5 -396.5v-372q0 -252 -156 -396.5t-438 -144.5h-459q-39 0 -55.5 15.5t-16.5 54.5v1314q0 39 16.5 54.5t55.5 15.5h459z" />
    <glyph glyph-name="E" unicode="E" horiz-adv-x="1185" 
d="M1026 1454q39 0 55.5 -15.5t16.5 -54.5v-100q0 -39 -16.5 -54.5t-55.5 -15.5h-627v-358h531q39 0 54 -15.5t15 -54.5v-100q0 -39 -15 -54.5t-54 -15.5h-531v-376h650q39 0 54 -15.5t15 -54.5v-100q0 -39 -15.5 -54.5t-53.5 -15.5h-836q-39 0 -55.5 15.5t-16.5 54.5v1314
q0 39 16.5 54.5t55.5 15.5h813z" />
    <glyph glyph-name="F" unicode="F" horiz-adv-x="1155" 
d="M1026 1454q39 0 55 -15t17 -55v-100q0 -39 -16 -54t-56 -16h-627v-376h527q39 0 55 -16t16 -54v-100q0 -38 -15 -54t-56 -16h-527v-528q0 -38 -15 -54t-54 -16h-117q-39 0 -55 15t-17 55v1314q1 38 17 54t55 16h813z" />
    <glyph glyph-name="G" unicode="G" horiz-adv-x="1355" 
d="M1200 797q41 0 55.5 -15.5t14.5 -54.5v-274q0 -215 -154.5 -349.5t-432.5 -134.5t-430.5 142.5t-152.5 392.5v448q0 248 153 390.5t433 142.5q436 0 557 -342q25 -66 -43 -90l-113 -39q-37 -14 -55 -5t-33 48q-68 188 -313 188q-160 0 -244 -74.5t-84 -216.5v-452
q0 -143 85 -218t241 -75t245 67.5t89 174.5v106h-309q-39 0 -54.5 16.5t-15.5 55.5v98q0 39 15.5 54.5t54.5 15.5h491z" />
    <glyph glyph-name="H" unicode="H" horiz-adv-x="1404" 
d="M1192 1454q39 0 55.5 -15.5t16.5 -54.5v-1314q0 -39 -16.5 -54.5t-55.5 -15.5h-117q-39 0 -54 15.5t-15 54.5v546h-607v-546q0 -39 -15 -54.5t-54 -15.5h-117q-39 0 -55.5 15.5t-16.5 54.5v1314q0 39 16.5 54.5t55.5 15.5h117q39 0 54 -15.5t15 -54.5v-528h607v528
q0 39 15 54.5t54 15.5h117z" />
    <glyph glyph-name="I" unicode="I" horiz-adv-x="540" 
d="M141 1384q0 39 16.5 54.5t55.5 15.5h117q39 0 54 -15.5t15 -54.5v-1314q0 -39 -15 -54.5t-54 -15.5h-117q-39 0 -55.5 15.5t-16.5 54.5v1314z" />
    <glyph glyph-name="J" unicode="J" horiz-adv-x="1181" 
d="M983 1454q37 0 52.5 -15.5t15.5 -52.5v-907q0 -240 -134.5 -375t-388.5 -135q-385 0 -495 342q-25 66 43 90l112 39q35 14 53.5 5t34.5 -48q33 -96 91.5 -142t160.5 -46q264 0 265 268v909q0 37 15 52.5t54 15.5h121z" />
    <glyph glyph-name="K" unicode="K" horiz-adv-x="1284" 
d="M1212 0h-118q-68 0 -94.5 11.5t-45.5 49.5l-206 416q-43 84 -91.5 114t-152.5 30h-105v-551q0 -39 -15 -54.5t-54 -15.5h-117q-39 0 -55.5 15.5t-16.5 54.5v1314q0 39 16.5 54.5t55.5 15.5h117q39 0 54 -15.5t15 -54.5v-530h109l412 543q27 37 52 47t87 10h131
q35 0 44 -20.5t-11 -47.5l-457 -583q131 -57 221 -234l260 -499q37 -70 -35 -70z" />
    <glyph glyph-name="L" unicode="L" horiz-adv-x="1081" 
d="M330 1454q39 0 54 -15.5t15 -54.5v-1144h588q39 0 54.5 -15.5t15.5 -54.5v-100q0 -39 -15.5 -54.5t-54.5 -15.5h-774q-39 0 -55.5 15.5t-16.5 54.5v1314q0 39 16.5 54.5t55.5 15.5h117z" />
    <glyph glyph-name="M" unicode="M" horiz-adv-x="1660" 
d="M1448 1454q39 0 54 -15t16 -55v-1314q0 -38 -16 -54t-54 -16h-105q-39 0 -54 15t-15 55v624q0 184 49 408h-14q-59 -178 -168 -375l-201 -354q-31 -49 -80 -49h-65q-33 0 -49 9q-15 9 -31 40l-205 356q-94 160 -158 373h-14q43 -209 43 -410v-622q0 -38 -15 -54t-55 -16
h-98q-39 0 -55 15t-17 55v1314q1 38 17 54t55 16h90q43 0 63 -10t35 -43l426 -762l426 760q17 35 35 45t60 10h100z" />
    <glyph glyph-name="N" unicode="N" horiz-adv-x="1425" 
d="M1212 1454q39 0 54.5 -15.5t15.5 -54.5v-1314q0 -39 -15.5 -54.5t-54.5 -15.5h-116q-47 0 -68 35l-502 741q-74 109 -146 286q-22 56 -22 58h-12q0 -2 22 -124t23 -283v-643q0 -39 -15.5 -54.5t-53.5 -15.5h-109q-39 0 -55.5 15.5t-16.5 54.5v1314q0 39 16.5 54.5
t55.5 15.5h117q45 0 67 -33l498 -737q89 -132 149 -290q22 -56 23 -58h12q-1 4 -23 130t-22 284v634q0 39 15.5 54.5t54.5 15.5h108z" />
    <glyph glyph-name="O" unicode="O" horiz-adv-x="1370" 
d="M1014 952q0 141 -85 217t-243 76t-243 -74.5t-85 -218.5v-450q0 -143 85 -218t243 -75t243 75.5t85 217.5v450zM100 950q0 250 153 392.5t433 142.5t432 -142.5t152 -392.5v-446q0 -250 -152.5 -392.5t-432.5 -142.5t-432.5 142.5t-152.5 392.5v446z" />
    <glyph glyph-name="P" unicode="P" horiz-adv-x="1294" 
d="M731 745q113 -1 175 61t63 173q-1 111 -63 173t-175 62h-332v-469h332zM756 1454q223 0 353 -127t130 -348t-130 -347t-353 -126h-357v-436q0 -38 -15 -54t-54 -16h-117q-39 0 -55 15t-17 55v1314q1 38 17 54t55 16h543z" />
    <glyph glyph-name="Q" unicode="Q" horiz-adv-x="1398" 
d="M358 502q0 -143 85 -218t243 -75t243 75.5t85 217.5v450q0 141 -85 217t-243 76t-243 -74.5t-85 -218.5v-450zM100 504v446q0 250 153 392.5t432.5 142.5t432 -142.5t152.5 -392.5v-446q0 -205 -103 -338l123 -143q25 -31 23 -52.5t-31 -48.5l-78 -63q-53 -45 -98 8
l-133 158q-117 -55 -287 -56q-281 0 -433.5 142.5t-152.5 392.5z" />
    <glyph glyph-name="R" unicode="R" horiz-adv-x="1333" 
d="M969 1003.5q0 102.5 -55.5 156.5t-159.5 54h-355v-421h355q102 0 158.5 54t56.5 156.5zM778 1454q215 0 338 -120t123 -330q0 -158 -70.5 -264.5t-199.5 -149.5q37 -31 65 -88l226 -432q37 -70 -35 -70h-119q-68 0 -94.5 11.5t-44.5 49.5l-172 349q-41 86 -90.5 114.5
t-153.5 28.5h-152v-483q0 -39 -15 -54.5t-54 -15.5h-117q-39 0 -55.5 15.5t-16.5 54.5v1314q0 39 16.5 54.5t55.5 15.5h565z" />
    <glyph glyph-name="S" unicode="S" horiz-adv-x="1296" 
d="M88 1036q0 201 146.5 325t414.5 124q213 0 338 -76t201 -233q31 -63 -39 -95l-113 -49q-35 -14 -52 -7t-36 42q-43 86 -112.5 129t-186.5 43q-297 0 -297 -188q0 -105 110 -145q84 -31 207.5 -45.5t186 -27t137 -42t121.5 -72.5t80 -118t33 -173q0 -209 -153.5 -334
t-407.5 -125t-387.5 85t-198.5 257q-14 39 -4 58.5t47 31.5l113 41q35 12 53 3t35 -46q80 -190 319 -190q326 0 326 213q0 68 -49.5 108.5t-110.5 56t-147.5 24.5t-128 14.5t-107.5 19.5q-66 15 -106 33q-122 56 -166 123q-66 101 -66 235z" />
    <glyph glyph-name="T" unicode="T" horiz-adv-x="1159" 
d="M1061 1454q39 0 54 -15.5t15 -54.5v-100q0 -39 -15 -54.5t-54 -15.5h-352v-1144q0 -39 -15.5 -54.5t-54.5 -15.5h-119q-39 0 -54 15.5t-15 54.5v1144h-353q-39 0 -54 15.5t-15 54.5v100q0 39 15 54.5t54 15.5h963z" />
    <glyph glyph-name="U" unicode="U" horiz-adv-x="1409" 
d="M389 498q0 -139 80 -214t235.5 -75t235.5 74.5t80 214.5v886q0 39 15.5 54.5t54.5 15.5h116q39 0 54.5 -15.5t15.5 -54.5v-884q0 -246 -147.5 -388.5t-424 -142.5t-425 142.5t-148.5 388.5v884q0 39 15.5 54.5t54.5 15.5h118q39 0 54.5 -15.5t15.5 -54.5v-886z" />
    <glyph glyph-name="V" unicode="V" horiz-adv-x="1310" 
d="M1241 1454q74 0 45 -68l-489 -1329q-13 -35 -31 -46t-55 -11h-109q-37 0 -56 11t-30 44l-491 1331q-25 68 45 68h104q63 0 89 -12t38 -49l299 -873q33 -112 40 -150q7 -39 10 -52t3 -15h13q2 2 15 75t38 140l297 875q12 37 38 49t89 12h98z" />
    <glyph glyph-name="W" unicode="W" horiz-adv-x="1845" 
d="M1757 1454q35 0 45 -16.5t0 -51.5l-338 -1329q-8 -35 -27.5 -46t-58.5 -11h-112q-74 0 -86 55l-215 813q-31 119 -33 232h-14q-2 -109 -35 -230l-217 -813q-8 -35 -28 -46t-58 -11h-111q-39 0 -59.5 11.5t-28.5 43.5l-336 1331q-10 35 -1 51.5t46 16.5h143q45 0 64.5 -12
t28.5 -49l168 -764q6 -27 32 -275h13q6 141 41 275l206 757q10 37 31 49.5t62 12.5h110q43 0 63.5 -12.5t28.5 -49.5l203 -757q37 -141 43 -275h12q8 133 37 273l164 766q8 37 27.5 49t64.5 12h125z" />
    <glyph glyph-name="X" unicode="X" horiz-adv-x="1306" 
d="M1237 0h-143q-63 0 -88 10t-50 51l-313 482l-301 -482q-30 -41 -52 -51t-83 -10h-133q-39 0 -47 22t12 50l450 669l-434 648q-20 25 -11 45t46 20h137q61 0 84 -10t51 -47l293 -453l293 453q28 37 50 47t79 10h142q35 0 44 -20t-12 -45l-438 -646l457 -671q24 -28 14 -50
t-47 -22z" />
    <glyph glyph-name="Y" unicode="Y" horiz-adv-x="1316" 
d="M1251 1454q37 0 45.5 -20.5t-10.5 -49.5l-500 -811v-503q0 -39 -15 -54.5t-54 -15.5h-117q-39 0 -54.5 15.5t-15.5 54.5v508l-501 806q-18 29 -9 49.5t46 20.5h143q66 0 89.5 -9t45.5 -52l318 -553l319 553q23 43 47.5 52t89.5 9h133z" />
    <glyph glyph-name="Z" unicode="Z" horiz-adv-x="1204" 
d="M1053 1454q39 0 54 -15.5t15 -54.5v-98q0 -45 -22 -74l-709 -972h674q41 0 55.5 -15.5t14.5 -54.5v-100q0 -39 -15.5 -54.5t-54.5 -15.5h-926q-39 0 -54 15.5t-15 54.5v100q0 39 24 72l707 972h-651q-39 0 -54.5 15.5t-15.5 54.5v100q0 39 15.5 54.5t54.5 15.5h903z" />
    <glyph glyph-name="bracketleft" unicode="[" horiz-adv-x="620" 
d="M514 1753q39 0 50 -10t11 -51v-90q0 -40 -11 -50t-50 -10h-162v-1628h162q39 0 50 -10t11 -51v-91q0 -41 -11 -51t-50 -10h-324q-39 0 -51 12t-12 51v1926q0 39 12 51t51 12h324z" />
    <glyph glyph-name="backslash" unicode="\" horiz-adv-x="901" 
d="M98 1454h117q35 0 52 -12t32 -45l545 -1463q12 -29 3 -43t-44 -14h-117q-35 0 -53 12t-31 45l-545 1463q-12 29 -3 43t44 14z" />
    <glyph glyph-name="bracketright" unicode="]" horiz-adv-x="620" 
d="M430 1753q39 0 50 -12t12 -51v-1926q0 -39 -12 -51t-50 -12h-324q-41 0 -51 10t-10 51v91q0 41 10 51t51 10h160v1628h-160q-39 0 -50 10t-11 50v90q0 41 10 51t51 10h324z" />
    <glyph glyph-name="asciicircum" unicode="^" horiz-adv-x="1204" 
d="M635 1659q44 0 63 -28q8 -12 23 -27l383 -465q57 -74 -37 -74h-102q-55 0 -75 9t-50 46l-238 301h-10l-236 -301q-31 -37 -51 -46t-76 -9h-94q-96 0 -35 74l379 465q45 55 88 55h68z" />
    <glyph glyph-name="underscore" unicode="_" horiz-adv-x="1015" 
d="M901 0q39 0 54 -15t16 -55v-90q1 -39 -15 -54t-55 -15h-786q-39 0 -55 15q-15 15 -15 54v90q0 38 15 54t55 16h786z" />
    <glyph glyph-name="grave" unicode="`" horiz-adv-x="526" 
d="M535 1288q0 -14 -21 -41l-29 -37q-20 -27 -79 -4l-357 150q-54 22 -8 71l53 64q37 47 115 4l301 -180q25 -13 25 -27z" />
    <glyph glyph-name="a" unicode="a" horiz-adv-x="1062" 
d="M502 436q-111 0 -154 -32.5t-43 -101.5t40 -102.5t162 -33.5t195 16q23 8 23 29v215q-215 10 -223 10zM524 1092q438 0 439 -422v-531q0 -53 -15.5 -75.5t-58.5 -40.5q-123 -53 -376 -53.5t-351.5 80.5t-98.5 257t108 250t357 74q23 0 197 -10v57q0 100 -47 151.5
t-158 51.5q-152 0 -215 -99q-23 -33 -38 -38t-50 8l-82 34q-68 32 -35 93q111 213 424 213z" />
    <glyph glyph-name="b" unicode="b" horiz-adv-x="1110" 
d="M786 674q0 96 -57 148t-161 52t-216 -36v-605q0 -16 17 -22q70 -25 176 -25q242 0 241 224v264zM291 1516q35 0 48 -14t13 -50v-395q150 35 246 35q426 0 426 -412v-277q0 -434 -463 -434q-217 0 -371 66q-49 23 -62 43t-13 69v1305q0 35 14 49t49 15h113z" />
    <glyph glyph-name="c" unicode="c" horiz-adv-x="1058" 
d="M84 672q0 201 117.5 310.5t353.5 109.5q174 0 285.5 -74t152.5 -195q12 -39 2 -58.5t-47 -33.5l-90 -29q-37 -14 -56.5 -3.5t-33.5 46.5q-53 137 -223 138q-223 0 -223 -201v-303q0 -96 57 -148.5t166 -52.5q170 0 223 141q14 37 33.5 45.5t56.5 -4.5l92 -26
q70 -27 43 -92q-106 -272 -456 -273q-227 0 -340 109.5t-113 310.5v283z" />
    <glyph glyph-name="d" unicode="d" horiz-adv-x="1110" 
d="M324 391q0 -205 229 -205q109 0 188 23q16 6 17 22v617q-123 27 -199 26q-236 0 -235 -217v-266zM86 664q0 208 108 318t320 110q94 0 244 -27v387q0 35 13 49t48 15h113q35 0 49 -14t14 -50v-1305q0 -49 -16 -71t-66 -41q-174 -66 -383 -66q-444 0 -444 414v281z" />
    <glyph glyph-name="e" unicode="e" horiz-adv-x="1099" 
d="M793 682q0 100 -59.5 154.5t-175.5 54.5t-177.5 -54.5t-61.5 -154.5v-45h474v45zM82 649q0 215 122 329t354 114t352 -119t120 -305v-125q0 -88 -92 -88h-619v-76q0 -100 60.5 -152.5t173.5 -52.5q172 0 242 109q25 35 46 40t58 -16l72 -39q70 -33 24 -102
q-121 -197 -442 -197q-240 0 -355.5 119t-115.5 320v241z" />
    <glyph glyph-name="f" unicode="f" horiz-adv-x="757" 
d="M678 1516q37 0 51 -14t14 -52v-90q0 -37 -14 -51t-51 -15q-129 0 -180 -48t-52 -165v-20h236q35 0 48 -13t13 -49v-94q0 -35 -13 -49t-48 -14h-236v-779q0 -35 -13 -49t-50 -14h-109q-37 0 -51 14t-14 49v779h-123q-35 0 -48 14t-13 49v94q0 35 13 49t48 13h123v20
q0 426 450 435h19z" />
    <glyph glyph-name="g" unicode="g" horiz-adv-x="1107" 
d="M322 436q0 -96 57 -148t157.5 -52t219.5 28v563q-1 17 -19 25q-82 23 -174 22q-242 0 -241 -221v-217zM84 662q0 430 463 430q231 0 371 -64q49 -23 62 -43t13 -70v-950q0 -211 -109.5 -328.5t-340.5 -117.5q-307 0 -424 196q-45 66 24 103l78 43q37 18 58.5 13t46.5 -38
q66 -104 213 -104q217 0 217 221v102q-137 -37 -246 -37q-215 0 -320.5 106.5t-105.5 305.5v232z" />
    <glyph glyph-name="h" unicode="h" horiz-adv-x="1136" 
d="M295 1516q35 0 48 -14.5t13 -49.5v-389q16 8 90 18.5t156 10.5q426 0 426 -412v-617q0 -35 -14.5 -49t-48.5 -14h-111q-35 0 -49 14.5t-14 48.5v611q0 201 -224 200q-150 0 -211 -30v-781q0 -35 -13 -49t-48 -14h-113q-35 0 -49 14.5t-14 48.5v1389q0 35 14 49.5t49 14.5
h113z" />
    <glyph glyph-name="i" unicode="i" horiz-adv-x="473" 
d="M293 1061q35 0 49 -13t14 -49v-936q0 -35 -14 -49t-49 -14h-113q-35 0 -48 14t-13 49v936q0 35 13 49t48 13h113zM244 1458q72 0 98 -26t27 -97v-18q0 -73 -27 -99t-98 -26h-15q-69 0 -97 27t-28 98v18q0 70 27 97t98 26h15z" />
    <glyph glyph-name="j" unicode="j" horiz-adv-x="477" 
d="M293 1061q37 0 50 -13t13 -49v-1013q0 -457 -467 -457q-37 0 -51 14t-14 51v91q0 37 14 51t51 14q123 0 177 62t53 180v1007q0 35 14 49t51 13h109zM246 1458q72 0 98 -26t27 -97v-18q0 -73 -28 -99t-97 -26h-15q-73 0 -99 27t-26 98v18q0 70 27 97t98 26h15z" />
    <glyph glyph-name="k" unicode="k" horiz-adv-x="1071" 
d="M983 0h-104q-53 0 -73 10q-19 10 -36 47l-127 273q-45 100 -164 100h-123v-364q0 -38 -13 -52t-52 -14h-105q-39 0 -53 14t-14 52v1384q0 37 14 51t53 15h105q39 0 52 -14t13 -52v-799h107l278 363q23 33 45 40t78 7h101q98 0 41 -74l-310 -383q86 -43 148 -170l178 -358
q22 -40 14 -58t-53 -18z" />
    <glyph glyph-name="l" unicode="l" horiz-adv-x="487" 
d="M362 63q0 -35 -14 -49t-49 -14h-111q-37 0 -50 14t-13 49v1389q0 35 13 49t50 15h111q35 0 49 -14t14 -50v-1389z" />
    <glyph glyph-name="m" unicode="m" horiz-adv-x="1693" 
d="M1182 1092q401 0 401 -408v-621q0 -35 -13 -49t-48 -14h-113q-35 0 -49 14t-14 49v613q0 199 -199 198q-92 0 -199 -36q23 -59 23 -154v-621q-1 -35 -15 -49t-49 -14h-110q-35 0 -49 14t-15 49v613q0 199 -201 198q-88 0 -163 -24q-16 -6 -17 -25v-762q0 -35 -13 -49
t-48 -14h-113q-35 0 -49 14t-14 49v842q0 49 16 73t64 44q170 70 352 70t274 -68q168 68 361 68z" />
    <glyph glyph-name="n" unicode="n" 
d="M591 1092q222 0 327.5 -106.5t105.5 -305.5v-617q0 -35 -14.5 -49t-48.5 -14h-113q-35 0 -48.5 14.5t-13.5 48.5v611q0 201 -223 200q-98 0 -196 -26q-14 -6 -15 -21v-764q0 -35 -13 -49t-48 -14h-113q-35 0 -49 14.5t-14 48.5v842q0 49 15.5 73t64.5 44q174 70 396 70z
" />
    <glyph glyph-name="o" unicode="o" horiz-adv-x="1112" 
d="M791 682q0 94 -61.5 144.5t-174.5 50.5t-173 -50.5t-60 -144.5v-303q0 -92 60 -143.5t173 -51.5t174.5 51.5t61.5 143.5v303zM84 682q0 193 123 301.5t349 108.5t349 -109t123 -301v-303q0 -193 -123 -301.5t-349 -108.5t-349 108.5t-123 301.5v303z" />
    <glyph glyph-name="p" unicode="p" horiz-adv-x="1110" 
d="M786 672q0 203 -229 202q-104 0 -184 -22q-20 -8 -21 -27v-608q119 -31 199 -31q236 0 235 220v266zM1024 678v-281q0 -428 -457 -428q-74 0 -215 37v-393q0 -35 -13 -49t-48 -15h-113q-35 1 -49 15t-14 49v1302q0 49 15 73q16 24 65 44q162 60 388 60q441 0 441 -414z
" />
    <glyph glyph-name="q" unicode="q" horiz-adv-x="1110" 
d="M324 387q0 -96 57 -148q57 -53 153 -53t224 31v608q0 18 -23 27q-78 23 -170 22q-242 0 -241 -221v-266zM549 1092q231 0 371 -64q49 -23 62 -43t13 -70v-1302q0 -35 -14 -49t-49 -15h-113q-35 1 -48 15t-13 49v395q-145 -39 -246 -39q-214 1 -320 107t-106 305v281
q0 430 463 430z" />
    <glyph glyph-name="r" unicode="r" horiz-adv-x="720" 
d="M641 1092q35 0 49.5 -13.5t14.5 -50.5v-90q0 -35 -14.5 -49.5t-49.5 -14.5h-74q-115 0 -194 -24q-20 -4 -21 -25v-762q0 -35 -13 -49t-48 -14h-113q-35 0 -49 14.5t-14 48.5v850q0 49 15 73t65 44q149 56 380 62h66z" />
    <glyph glyph-name="s" unicode="s" horiz-adv-x="1032" 
d="M500 1092q330 0 438 -220q33 -61 -33 -92l-92 -37q-35 -14 -50 -9t-36 38q-59 106 -221 107q-193 0 -193 -111q0 -68 53.5 -91.5t224.5 -39.5t275.5 -85t104.5 -233t-115 -257t-328 -93q-360 0 -456 248q-25 63 41 86l92 29q31 12 50 4t34 -43q47 -113 231 -113
q217 0 217 121q0 68 -54 92.5t-158.5 35.5t-154.5 21q-135 25 -213.5 93.5t-78.5 219.5t107.5 240t314.5 89z" />
    <glyph glyph-name="t" unicode="t" horiz-adv-x="796" 
d="M395 1307q35 1 49 -13t15 -49v-184h233q35 0 49 -13t15 -49v-94q0 -35 -14 -49t-50 -14h-233v-412q0 -145 48 -190t183 -45q37 1 51 -13t15 -51v-94q0 -37 -14 -50t-52 -16q-258 -8 -363 90t-106 361v420h-141q-35 0 -48 14t-14 49v94q0 35 14 49t48 13h141v184
q1 35 15 48t49 14h110z" />
    <glyph glyph-name="u" unicode="u" 
d="M954 1061q35 0 49.5 -13.5t14.5 -48.5v-843q0 -49 -15.5 -72t-64.5 -43q-180 -72 -398 -72t-324.5 106.5t-106.5 305.5v618q0 35 14 48.5t49 13.5h113q35 0 48 -13.5t13 -48.5v-610q0 -203 223 -203q106 0 189 25q23 8 22 35v753q0 35 14.5 48.5t49.5 13.5h110z" />
    <glyph glyph-name="v" unicode="v" horiz-adv-x="1054" 
d="M973 1061q47 0 58 -14t-5 -58l-379 -934q-23 -57 -86 -57h-67q-66 0 -86 57l-377 932q-16 45 -6 59t57 15h80q57 0 79 -12t33 -52l191 -491q10 -27 19 -59q8 -33 16 -59t12 -48l10 -53h10q2 2 14 66t42 151l188 493q16 39 36 51t79 13h82z" />
    <glyph glyph-name="w" unicode="w" horiz-adv-x="1505" 
d="M1407 1061q45 0 55.5 -14.5t-2.5 -59.5l-274 -932q-16 -57 -86 -57h-70q-70 0 -88 57l-149 525q-21 77 -33 178l-4 33h-11l-4 -33q-11 -95 -34 -178l-150 -525q-16 -57 -86 -57h-68q-70 0 -86 57l-272 932q-14 45 -4 59.5t55 14.5h80q59 0 82 -12.5t31 -51.5l117 -458
q17 -81 24.5 -163.5t9.5 -86.5h11q0 2 4 30.5t10 84.5t29 137l135 448q12 43 30.5 54.5t73.5 11.5h47q55 0 73.5 -11.5t31.5 -52.5l137 -450q26 -98 34.5 -174t8.5 -78h12l4 39q5 100 31 213l113 456q8 39 31.5 51.5t82.5 12.5h68z" />
    <glyph glyph-name="x" unicode="x" horiz-adv-x="1040" 
d="M932 1061q92 0 43 -74l-307 -440l327 -473q53 -74 -45 -74h-98q-51 0 -72 9q-20 9 -43 44l-221 322l-211 -322q-23 -35 -43 -44t-72 -9h-96q-55 0 -65 18t18 56l328 471l-314 442q-53 74 50 74h92q53 0 75 -10t41 -43l203 -289l199 289q23 35 41 44t69 9h101z" />
    <glyph glyph-name="y" unicode="y" horiz-adv-x="1136" 
d="M954 1061q35 0 49.5 -13.5t14.5 -48.5v-1034q0 -211 -109.5 -328.5t-341.5 -117.5q-305 0 -426 196q-43 68 27 103l78 43q37 18 58.5 13t43.5 -38q66 -104 215 -104q217 0 217 221v96q-127 -29 -243 -29q-215 0 -321.5 106.5t-106.5 305.5v567q0 35 14 48.5t49 13.5h113
q35 0 48 -13.5t13 -48.5v-559q0 -203 223 -202q100 0 211 28v733q0 35 14.5 48.5t49.5 13.5h110z" />
    <glyph glyph-name="z" unicode="z" horiz-adv-x="964" 
d="M842 215q35 0 48 -14.5t13 -48.5v-89q0 -35 -13 -49t-48 -14h-717q-35 0 -49.5 14.5t-14.5 48.5v89q0 39 23 63l502 631h-451q-35 0 -49 14t-14 49v90q0 35 14 48.5t49 13.5h696q35 0 48.5 -13.5t13.5 -48.5v-90q0 -41 -23 -67l-505 -627h477z" />
    <glyph glyph-name="braceleft" unicode="{" horiz-adv-x="712" 
d="M610 1753q35 0 49 -14t15 -49v-88q0 -36 -14 -50t-50 -14h-96q-68 0 -68 -72v-485q0 -174 -145 -260q145 -57 145 -258v-477q0 -72 68 -72h96q35 0 49 -14t15 -50v-88q0 -35 -14 -49t-50 -14h-102q-158 0 -222 63t-65 209v457q0 172 -135 172h-14q-29 0 -40 14t-12 50
v116q0 61 50 62h16q135 0 135 172v465q0 143 65 209t220 65h104z" />
    <glyph glyph-name="bar" unicode="|" horiz-adv-x="481" 
d="M291 1753q35 0 49 -14t14 -49v-1928q0 -35 -14 -49t-49 -14h-101q-35 0 -49 14t-14 49v1928q0 35 14 49t49 14h101z" />
    <glyph glyph-name="braceright" unicode="}" horiz-adv-x="712" 
d="M209 1753q155 1 219 -65t64 -209v-465q0 -172 135 -172h16q51 0 51 -62v-116q0 -63 -53 -64h-14q-135 0 -135 -172v-457q0 -145 -65 -209t-222 -63h-103q-35 0 -48 14t-13 49v88q0 36 13 50t48 14h97q70 0 69 72v477q0 203 144 258q-143 84 -144 260v485q0 72 -69 72h-97
q-35 0 -48 14t-13 50v88q0 35 13 49t48 14h107z" />
    <glyph glyph-name="asciitilde" unicode="~" horiz-adv-x="1138" 
d="M389 809q86 0 184 -35t157 -35t103 36t61 35t44 -28l63 -59q53 -53 0 -98q-111 -100 -251 -101q-86 0 -184 36t-158 36q-58 0 -102 -37t-60 -36t-43 28l-66 61q-55 52 0 99q109 98 252 98z" />
    <glyph glyph-name="exclamdown" unicode="&#xa1;" horiz-adv-x="475" 
d="M178 -455q-35 -1 -49 13t-12 49l26 973q-1 35 13 49t49 14h65q35 0 48 -14t16 -49l26 -973q2 -35 -12 -48t-49 -14h-121zM229 795q-75 1 -103 29t-28 102v18q0 76 29 104t102 27h15q76 1 104 -27t27 -104v-18q0 -74 -28 -103t-103 -28h-15z" />
    <glyph glyph-name="cent" unicode="&#xa2;" horiz-adv-x="1097" 
d="M682 -109q0 -35 -13 -49t-48 -14h-113q-35 0 -49 14t-15 49v86q-346 49 -346 412v283q0 170 87 276t259 133v105q0 35 14 49t50 14h113q35 0 48 -14t13 -49v-105q254 -41 326 -258q12 -39 2 -58t-45 -34l-93 -29q-37 -14 -56 -4t-34 47q-53 137 -221 138
q-225 0 -225 -201v-303q0 -97 57 -149t168 -52q168 0 221 141q14 37 34 45t58 -4l91 -26q72 -29 45 -92q-86 -215 -328 -260v-91z" />
    <glyph glyph-name="sterling" unicode="&#xa3;" horiz-adv-x="1323" 
d="M252 1055q0 180 127 305t348 125q383 0 506 -311q14 -36 4 -56t-47 -35l-113 -39q-37 -12 -53 -4t-35 47q-41 84 -99 121t-156 37t-155 -57q-58 -57 -59 -144v-241h449q39 1 54 -15t15 -55v-82q0 -39 -15 -55t-54 -16h-449v-142q0 -145 -102 -213v-12q154 27 317 27h418
q39 0 54 -16t16 -54v-100q1 -38 -15 -54t-55 -16h-1001q-39 0 -54 15q-14 15 -14 55v102q0 57 39 57h14q115 33 115 207v144h-92q-39 0 -55 16q-15 16 -15 55v82q0 39 15 54t55 16h92v252z" />
    <glyph glyph-name="currency" unicode="&#xa4;" horiz-adv-x="1255" 
d="M630 940q-105 0 -178 -72t-73 -177t73 -179t178 -74t178 74t73 179t-73 177t-178 72zM631 225q-127 0 -236 64l-100 -101q-45 -45 -88 0l-80 80q-45 43 0 88l102 103q-65 109 -65 233t65 228l-102 102q-25 25 -25 44t25 46l78 78q27 24 46 24t44 -24l100 -100
q111 66 237 66t226 -66l100 100q26 24 46 24t45 -24l77 -78q47 -43 0 -90l-98 -98q66 -102 66 -232t-64 -235l98 -99q45 -45 0 -90l-79 -78q-25 -24 -44 -24t-44 24l-101 101q-102 -66 -229 -66z" />
    <glyph glyph-name="yen" unicode="&#xa5;" horiz-adv-x="1343" 
d="M1245 1454q35 0 44 -20t-9 -50l-389 -624h160q35 0 48 -14t13 -48v-61q0 -35 -13 -48t-48 -14h-252v-118h252q35 1 48 -13t13 -49v-61q0 -35 -13 -48t-48 -14h-250v-202q-1 -38 -17 -54t-55 -16h-117q-39 0 -54 15t-15 55v202h-252q-35 0 -48 14t-14 48v61q1 35 15 48
t47 14h252v118h-252q-33 -1 -47 13t-15 49v61q1 35 15 48t47 14h162l-390 624q-18 30 -9 50t44 20h127q65 0 89 -9t46 -52l318 -547l315 547q23 43 46 52q24 9 89 9h117z" />
    <glyph glyph-name="brokenbar" unicode="&#xa6;" horiz-adv-x="497" 
d="M299 571q35 0 49 -14t14 -49v-744q0 -35 -14 -49t-49 -14h-100q-35 0 -49 14t-15 49v744q1 35 15 49t49 14h100zM299 1753q35 0 49 -14t14 -49v-744q0 -35 -14 -49t-49 -14h-100q-35 0 -49 14t-15 49v744q1 35 15 49t49 14h100z" />
    <glyph glyph-name="section" unicode="&#xa7;" horiz-adv-x="1243" 
d="M477 692q-119 -61 -119 -166t93 -138q74 -26 206 -38q51 0 117 -12q104 66 104 162t-88 130q-72 26 -190 43q-119 17 -123 19zM119 1062q0 196 130 311q130 114 378 114q358 0 491 -297q18 -37 9 -60t-50 -40l-100 -46q-35 -16 -55 -8t-41 45q-72 162 -254 162
q-246 0 -246 -170q0 -55 41 -89t88 -45q48 -11 202 -35t238 -62q184 -88 185 -307q0 -162 -136 -269q147 -88 147 -288t-136 -314q-137 -113 -392 -113q-198 0 -332 82t-190 236q-23 72 47 94l103 37q39 14 59 4t37 -49q57 -164 276 -164q272 0 273 170q0 55 -41 88t-88 43
q-46 10 -208 28t-253 52q-205 82 -205 313q0 180 170 289q-147 92 -147 288z" />
    <glyph glyph-name="dieresis" unicode="&#xa8;" horiz-adv-x="899" 
d="M655 1452q61 0 85 -24t24 -82v-19q0 -59 -24 -83t-85 -23h-12q-61 -1 -85 23t-23 83v19q-1 58 23 82t85 24h12zM246 1452q61 0 85 -24t23 -82v-19q0 -59 -24 -83t-84 -23h-15q-61 -1 -84 23t-22 83v19q1 58 23 82t83 24h15z" />
    <glyph glyph-name="copyright" unicode="&#xa9;" horiz-adv-x="1636" 
d="M508 823q0 133 81 209t228 76q229 0 295 -184q10 -29 4 -42t-35 -24l-55 -20q-27 -10 -41 -3t-26 45q-24 75 -142 74q-150 0 -149 -129v-219q0 -133 149 -133q115 0 146 88q20 51 65 33l53 -21q51 -20 33 -65q-72 -186 -297 -186q-147 0 -228 76t-81 208v217zM1389 719
q0 243 -164 407t-406 164q-243 0 -407 -164t-164 -406t165 -409q165 -166 407 -166t405 166q164 166 164 408zM84 720q0 308 214 521t522 213t520 -213t212 -522t-212 -522t-520 -213t-522 214t-214 522z" />
    <glyph glyph-name="ordfeminine" unicode="&#xaa;" horiz-adv-x="737" 
d="M356 981q-84 0 -84 -57q0 -33 18 -45q18 -13 73 -13q54 0 73 6q12 8 13 21v84q-49 4 -93 4zM631 1118v-262q1 -43 -13 -62t-68 -43t-195 -24q-140 0 -199 49q-60 50 -60 144t60 142t211 48q45 0 82 -4v29q-1 45 -19 65t-66 20t-104 -51q-29 -20 -61 -10l-49 27
q-35 16 -42 32t11 44q80 111 250 110q262 0 262 -254z" />
    <glyph glyph-name="guillemotleft" unicode="&#xab;" horiz-adv-x="1208" 
d="M1120 858q0 -16 -20 -39l-277 -276l273 -271q39 -39 0 -79l-76 -76q-43 -37 -78 0l-381 381q-41 39 0 80l389 391q41 39 80 0l70 -72q20 -23 20 -39zM53 538q0 17 23 40l389 391q43 39 80 0l69 -72q23 -23 23 -39t-23 -39l-274 -276l270 -271q41 -39 0 -79l-73 -76
q-41 -37 -80 0l-381 381q-23 23 -23 40z" />
    <glyph glyph-name="logicalnot" unicode="&#xac;" horiz-adv-x="1204" 
d="M1016 842q37 0 50 -14t13 -50v-430q0 -35 -13 -49t-50 -14h-109q-35 0 -49 14t-14 49v270h-674q-37 0 -50 14t-14 50v96q0 35 14 49t50 15h846z" />
    <glyph glyph-name="registered" unicode="&#xae;" horiz-adv-x="958" 
d="M418 1073h96q49 0 49 47t-49 47h-96v-94zM520 1255q63 0 103 -35q39 -36 39 -100q0 -94 -82 -121l65 -106q25 -35 -18 -35h-45q-29 0 -41 21l-64 110h-59v-108q0 -15 -5 -19t-20 -4h-43q-25 0 -24 23v350q0 16 5 20t21 4h168zM186 1057q0 -123 86 -210t209 -87t209 87
t86 210t-86 209t-209 86t-209 -86t-86 -209zM82 1057q0 165 118 281t280 116t280 -117q117 -117 117 -281t-116 -280q-116 -117 -280 -117q-163 0 -281 117t-118 281z" />
    <glyph glyph-name="macron" unicode="&#xaf;" horiz-adv-x="720" 
d="M600 1427q35 0 47 -12t12 -47v-53q0 -35 -12 -47t-47 -13h-475q-35 1 -47 13t-12 47v53q0 35 13 47t46 12h475z" />
    <glyph glyph-name="degree" unicode="&#xb0;" horiz-adv-x="813" 
d="M408 1284q-60 0 -104 -44t-44 -104t43 -104t103 -43q60 0 105 43q44 44 44 104t-43 104t-104 44zM741 1140q0 -138 -99 -238t-236 -101q-137 0 -236 98q-98 99 -98 239t97 236t237 96t238 -96q97 -96 97 -234z" />
    <glyph glyph-name="plusminus" unicode="&#xb1;" horiz-adv-x="1218" 
d="M1024 412q39 0 54 -16t16 -54v-63q0 -39 -16 -55t-54 -15h-827q-41 0 -56 14q-14 14 -14 56v63q0 39 15 54t55 16h827zM1024 911q39 0 54 -15t16 -54v-64q0 -39 -16 -54t-54 -15h-307v-160q1 -39 -15 -54t-55 -16h-76q-39 -1 -54 15t-15 55v160h-305q-41 0 -56 14
q-14 14 -14 55v64q0 39 15 54t55 15h305v168q0 39 15 55t54 15h76q39 0 54 -15t16 -55v-168h307z" />
    <glyph glyph-name="twosuperior" unicode="&#xb2;" horiz-adv-x="745" 
d="M674 1414q0 -114 -50 -174t-175 -101l-111 -33q-74 -20 -74 -55v-17h338q59 0 60 -61v-62q0 -33 -14 -46t-46 -13h-467q-35 0 -49 13t-14 46v64q0 111 37 171t135 99l112 43q46 18 64 28q50 25 49 89q0 37 -24 59t-66 23q-72 0 -111 -76q-18 -39 -34 -48t-56 3l-55 23
q-70 25 -45 88q80 201 305 200q137 -1 214 -75t77 -188z" />
    <glyph glyph-name="threesuperior" unicode="&#xb3;" horiz-adv-x="753" 
d="M664 1444q0 -64 -20 -102t-69 -66q113 -59 113 -209q0 -111 -77 -171t-228 -60q-248 0 -317 196q-25 68 32 88l58 19q35 12 54 4t36 -47q30 -82 138 -82t108 78t-82 77h-78q-39 -1 -50 11t-12 51v51q0 45 12 56t56 12h59q80 0 80 71q0 78 -97 78t-128 -82
q-16 -43 -36 -53t-69 6l-36 14q-35 14 -45 34t2 57q70 203 315 202q133 0 207 -62t74 -171z" />
    <glyph glyph-name="acute" unicode="&#xb4;" horiz-adv-x="526" 
d="M346 1495q78 43 117 -4l51 -64q30 -34 21 -48q-9 -15 -29 -23l-356 -150q-59 -23 -80 4l-29 37q-20 27 -21 40q0 13 25 28z" />
    <glyph glyph-name="mu" unicode="&#xb5;" horiz-adv-x="1144" 
d="M967 1061q35 0 48 -13t13 -49v-843q0 -49 -15 -72t-63 -43q-176 -72 -344 -72t-248 74v-430q0 -35 -14 -49t-49 -15h-113q-35 1 -48 15t-13 49v1386q0 35 13 49t50 13h111q35 0 49 -13t14 -49v-612q0 -201 224 -201q102 0 188 27q20 4 21 31v755q0 35 14 49t49 13h113z
" />
    <glyph glyph-name="paragraph" unicode="&#xb6;" horiz-adv-x="1173" 
d="M973 1454q35 0 49 -14t14 -49v-1510q0 -35 -14 -49t-49 -14h-94q-35 0 -50 14q-14 14 -14 49v1336h-117v-1336q0 -35 -14 -49t-49 -14h-94q-35 0 -49 14t-15 49v721q-184 4 -298 121q-113 117 -113 307t118 306q118 118 308 118h481z" />
    <glyph glyph-name="periodcentered" unicode="&#xb7;" horiz-adv-x="516" 
d="M264 723q76 0 105 -29t28 -102v-19q-1 -75 -29 -103t-104 -28h-14q-74 0 -103 28t-28 103v19q1 74 29 102t102 29h14z" />
    <glyph glyph-name="cedilla" unicode="&#xb8;" horiz-adv-x="514" 
d="M324 -117q82 0 131 -53t41 -131q-18 -201 -275 -201q-184 0 -184 84l-2 62q0 41 33 24q61 -33 122 -33q100 0 101 74q0 57 -88 60q-35 0 -55 -2q-42 -4 -23 49l78 184h139l-45 -119q10 2 27 2z" />
    <glyph glyph-name="onesuperior" unicode="&#xb9;" horiz-adv-x="583" 
d="M410 1661q39 0 55 -15t16 -55v-669q0 -38 -15 -54t-56 -16h-60q-39 0 -54 14t-15 56v487l-115 -63q-63 -35 -100 24l-27 47q-18 39 -11 57t42 39l221 127q33 20 82 21h37z" />
    <glyph glyph-name="ordmasculine" unicode="&#xba;" horiz-adv-x="745" 
d="M463 1130q0 76 -90 76t-90 -76v-159q0 -76 90 -76t90 76v159zM94 1122q0 117 72 184q72 66 207 66t207 -66t71 -184v-145q1 -117 -71 -183t-207 -65q-135 0 -207 66t-72 182v145z" />
    <glyph glyph-name="guillemotright" unicode="&#xbb;" horiz-adv-x="1208" 
d="M86 858q0 16 23 39l69 72q39 41 80 0l389 -391q21 -23 21 -40t-21 -40l-381 -381q-39 -39 -80 0l-73 76q-39 41 0 79l270 271l-274 276q-23 23 -23 39zM571 858q0 16 23 39l70 72q39 45 77 0l392 -391q35 -41 0 -80l-381 -381q-39 -37 -80 0l-76 76q-39 41 0 79l270 271
l-272 276q-23 23 -23 39z" />
    <glyph glyph-name="onequarter" unicode="&#xbc;" horiz-adv-x="1644" 
d="M1290 336v225l-182 -225h182zM1419 809q39 0 49 -10t11 -51v-412h39q37 0 48 -10t11 -43v-58q0 -35 -10 -45t-49 -10h-39v-113q1 -35 -11 -46t-45 -11h-77q-33 0 -44 11t-12 46v113h-346q-35 0 -47 12t-12 49v50q0 41 18 63l348 430q17 23 33 29t49 6h86zM440 1452
q38 0 54 -15t16 -55v-669q0 -41 -15 -55t-55 -15h-59q-41 0 -56 15t-16 55v489l-114 -65q-61 -33 -99 24l-28 49q-33 59 30 95l221 127q33 20 82 20h39zM1409 1454q35 0 44 -20t-11 -48l-973 -1325q-31 -41 -53 -51t-84 -10h-82q-37 0 -46 20t11 50l977 1327q28 37 50 47
t77 10h90z" />
    <glyph glyph-name="onehalf" unicode="&#xbd;" horiz-adv-x="1712" 
d="M1632 562q0 -114 -50 -174t-173 -99l-113 -33q-74 -20 -73 -55v-19h338q33 0 46 -14t13 -47v-62q0 -59 -59 -59h-467q-35 0 -50 13q-14 13 -14 48v62q0 111 37 171t135 99l113 45q63 22 88 44t25 65t-24 67t-67 23q-74 0 -110 -78q-17 -39 -33 -47t-55 4l-58 21
q-70 24 -45 90q80 199 305 198q137 -1 214 -75t77 -188zM1391 1454q35 0 44 -20t-10 -48l-974 -1325q-31 -41 -54 -51t-84 -10h-80q-37 0 -46 20t12 50l975 1327q28 37 50 47t76 10h91zM440 1466q38 0 54 -15t16 -54v-672q0 -39 -15 -54t-55 -16h-61q-39 -1 -54 15t-16 55
v489l-114 -63q-61 -33 -99 25l-28 47q-33 57 30 96l221 127q33 20 82 20h39z" />
    <glyph glyph-name="threequarters" unicode="&#xbe;" horiz-adv-x="1708" 
d="M1360 336v225l-182 -225h182zM1489 809q39 0 49 -11t10 -50v-412h39q37 0 48 -10t12 -43v-58q-1 -35 -11 -45t-49 -10h-39v-113q0 -35 -11 -46t-44 -11h-78q-33 0 -44 11t-11 46v113h-346q-35 0 -47 12t-13 49v50q0 41 19 63l348 430q17 23 33 29t49 6h86zM1479 1454
q35 0 43 -20t-11 -48l-974 -1325q-29 -41 -53 -51t-85 -10h-80q-37 0 -46 20t12 50l975 1327q28 37 50 47t79 10h90zM393 1483q133 -1 207 -63t74 -169q0 -63 -20 -102t-68 -68q111 -55 110 -207q0 -111 -76 -172t-227 -61q-248 0 -317 197q-12 41 -5 59t38 29l57 20
q35 12 54 3q18 -9 34 -49t46 -59t93 -20q106 0 107 76q0 80 -80 80h-78q-39 0 -50 11t-11 50v52q0 45 10 55t55 10h62q80 0 79 74q0 78 -97 78t-128 -82q-16 -43 -36 -53t-68 6l-39 14q-66 25 -41 88q70 203 315 203z" />
    <glyph glyph-name="questiondown" unicode="&#xbf;" horiz-adv-x="1155" 
d="M563 -455q-231 0 -367 121t-136 297t69 268q70 93 157 141q19 11 57 34t52 30q61 41 94 80t33 87q0 49 16 63t52 14h80q37 0 52 -14t15 -52q0 -131 -55 -210t-179 -154q-30 -18 -38 -24t-33 -22q-25 -18 -34 -28t-26 -28t-34 -53q-25 -49 -25 -129t67 -138
q68 -58 188 -57q120 0 189 48t109 144q16 39 34 48t56 -5l99 -35q37 -11 47 -31t-4 -57q-135 -338 -535 -338zM621 793q-74 1 -103 29t-29 102v18q0 76 29 104t103 27h14q75 1 103 -27t28 -104v-18q0 -74 -28 -103t-103 -28h-14z" />
    <glyph glyph-name="Agrave" unicode="&#xc0;" horiz-adv-x="1347" 
d="M659 1219q0 -117 -45 -248l-157 -434h422l-156 432q-34 105 -47 215l-2 35h-15zM1278 0h-107q-63 0 -88.5 12.5t-38.5 48.5l-94 265h-565l-96 -265q-12 -37 -38 -49t-89 -12h-94q-72 0 -48 68l512 1331q14 35 32 46t54 11h109q37 0 55.5 -11t30.5 -44l512 -1333
q25 -68 -47 -68zM938 1641.5q0 -13.5 -20 -39.5l-29 -37q-20 -27 -80 -4l-356 147q-53 20 -11 72l54 63q39 49 114 4l303 -178q25 -14 25 -27.5z" />
    <glyph glyph-name="Aacute" unicode="&#xc1;" horiz-adv-x="1347" 
d="M659 1219q0 -117 -45 -248l-157 -434h422l-156 432q-34 105 -47 215l-2 35h-15zM1278 0h-107q-63 0 -88.5 12.5t-38.5 48.5l-94 265h-565l-96 -265q-12 -37 -38 -49t-89 -12h-94q-72 0 -48 68l512 1331q14 35 32 46t54 11h109q37 0 55.5 -11t30.5 -44l512 -1333
q25 -68 -47 -68zM741 1851q78 43 117 -4l53 -65q23 -27 22 -42.5t-32 -27.5l-356 -149q-59 -23 -78 2l-31 39q-37 45 4 65z" />
    <glyph glyph-name="Acircumflex" unicode="&#xc2;" horiz-adv-x="1347" 
d="M659 1219q0 -117 -45 -248l-157 -434h422l-156 432q-34 105 -47 215l-2 35h-15zM1278 0h-107q-63 0 -88.5 12.5t-38.5 48.5l-94 265h-565l-96 -265q-12 -37 -38 -49t-89 -12h-94q-72 0 -48 68l512 1331q14 35 32 46t54 11h109q37 0 55.5 -11t30.5 -44l512 -1333
q25 -68 -47 -68zM692 1862q37 0 56.5 -8.5t56.5 -47.5l209 -200q20 -20 13 -36t-44 -16h-92q-68 0 -100 37l-117 117l-125 -117q-23 -25 -39 -31t-57 -6h-86q-37 0 -43.5 15.5t14.5 36.5l207 200q37 37 57.5 46.5t65.5 9.5h24z" />
    <glyph glyph-name="Atilde" unicode="&#xc3;" horiz-adv-x="1347" 
d="M659 1219q0 -117 -45 -248l-157 -434h422l-156 432q-34 105 -47 215l-2 35h-15zM1278 0h-107q-63 0 -88.5 12.5t-38.5 48.5l-94 265h-565l-96 -265q-12 -37 -38 -49t-89 -12h-94q-72 0 -48 68l512 1331q14 35 32 46t54 11h109q37 0 55.5 -11t30.5 -44l512 -1333
q25 -68 -47 -68zM938 1833q41 0 41 -39q0 -123 -42 -175t-123 -52t-157.5 58t-115.5 58q-49 0 -49 -77q0 -39 -37 -39h-68q-39 0 -39 39q0 123 42 175t124 52t160 -58.5t114 -58.5q47 0 48 78q0 39 38 39h64z" />
    <glyph glyph-name="Adieresis" unicode="&#xc4;" horiz-adv-x="1347" 
d="M659 1219q0 -117 -45 -248l-157 -434h422l-156 432q-34 105 -47 215l-2 35h-15zM1278 0h-107q-63 0 -88.5 12.5t-38.5 48.5l-94 265h-565l-96 -265q-12 -37 -38 -49t-89 -12h-94q-72 0 -48 68l512 1331q14 35 32 46t54 11h109q37 0 55.5 -11t30.5 -44l512 -1333
q25 -68 -47 -68zM885 1819q61 0 83.5 -23.5t22.5 -83.5v-20q0 -59 -22.5 -83t-83.5 -24h-15q-61 0 -84.5 23.5t-23.5 83.5v20q0 59 23.5 83t84.5 24h15zM475 1819q61 0 85 -23.5t24 -83.5v-20q0 -59 -23.5 -83t-85.5 -24h-14q-61 0 -84 23.5t-23 83.5v20q0 59 22.5 83
t84.5 24h14z" />
    <glyph glyph-name="Aring" unicode="&#xc5;" horiz-adv-x="1347" 
d="M659 1219q0 -117 -45 -248l-157 -434h422l-156 432q-34 105 -47 215l-2 35h-15zM784 1568q0 48 -29.5 77.5t-78.5 29.5t-81 -29.5t-32 -77.5t32 -78t81 -30t78.5 30t29.5 78zM422 1558q0 120 71.5 189.5t182.5 69.5t180.5 -70t69.5 -192.5t-101 -184.5l500 -1302
q25 -68 -47 -68h-107q-63 0 -88.5 12.5t-38.5 48.5l-94 265h-565l-96 -265q-12 -37 -38 -49t-89 -12h-94q-72 0 -48 68l502 1306q-100 64 -100 184z" />
    <glyph glyph-name="AE" unicode="&#xc6;" horiz-adv-x="1757" 
d="M860 516v506l-305 -506h305zM1622 240q39 0 54.5 -15.5t15.5 -54.5v-100q0 -39 -15.5 -54.5t-54.5 -15.5h-692q-39 0 -54.5 15.5t-15.5 54.5v235h-430l-147 -244q-20 -35 -44 -48t-85 -13h-109q-72 0 -47 68l836 1329q23 35 38 46t48 11h679q39 0 54.5 -15.5t15.5 -54.5
v-100q0 -39 -15.5 -54.5t-54.5 -15.5h-491v-358h393q39 0 54.5 -15.5t15.5 -54.5v-100q0 -39 -15.5 -54.5t-54.5 -15.5h-393v-376h514z" />
    <glyph glyph-name="Ccedilla" unicode="&#xc7;" horiz-adv-x="1310" 
d="M737 -117q80 0 130.5 -53t41.5 -131q-20 -201 -274 -201q-98 0 -150 27q-35 14 -34 57l-2 62q0 41 32 24q61 -33 123 -33q100 0 101 74q0 57 -89 60q-34 0 -56 -2q-46 -4 -21 49l65 157q-242 20 -373 159.5t-131 371.5v448q0 248 153 390.5t433 142.5q436 0 557 -342
q25 -66 -43 -90l-113 -39q-37 -12 -55 -3t-33 46q-68 188 -313 188q-158 0 -243 -74.5t-85 -216.5v-452q0 -141 85 -217t243 -76q244 0 313 190q16 39 35 48.5t56 -5.5l110 -39q68 -25 45 -90q-115 -319 -500 -342l-34 -90q8 2 26 2z" />
    <glyph glyph-name="Egrave" unicode="&#xc8;" horiz-adv-x="1185" 
d="M1026 1454q39 0 55.5 -15.5t16.5 -54.5v-100q0 -39 -16.5 -54.5t-55.5 -15.5h-627v-358h531q39 0 54 -15.5t15 -54.5v-100q0 -39 -15 -54.5t-54 -15.5h-531v-376h650q39 0 54 -15.5t15 -54.5v-100q0 -39 -15.5 -54.5t-53.5 -15.5h-836q-39 0 -55.5 15.5t-16.5 54.5v1314
q0 39 16.5 54.5t55.5 15.5h813zM885 1641.5q0 -13.5 -21 -39.5l-28 -37q-18 -27 -78 -4l-359 147q-51 21 -8 72l51 63q39 47 117 4l303 -178q23 -14 23 -27.5z" />
    <glyph glyph-name="Eacute" unicode="&#xc9;" horiz-adv-x="1185" 
d="M1026 1454q39 0 55.5 -15.5t16.5 -54.5v-100q0 -39 -16.5 -54.5t-55.5 -15.5h-627v-358h531q39 0 54 -15.5t15 -54.5v-100q0 -39 -15 -54.5t-54 -15.5h-531v-376h650q39 0 54 -15.5t15 -54.5v-100q0 -39 -15.5 -54.5t-53.5 -15.5h-836q-39 0 -55.5 15.5t-16.5 54.5v1314
q0 39 16.5 54.5t55.5 15.5h813zM690 1851q76 41 117 -4l51 -65q31 -35 21.5 -48.5t-29.5 -21.5l-356 -149q-59 -23 -80 2l-29 39q-37 45 4 65z" />
    <glyph glyph-name="Ecircumflex" unicode="&#xca;" horiz-adv-x="1185" 
d="M1026 1454q39 0 55.5 -15.5t16.5 -54.5v-100q0 -39 -16.5 -54.5t-55.5 -15.5h-627v-358h531q39 0 54 -15.5t15 -54.5v-100q0 -39 -15 -54.5t-54 -15.5h-531v-376h650q39 0 54 -15.5t15 -54.5v-100q0 -39 -15.5 -54.5t-53.5 -15.5h-836q-39 0 -55.5 15.5t-16.5 54.5v1314
q0 39 16.5 54.5t55.5 15.5h813zM639 1862q39 0 57.5 -8.5t57.5 -47.5l207 -200q20 -20 14 -36t-43 -16h-92q-70 0 -101 37l-118 117l-123 -117q-25 -25 -41.5 -31t-57.5 -6h-84q-37 0 -44 15.5t14 36.5l209 200q37 37 56 46.5t64 9.5h25z" />
    <glyph glyph-name="Edieresis" unicode="&#xcb;" horiz-adv-x="1185" 
d="M1026 1454q39 0 55.5 -15.5t16.5 -54.5v-100q0 -39 -16.5 -54.5t-55.5 -15.5h-627v-358h531q39 0 54 -15.5t15 -54.5v-100q0 -39 -15 -54.5t-54 -15.5h-531v-376h650q39 0 54 -15.5t15 -54.5v-100q0 -39 -15.5 -54.5t-53.5 -15.5h-836q-39 0 -55.5 15.5t-16.5 54.5v1314
q0 39 16.5 54.5t55.5 15.5h813zM834 1819q59 0 82.5 -23.5t23.5 -83.5v-20q0 -59 -23.5 -83t-82.5 -24h-15q-61 0 -84.5 23.5t-23.5 83.5v20q0 59 23.5 83t84.5 24h15zM422 1819q61 0 84.5 -23.5t23.5 -83.5v-20q0 -59 -23.5 -83t-84.5 -24h-14q-59 0 -83 23.5t-24 83.5v20
q0 59 23.5 83t83.5 24h14z" />
    <glyph glyph-name="Igrave" unicode="&#xcc;" horiz-adv-x="540" 
d="M143 1384q0 39 15.5 54.5t54.5 15.5h117q39 0 54 -15.5t15 -54.5v-1314q0 -39 -15 -54.5t-54 -15.5h-117q-39 0 -54.5 15.5t-15.5 54.5v1314zM537 1641.5q0 -13.5 -21 -39.5l-29 -37q-20 -27 -79 -4l-357 147q-31 12 -32 28.5t22 43.5l53 63q39 47 117 4l301 -178
q25 -14 25 -27.5z" />
    <glyph glyph-name="Iacute" unicode="&#xcd;" horiz-adv-x="540" 
d="M141 1384q0 39 16.5 54.5t55.5 15.5h117q39 0 54 -15.5t15 -54.5v-1314q0 -39 -15 -54.5t-54 -15.5h-117q-39 0 -55.5 15.5t-16.5 54.5v1314zM340 1851q78 43 117 -4l53 -65q23 -27 21.5 -42.5t-31.5 -27.5l-357 -149q-59 -23 -80 2l-28 39q-37 45 4 65z" />
    <glyph glyph-name="Icircumflex" unicode="&#xce;" horiz-adv-x="540" 
d="M141 1384q0 39 16.5 54.5t55.5 15.5h117q39 0 54 -15.5t15 -54.5v-1314q0 -39 -15 -54.5t-54 -15.5h-117q-39 0 -55.5 15.5t-16.5 54.5v1314zM291 1862q37 0 56.5 -8.5t55.5 -47.5l209 -200q20 -20 13 -36t-43 -16h-93q-68 0 -100 37l-119 117l-123 -117q-23 -25 -39 -31
t-57 -6h-86q-37 0 -43 15.5t15 36.5l206 200q37 37 57.5 46.5t65.5 9.5h25z" />
    <glyph glyph-name="Idieresis" unicode="&#xcf;" horiz-adv-x="540" 
d="M141 1384q0 39 16.5 54.5t55.5 15.5h117q39 0 54 -15.5t15 -54.5v-1314q0 -39 -15 -54.5t-54 -15.5h-117q-39 0 -55.5 15.5t-16.5 54.5v1314zM483 1819q61 0 84 -23.5t23 -83.5v-20q0 -59 -22.5 -83t-84.5 -24h-14q-61 0 -85 23.5t-24 83.5v20q0 59 24 83t85 24h14z
M74 1819q61 0 83.5 -23.5t22.5 -83.5v-20q0 -59 -22.5 -83t-83.5 -24h-15q-61 0 -83.5 23.5t-22.5 83.5v20q0 59 22.5 83t83.5 24h15z" />
    <glyph glyph-name="Eth" unicode="&#xd0;" horiz-adv-x="1396" 
d="M1040 915q0 145 -86 223t-249 76h-275v-380h272q25 0 33 -10t8 -36v-75q0 -27 -8 -36t-33 -9h-272v-428h275q163 0 249 76t86 223v376zM705 1454q283 0 439 -144t154 -397v-372q0 -252 -155 -397q-156 -144 -438 -144h-461q-39 0 -55 15q-15 15 -15 55v598h-121
q-25 0 -33 9t-8 36v75q0 45 41 46h121v550q0 38 15 54t55 16h461z" />
    <glyph glyph-name="Ntilde" unicode="&#xd1;" horiz-adv-x="1425" 
d="M1212 1454q39 0 54.5 -15.5t15.5 -54.5v-1314q0 -39 -15.5 -54.5t-54.5 -15.5h-116q-47 0 -68 35l-502 741q-74 109 -146 286q-22 56 -22 58h-12q0 -2 22 -124t23 -283v-643q0 -39 -15.5 -54.5t-53.5 -15.5h-109q-39 0 -55.5 15.5t-16.5 54.5v1314q0 39 16.5 54.5
t55.5 15.5h117q45 0 67 -33l498 -737q89 -132 149 -290q22 -56 23 -58h12q-1 4 -23 130t-22 284v634q0 39 15.5 54.5t54.5 15.5h108zM981 1833q39 0 39 -39q0 -123 -41 -175t-122 -52t-158.5 58t-116.5 58q-47 0 -47 -77q0 -39 -39 -39h-66q-39 0 -39 39q0 123 42 175
t123 52t160 -58.5t113 -58.5q49 0 50 78q0 39 36 39h66z" />
    <glyph glyph-name="Ograve" unicode="&#xd2;" horiz-adv-x="1370" 
d="M1014 952q0 141 -85 217t-243 76t-243 -74.5t-85 -218.5v-450q0 -143 85 -218t243 -75t243 75.5t85 217.5v450zM100 950q0 250 153 392.5t433 142.5t432 -142.5t152 -392.5v-446q0 -250 -152.5 -392.5t-432.5 -142.5t-432.5 142.5t-152.5 392.5v446zM508 1864
q39 47 117 4l301 -178q25 -14 24.5 -27.5t-20.5 -40.5l-29 -37q-18 -25 -80 -4l-356 148q-31 12 -32 28.5t22 42.5z" />
    <glyph glyph-name="Oacute" unicode="&#xd3;" horiz-adv-x="1370" 
d="M1014 952q0 141 -85 217t-243 76t-243 -74.5t-85 -218.5v-450q0 -143 85 -218t243 -75t243 75.5t85 217.5v450zM100 950q0 250 153 392.5t432.5 142.5t432 -142.5t152.5 -392.5v-446q0 -250 -152.5 -392.5t-432.5 -142.5t-432.5 142.5t-152.5 392.5v446zM756 1872
q76 41 114 -4l54 -66q30 -34 21 -47.5t-30 -21.5l-356 -150q-59 -23 -80 2l-28 39q-37 45 4 66z" />
    <glyph glyph-name="Ocircumflex" unicode="&#xd4;" horiz-adv-x="1370" 
d="M1014 952q0 141 -85 217t-243 76t-243 -74.5t-85 -218.5v-450q0 -143 85 -218t243 -75t243 75.5t85 217.5v450zM100 950q0 250 153 392.5t433 142.5t432 -142.5t152 -392.5v-446q0 -250 -152.5 -392.5t-432.5 -142.5t-432.5 142.5t-152.5 392.5v446zM705 1882q39 0 57 -8
t57 -47l207 -201q20 -20 13 -35.5t-44 -15.5h-90q-41 0 -61.5 6t-40.5 31l-117 117l-123 -117q-25 -25 -41 -31t-57 -6h-84q-37 0 -44 15.5t13 35.5l209 201q37 37 56.5 46t64.5 9h25z" />
    <glyph glyph-name="Otilde" unicode="&#xd5;" horiz-adv-x="1370" 
d="M1014 952q0 141 -85 217t-243 76t-243 -74.5t-85 -218.5v-450q0 -143 85 -218t243 -75t243 75.5t85 217.5v450zM100 950q0 250 153 392.5t433 142.5t432 -142.5t152 -392.5v-446q0 -250 -152.5 -392.5t-432.5 -142.5t-432.5 142.5t-152.5 392.5v446zM952 1853
q39 0 39 -38q0 -123 -41 -175.5t-122 -52.5t-158.5 58.5t-116.5 58.5q-47 0 -47 -78q0 -39 -39 -39h-66q-39 0 -39 39q0 123 42 175t123 52t160 -58t114 -58q49 0 49 78q0 39 37 38h65z" />
    <glyph glyph-name="Odieresis" unicode="&#xd6;" horiz-adv-x="1370" 
d="M1014 952q0 141 -85 217t-243 76t-243 -74.5t-85 -218.5v-450q0 -143 85 -218t243 -75t243 75.5t85 217.5v450zM100 950q0 250 153 392.5t433 142.5t432 -142.5t152 -392.5v-446q0 -250 -152.5 -392.5t-432.5 -142.5t-432.5 142.5t-152.5 392.5v446zM897 1839
q61 0 85 -23.5t24 -82.5v-21q0 -59 -24 -82.5t-85 -23.5h-12q-61 0 -85 23.5t-24 82.5v21q0 59 23.5 82.5t85.5 23.5h12zM487 1839q61 0 85 -23.5t24 -82.5v-21q0 -59 -23.5 -82.5t-85.5 -23.5h-14q-61 0 -83.5 23.5t-22.5 82.5v21q0 59 22.5 82.5t83.5 23.5h14z" />
    <glyph glyph-name="multiply" unicode="&#xd7;" horiz-adv-x="1050" 
d="M819 1090q20 0 47 -27l56 -55q28 -27 28 -47t-28 -48l-248 -247l248 -248q28 -27 28 -47t-28 -47l-56 -58q-27 -26 -47 -26t-47 26l-248 248l-245 -246q-47 -47 -95 0l-57 58q-47 45 0 94l246 246l-246 245q-47 49 0 95l57 57q47 47 95 0l245 -248l248 248q27 27 47 27z
" />
    <glyph glyph-name="Oslash" unicode="&#xd8;" horiz-adv-x="1370" 
d="M703.5 209q140.5 0 225.5 75.5t85 217.5v450q0 51 -21 97l-508 -795q78 -45 218.5 -45zM668.5 1245q-140.5 0 -225.5 -74.5t-85 -218.5v-450q0 -63 25 -109l510 801q-84 51 -224.5 51zM1282 1542q23 0 12 -22l-139 -215q115 -137 115 -355v-446q0 -248 -151.5 -389.5
t-432.5 -145.5q-197 -2 -336 72l-63 -100q-16 -20 -47 -21h-134q-27 0 -12 23l127 198q-121 137 -121 363v446q0 250 153 392.5t433 142.5q201 0 342 -80l74 117q16 20 43 20h137z" />
    <glyph glyph-name="Ugrave" unicode="&#xd9;" horiz-adv-x="1409" 
d="M389 498q0 -139 80 -214t235.5 -75t235.5 74.5t80 214.5v886q0 39 15.5 54.5t54.5 15.5h116q39 0 54.5 -15.5t15.5 -54.5v-884q0 -246 -147.5 -388.5t-424 -142.5t-425 142.5t-148.5 388.5v884q0 39 15.5 54.5t54.5 15.5h118q39 0 54.5 -15.5t15.5 -54.5v-886z
M969 1641.5q0 -13.5 -21 -39.5l-28 -37q-18 -25 -80 -4l-357 147q-31 12 -31.5 28.5t21.5 43.5l53 63q39 47 117 4l301 -178q25 -14 25 -27.5z" />
    <glyph glyph-name="Uacute" unicode="&#xda;" horiz-adv-x="1409" 
d="M389 498q0 -139 80 -214t235.5 -75t235.5 74.5t80 214.5v886q0 39 15.5 54.5t54.5 15.5h116q39 0 54.5 -15.5t15.5 -54.5v-884q0 -246 -147.5 -388.5t-424 -142.5t-425 142.5t-148.5 388.5v884q0 39 15.5 54.5t54.5 15.5h118q39 0 54.5 -15.5t15.5 -54.5v-886zM774 1851
q76 41 115 -4l53 -65q31 -35 21.5 -48.5t-29.5 -21.5l-356 -149q-59 -23 -80 2l-29 39q-37 45 4 65z" />
    <glyph glyph-name="Ucircumflex" unicode="&#xdb;" horiz-adv-x="1409" 
d="M389 498q0 -139 80 -214t235.5 -75t235.5 74.5t80 214.5v886q0 39 15.5 54.5t54.5 15.5h116q39 0 54.5 -15.5t15.5 -54.5v-884q0 -246 -147.5 -388.5t-424 -142.5t-425 142.5t-148.5 388.5v884q0 39 15.5 54.5t54.5 15.5h118q39 0 54.5 -15.5t15.5 -54.5v-886zM723 1862
q39 0 57.5 -8.5t57.5 -47.5l206 -200q20 -20 13.5 -36t-43.5 -16h-90q-43 0 -62.5 6.5t-40.5 30.5l-116 117l-123 -117q-25 -25 -41.5 -31t-57.5 -6h-84q-37 0 -44 15.5t14 36.5l209 200q37 37 56 46.5t64 9.5h25z" />
    <glyph glyph-name="Udieresis" unicode="&#xdc;" horiz-adv-x="1409" 
d="M389 498q0 -139 80 -214t235.5 -75t235.5 74.5t80 214.5v886q0 39 15.5 54.5t54.5 15.5h116q39 0 54.5 -15.5t15.5 -54.5v-884q0 -246 -147.5 -388.5t-424 -142.5t-425 142.5t-148.5 388.5v884q0 39 15.5 54.5t54.5 15.5h118q39 0 54.5 -15.5t15.5 -54.5v-886zM915 1819
q61 0 85 -23.5t24 -83.5v-20q0 -59 -23.5 -83t-85.5 -24h-12q-61 0 -84.5 23.5t-23.5 83.5v20q0 59 23.5 83t84.5 24h12zM506 1819q61 0 84.5 -23.5t23.5 -83.5v-20q0 -59 -23.5 -83t-84.5 -24h-14q-61 0 -84 23.5t-23 83.5v20q0 59 22.5 83t84.5 24h14z" />
    <glyph glyph-name="Yacute" unicode="&#xdd;" horiz-adv-x="1316" 
d="M1251 1454q37 0 45.5 -20.5t-10.5 -49.5l-500 -811v-503q0 -39 -15 -54.5t-54 -15.5h-117q-39 0 -54.5 15.5t-15.5 54.5v508l-501 806q-18 29 -9 49.5t46 20.5h143q66 0 89.5 -9t45.5 -52l318 -553l319 553q23 43 47.5 52t89.5 9h133zM733 1851q76 41 117 -4l51 -65
q31 -35 21.5 -48.5t-29.5 -21.5l-356 -149q-59 -23 -80 2l-29 39q-37 45 4 65z" />
    <glyph glyph-name="Thorn" unicode="&#xde;" horiz-adv-x="1290" 
d="M711 481q119 0 189 71q70 70 69 184q0 114 -70 185t-188 70h-312v-510h312zM735 1231q229 0 367 -133q138 -132 137 -362q0 -230 -137 -362t-367 -132h-336v-172q0 -38 -15 -54t-54 -16h-117q-39 0 -55 15t-17 55v1314q1 38 17 54t55 16h117q39 0 54 -15t15 -55v-153h336
z" />
    <glyph glyph-name="germandbls" unicode="&#xdf;" 
d="M119 1081q0 203 115 329q116 126 329 126t328 -112t115 -320t-152 -301v-6q207 -82 207 -375q0 -202 -116 -312t-324 -110h-107q-39 0 -54 15t-16 55v100q0 39 16 54t54 16h82q98 0 150 54t52 156t-52 157q-52 56 -146 57h-84q-39 0 -54 15t-16 54v92q0 39 16 55t54 15
h62q84 0 131 54q47 55 47 149t-52 146t-147 52q-94 0 -147 -57t-54 -156v-1013q0 -38 -15 -54t-54 -16h-97q-39 0 -55 15t-16 55v1011z" />
    <glyph glyph-name="agrave" unicode="&#xe0;" horiz-adv-x="1062" 
d="M502 436q-111 0 -154 -32.5t-43 -101.5t40 -102.5t162 -33.5t195 16q23 8 23 29v215q-215 10 -223 10zM524 1092q438 0 439 -422v-531q0 -53 -15.5 -75.5t-58.5 -40.5q-123 -53 -376 -53.5t-351.5 80.5t-98.5 257t108 250t357 74q23 0 197 -10v57q0 100 -47 151.5
t-158 51.5q-152 0 -215 -99q-23 -33 -38 -38t-50 8l-82 34q-68 32 -35 93q111 213 424 213zM346 1489q41 47 117 2l301 -180q41 -20 4 -66l-29 -39q-23 -27 -80 -2l-356 150q-55 16 -8 69z" />
    <glyph glyph-name="aacute" unicode="&#xe1;" horiz-adv-x="1062" 
d="M502 436q-111 0 -154 -32.5t-43 -101.5t40 -102.5t162 -33.5t195 16q23 8 23 29v215q-215 10 -223 10zM524 1092q438 0 439 -422v-531q0 -53 -15.5 -75.5t-58.5 -40.5q-123 -53 -376 -53.5t-351.5 80.5t-98.5 257t108 250t357 74q23 0 197 -10v57q0 100 -47 151.5
t-158 51.5q-152 0 -215 -99q-23 -33 -38 -38t-50 8l-82 34q-68 32 -35 93q111 213 424 213zM594 1491q74 47 115 -2l53 -66q23 -27 21.5 -43t-31.5 -26l-357 -150q-59 -25 -78 2l-28 39q-37 45 2 66z" />
    <glyph glyph-name="acircumflex" unicode="&#xe2;" horiz-adv-x="1062" 
d="M502 436q-111 0 -154 -32.5t-43 -101.5t40 -102.5t162 -33.5t195 16q23 8 23 29v215q-215 10 -223 10zM524 1092q438 0 439 -422v-531q0 -53 -15.5 -75.5t-58.5 -40.5q-123 -53 -376 -53.5t-351.5 80.5t-98.5 257t108 250t357 74q23 0 197 -10v57q0 100 -47 151.5
t-158 51.5q-152 0 -215 -99q-23 -33 -38 -38t-50 8l-82 34q-68 32 -35 93q111 213 424 213zM543 1499q39 0 57 -8t55 -45l209 -201q20 -20 13 -35.5t-43 -15.5h-93q-68 0 -100 35l-117 117l-125 -117q-23 -25 -39 -30t-57 -5h-84q-37 0 -44 15.5t13 35.5l209 201
q35 37 54.5 45t66.5 8h25z" />
    <glyph glyph-name="atilde" unicode="&#xe3;" horiz-adv-x="1062" 
d="M502 436q-111 0 -154 -32.5t-43 -101.5t40 -102.5t162 -33.5t195 16q23 8 23 29v215q-215 10 -223 10zM524 1092q438 0 439 -422v-531q0 -53 -15.5 -75.5t-58.5 -40.5q-123 -53 -376 -53.5t-351.5 80.5t-98.5 257t108 250t357 74q23 0 197 -10v57q0 100 -47 151.5
t-158 51.5q-152 0 -215 -99q-23 -33 -38 -38t-50 8l-82 34q-68 32 -35 93q111 213 424 213zM199 1253q0 230 167 230q81 0 158.5 -58.5t114.5 -58.5q47 0 47 78q0 39 39 39h66q39 0 38 -39q0 -123 -42 -176.5t-123 -53.5t-157.5 58.5t-115.5 58.5q-49 0 -49 -78
q0 -39 -37 -39h-67q-39 0 -39 39z" />
    <glyph glyph-name="adieresis" unicode="&#xe4;" horiz-adv-x="1062" 
d="M502 436q-111 0 -154 -32.5t-43 -101.5t40 -102.5t162 -33.5t195 16q23 8 23 29v215q-215 10 -223 10zM524 1092q438 0 439 -422v-531q0 -53 -15.5 -75.5t-58.5 -40.5q-123 -53 -376 -53.5t-351.5 80.5t-98.5 257t108 250t357 74q23 0 197 -10v57q0 100 -47 151.5
t-158 51.5q-152 0 -215 -99q-23 -33 -38 -38t-50 8l-82 34q-68 32 -35 93q111 213 424 213zM735 1452q61 0 84 -23.5t23 -82.5v-19q0 -59 -22.5 -82.5t-84.5 -23.5h-12q-63 0 -86 22.5t-23 83.5v19q0 59 22.5 82.5t86.5 23.5h12zM326 1452q61 0 84.5 -23.5t23.5 -82.5v-19
q0 -59 -23.5 -82.5t-84.5 -23.5h-15q-61 0 -83.5 23.5t-22.5 82.5v19q0 59 22.5 82.5t83.5 23.5h15z" />
    <glyph glyph-name="aring" unicode="&#xe5;" horiz-adv-x="1062" 
d="M502 436q-111 0 -154 -32.5t-43 -101.5t40 -102.5t162 -33.5t195 16q23 8 23 29v215q-215 10 -223 10zM524 1092q438 0 439 -422v-531q0 -53 -15.5 -75.5t-58.5 -40.5q-123 -53 -376 -53.5t-351.5 80.5t-98.5 257t108 250t357 74q23 0 197 -10v57q0 100 -47 151.5
t-158 51.5q-152 0 -215 -99q-23 -33 -38 -38t-50 8l-82 34q-68 32 -35 93q111 213 424 213zM633 1392q0 44 -27.5 72.5t-74 28.5t-76 -28.5t-29.5 -72.5t29.5 -72t75.5 -28t74 28t28 72zM307 1392q0 95 63.5 156.5t160.5 61.5t159 -61.5t62 -156.5t-61.5 -155.5t-159 -60.5
t-161 60.5t-63.5 155.5z" />
    <glyph glyph-name="ae" unicode="&#xe6;" horiz-adv-x="1636" 
d="M305 300q0 -70 34 -102t118 -32q184 0 221 45q-4 33 -4 100v115l-197 10q-100 0 -136 -33t-36 -103zM1329 682q0 209 -208 209t-208 -209v-45h416v45zM674 705q0 86 -40 131t-152 45t-177 -99q-23 -33 -37 -38t-49 10l-82 34q-70 28 -37 91q115 213 400 213
q205 0 303 -113q109 113 325 113t328 -117q111 -117 111 -305v-127q0 -88 -90 -88h-564v-76q0 -205 207 -205q141 0 211 109q25 33 47 38t58 -14l71 -39q68 -35 25 -102q-121 -197 -414 -197q-170 0 -278 78q-138 -78 -364 -78t-318 80t-92 257t99 251t339 74l170 -10v84z
" />
    <glyph glyph-name="ccedilla" unicode="&#xe7;" horiz-adv-x="1058" 
d="M616 -117q80 0 130.5 -53t41.5 -131q-20 -201 -274 -201q-98 0 -149 27q-35 14 -35 57l-2 62q0 41 32 24q61 -33 123 -33q100 0 101 74q0 57 -88 60q-35 0 -57 -2t-27.5 10t4.5 39l67 155q-201 14 -300 122t-99 296v283q0 201 117.5 310.5t353.5 109.5q174 0 285.5 -74
t152.5 -195q12 -39 2 -58.5t-47 -33.5l-90 -29q-37 -14 -56.5 -3.5t-33.5 46.5q-53 137 -223 138q-223 0 -223 -201v-303q0 -96 57 -148.5t166 -52.5q170 0 223 141q14 37 33.5 45.5t56.5 -4.5l92 -26q70 -27 43 -92q-90 -238 -368 -267l-35 -94q8 2 26 2z" />
    <glyph glyph-name="egrave" unicode="&#xe8;" horiz-adv-x="1099" 
d="M793 682q0 100 -59.5 154.5t-175.5 54.5t-177.5 -54.5t-61.5 -154.5v-45h474v45zM82 649q0 215 122 329t354 114t352 -119t120 -305v-125q0 -88 -92 -88h-619v-76q0 -100 60.5 -152.5t173.5 -52.5q172 0 242 109q25 35 46 40t58 -16l72 -39q70 -33 24 -102
q-121 -197 -442 -197q-240 0 -355.5 119t-115.5 320v241zM379 1489q41 45 117 4l301 -182q41 -20 4 -66l-29 -37q-20 -27 -80 -4l-356 150q-37 15 -31 33t23 36z" />
    <glyph glyph-name="eacute" unicode="&#xe9;" horiz-adv-x="1099" 
d="M793 682q0 100 -59.5 154.5t-175.5 54.5t-177.5 -54.5t-61.5 -154.5v-45h474v45zM82 649q0 215 122 329t354 114t352 -119t120 -305v-125q0 -88 -92 -88h-619v-76q0 -100 60.5 -152.5t173.5 -52.5q172 0 242 109q25 35 46 40t58 -16l72 -39q70 -33 24 -102
q-121 -197 -442 -197q-240 0 -355.5 119t-115.5 320v241zM627 1493q76 43 114 -4l54 -66q23 -27 21.5 -42t-32.5 -27l-356 -150q-59 -23 -78 4l-28 37q-37 45 2 66z" />
    <glyph glyph-name="ecircumflex" unicode="&#xea;" horiz-adv-x="1099" 
d="M793 682q0 100 -59.5 154.5t-175.5 54.5t-177.5 -54.5t-61.5 -154.5v-45h474v45zM82 649q0 215 122 329t354 114t352 -119t120 -305v-125q0 -88 -92 -88h-619v-76q0 -100 60.5 -152.5t173.5 -52.5q172 0 242 109q25 35 46 40t58 -16l72 -39q70 -33 24 -102
q-121 -197 -442 -197q-240 0 -355.5 119t-115.5 320v241zM575 1491q37 0 55.5 -8t55.5 -45l203 -197q45 -49 -29 -49h-90q-41 0 -60.5 5t-37.5 28l-117 114l-119 -114q-25 -23 -41 -28t-55 -5h-82q-76 0 -31 49l205 197q35 37 54.5 45t64.5 8h24z" />
    <glyph glyph-name="edieresis" unicode="&#xeb;" horiz-adv-x="1099" 
d="M793 682q0 100 -59.5 154.5t-175.5 54.5t-177.5 -54.5t-61.5 -154.5v-45h474v45zM82 649q0 215 122 329t354 114t352 -119t120 -305v-125q0 -88 -92 -88h-619v-76q0 -100 60.5 -152.5t173.5 -52.5q172 0 242 109q25 35 46 40t58 -16l72 -39q70 -33 24 -102
q-121 -197 -442 -197q-240 0 -355.5 119t-115.5 320v241zM768 1452q61 0 83.5 -23.5t22.5 -82.5v-19q0 -59 -22.5 -82.5t-83.5 -23.5h-12q-63 0 -86 22.5t-23 83.5v19q0 59 22.5 82.5t86.5 23.5h12zM358 1452q61 0 85 -23.5t24 -82.5v-19q0 -59 -23.5 -82.5t-85.5 -23.5h-14
q-61 0 -83.5 23.5t-22.5 82.5v19q0 59 22.5 82.5t83.5 23.5h14z" />
    <glyph glyph-name="igrave" unicode="&#xec;" horiz-adv-x="473" 
d="M293 1061q35 0 49 -13.5t14 -48.5v-936q0 -35 -14 -49t-49 -14h-113q-35 0 -48 14.5t-13 48.5v936q0 35 13 48.5t48 13.5h113zM84 1487q45 49 117 4l254 -180q23 -14 23.5 -27.5t-19.5 -40.5l-29 -37q-23 -27 -80 -2l-309 148q-37 15 -31 33t23 36z" />
    <glyph glyph-name="iacute" unicode="&#xed;" horiz-adv-x="473" 
d="M293 1061q35 0 48 -13.5t13 -48.5v-936q0 -35 -13 -49t-48 -14h-113q-35 0 -49 14.5t-14 48.5v936q0 35 14 48.5t49 13.5h113zM281 1491q72 45 114 -4l54 -66q23 -27 21.5 -42t-32.5 -27l-307 -148q-59 -25 -80 2l-28 37q-20 27 -19.5 40t23.5 28z" />
    <glyph glyph-name="icircumflex" unicode="&#xee;" horiz-adv-x="473" 
d="M293 1061q35 0 48 -13.5t13 -48.5v-936q0 -35 -13 -49t-48 -14h-113q-35 0 -49 14.5t-14 48.5v936q0 35 14 48.5t49 13.5h113zM498 1194h-82q-45 0 -64.5 5t-34.5 30l-81 112l-89 -112q-16 -25 -33.5 -30t-60.5 -5h-80q-72 0 -28 51l164 193q31 37 52 45t68 8h23
q41 0 60.5 -8t49.5 -45l166 -193q43 -51 -30 -51z" />
    <glyph glyph-name="idieresis" unicode="&#xef;" horiz-adv-x="473" 
d="M293 1061q35 0 48 -13.5t13 -48.5v-936q0 -35 -13 -49t-48 -14h-113q-35 0 -49 14.5t-14 48.5v936q0 35 14 48.5t49 13.5h113zM420 1458q61 0 83.5 -23.5t22.5 -82.5v-19q0 -59 -22.5 -82.5t-83.5 -23.5h-14q-61 0 -85 23.5t-24 82.5v19q0 59 23.5 82.5t85.5 23.5h14z
M68 1458q61 0 84.5 -23.5t23.5 -82.5v-19q0 -59 -23.5 -82.5t-84.5 -23.5h-15q-61 0 -83.5 23.5t-22.5 82.5v19q0 59 22.5 82.5t83.5 23.5h15z" />
    <glyph glyph-name="eth" unicode="&#xf0;" horiz-adv-x="1134" 
d="M788 618q0 201 -233 201t-233 -201v-233q0 -96 59 -148q59 -53 174 -53t174 52t59 149v233zM825 1546q8 0 25 -12l65 -49q27 -20 3 -45l-66 -74q174 -166 174 -553v-428q0 -197 -121 -307t-350 -109q-229 0 -351 110t-122 306v233q0 190 115 304t321 112q206 0 283 -112
q-10 180 -103 268l-86 -94q-14 -14 -22 -14t-25 10l-59 43q-27 20 -2 47l71 80q-104 43 -268 43q-39 0 -52 13t-15 48l-2 92q0 35 13 49t50 15q270 0 428 -76l74 86q14 14 22 14z" />
    <glyph glyph-name="ntilde" unicode="&#xf1;" 
d="M591 1092q222 0 327.5 -106.5t105.5 -305.5v-617q0 -35 -14.5 -49t-48.5 -14h-113q-35 0 -48.5 14.5t-13.5 48.5v611q0 201 -223 200q-98 0 -196 -26q-14 -6 -15 -21v-764q0 -35 -13 -49t-48 -14h-113q-35 0 -49 14.5t-14 48.5v842q0 49 15.5 73t64.5 44q174 70 396 70z
M836 1483q39 0 38 -39q0 -125 -40.5 -177.5t-122 -52.5t-159 59.5t-114.5 59.5q-49 0 -49 -78q0 -41 -37 -41h-67q-39 0 -39 41q0 123 42 175.5t124 52.5t159.5 -58.5t112.5 -58.5q49 0 49 78q0 39 37 39h66z" />
    <glyph glyph-name="ograve" unicode="&#xf2;" horiz-adv-x="1112" 
d="M791 682q0 94 -61.5 144.5t-174.5 50.5t-173 -50.5t-60 -144.5v-303q0 -92 60 -143.5t173 -51.5t174.5 51.5t61.5 143.5v303zM84 682q0 193 123 301.5t349 108.5t349 -109t123 -301v-303q0 -193 -123 -301.5t-349 -108.5t-349 108.5t-123 301.5v303zM379 1489
q39 47 115 2l301 -180q41 -20 4 -66l-29 -39q-18 -27 -80 -2l-356 150q-51 18 -8 69z" />
    <glyph glyph-name="oacute" unicode="&#xf3;" horiz-adv-x="1112" 
d="M791 682q0 94 -61.5 144.5t-174.5 50.5t-173 -50.5t-60 -144.5v-303q0 -92 60 -143.5t173 -51.5t174.5 51.5t61.5 143.5v303zM84 682q0 193 123 301.5t349 108.5t349 -109t123 -301v-303q0 -193 -123 -301.5t-349 -108.5t-349 108.5t-123 301.5v303zM625 1491
q76 45 116 -2l52 -66q47 -53 -9 -69l-356 -150q-57 -25 -80 2l-29 39q-37 45 5 66z" />
    <glyph glyph-name="ocircumflex" unicode="&#xf4;" horiz-adv-x="1112" 
d="M791 682q0 94 -61.5 144.5t-174.5 50.5t-173 -50.5t-60 -144.5v-303q0 -92 60 -143.5t173 -51.5t174.5 51.5t61.5 143.5v303zM84 682q0 193 123 301.5t349 108.5t349 -109t123 -301v-303q0 -193 -123 -301.5t-349 -108.5t-349 108.5t-123 301.5v303zM573 1491
q37 0 56.5 -8t54.5 -47l203 -195q20 -20 14 -35.5t-43 -15.5h-90q-66 0 -98 35l-115 114l-121 -114q-23 -23 -39 -29t-55 -6h-84q-37 0 -43 15.5t14 35.5l203 195q37 37 56.5 46t62.5 9h24z" />
    <glyph glyph-name="otilde" unicode="&#xf5;" horiz-adv-x="1112" 
d="M791 682q0 94 -61.5 144.5t-174.5 50.5t-173 -50.5t-60 -144.5v-303q0 -92 60 -143.5t173 -51.5t174.5 51.5t61.5 143.5v303zM84 682q0 193 123 301.5t349 108.5t349 -109t123 -301v-303q0 -193 -123 -301.5t-349 -108.5t-349 108.5t-123 301.5v303zM821 1483
q39 0 39 -39q0 -125 -41 -177.5t-122 -52.5t-158.5 58.5t-114.5 58.5q-49 0 -49 -78q0 -39 -37 -39h-68q-39 0 -39 39q0 123 42 176.5t124 53.5t160 -58.5t113 -58.5q49 0 49 78q0 39 37 39h65z" />
    <glyph glyph-name="odieresis" unicode="&#xf6;" horiz-adv-x="1112" 
d="M791 682q0 94 -61.5 144.5t-174.5 50.5t-173 -50.5t-60 -144.5v-303q0 -92 60 -143.5t173 -51.5t174.5 51.5t61.5 143.5v303zM84 682q0 193 123 301.5t349 108.5t349 -109t123 -301v-303q0 -193 -123 -301.5t-349 -108.5t-349 108.5t-123 301.5v303zM768 1452
q59 0 82.5 -23.5t23.5 -82.5v-19q0 -59 -23.5 -82.5t-82.5 -23.5h-14q-61 0 -85 23.5t-24 82.5v19q0 59 23.5 82.5t85.5 23.5h14zM356 1452q61 0 85 -23.5t24 -82.5v-19q0 -59 -23.5 -82.5t-85.5 -23.5h-14q-59 0 -81.5 23.5t-22.5 82.5v19q0 59 22.5 82.5t81.5 23.5h14z
" />
    <glyph glyph-name="divide" unicode="&#xf7;" horiz-adv-x="1130" 
d="M573 428q74 0 103 -28t29 -103v-18q0 -74 -29 -103t-103 -29h-14q-75 0 -103 29t-28 103v18q0 75 28 103t103 28h14zM979 780q41 0 55 -15t15 -54v-90q1 -39 -15 -55t-55 -15h-825q-39 0 -56 15q-16 15 -16 55v90q0 39 15 54t57 15h825zM573 1186q74 0 103 -29t29 -102
v-19q0 -76 -29 -104t-103 -27h-14q-75 0 -103 28t-28 103v19q0 75 28 103t103 28h14z" />
    <glyph glyph-name="oslash" unicode="&#xf8;" horiz-adv-x="1112" 
d="M575.5 184q92.5 0 154 51.5t61.5 143.5v303q0 39 -21 70l-344 -541q57 -27 149.5 -27zM536.5 877q-94.5 0 -154.5 -50.5t-60 -144.5v-303q0 -39 22 -68l342 541q-55 25 -149.5 25zM985 1130q23 0 10 -22l-82 -131q115 -104 115 -295v-303q0 -193 -123 -301.5t-350 -108.5
q-145 0 -250 49l-43 -69q-16 -20 -45 -21h-92q-25 0 -10 23l86 135q-117 106 -117 293v303q0 193 123 301.5t348 108.5q147 0 252 -48l43 66q14 20 41 20h94z" />
    <glyph glyph-name="ugrave" unicode="&#xf9;" 
d="M954 1061q35 0 49.5 -13.5t14.5 -48.5v-843q0 -49 -15.5 -72t-64.5 -43q-180 -72 -398 -72t-324.5 106.5t-106.5 305.5v618q0 35 14 48.5t49 13.5h113q35 0 48 -13.5t13 -48.5v-610q0 -203 223 -203q106 0 189 25q23 8 22 35v753q0 35 14.5 48.5t49.5 13.5h110zM387 1489
q39 47 115 2l301 -180q41 -20 4 -66l-29 -39q-18 -27 -80 -2l-356 150q-51 18 -8 69z" />
    <glyph glyph-name="uacute" unicode="&#xfa;" 
d="M954 1061q35 0 49.5 -13.5t14.5 -48.5v-843q0 -49 -15.5 -72t-64.5 -43q-180 -72 -398 -72t-324.5 106.5t-106.5 305.5v618q0 35 14 48.5t49 13.5h113q35 0 48 -13.5t13 -48.5v-610q0 -203 223 -203q106 0 189 25q23 8 22 35v753q0 35 14.5 48.5t49.5 13.5h110zM633 1491
q76 45 117 -2l51 -66q47 -53 -8 -69l-357 -150q-57 -25 -80 2l-28 39q-37 45 4 66z" />
    <glyph glyph-name="ucircumflex" unicode="&#xfb;" 
d="M954 1061q35 0 49.5 -13.5t14.5 -48.5v-843q0 -49 -15.5 -72t-64.5 -43q-180 -72 -398 -72t-324.5 106.5t-106.5 305.5v618q0 35 14 48.5t49 13.5h113q35 0 48 -13.5t13 -48.5v-610q0 -203 223 -203q106 0 189 25q23 8 22 35v753q0 35 14.5 48.5t49.5 13.5h110zM584 1499
q39 0 57 -8t55 -45l207 -201q20 -20 14 -35.5t-43 -15.5h-92q-68 0 -100 35l-119 117l-123 -117q-25 -25 -40 -30t-56 -5h-86q-37 0 -44 15.5t13 35.5l209 201q35 37 54.5 45t66.5 8h27z" />
    <glyph glyph-name="udieresis" unicode="&#xfc;" 
d="M954 1061q35 0 49.5 -13.5t14.5 -48.5v-843q0 -49 -15.5 -72t-64.5 -43q-180 -72 -398 -72t-324.5 106.5t-106.5 305.5v618q0 35 14 48.5t49 13.5h113q35 0 48 -13.5t13 -48.5v-610q0 -203 223 -203q106 0 189 25q23 8 22 35v753q0 35 14.5 48.5t49.5 13.5h110zM776 1452
q59 0 83 -23.5t24 -82.5v-19q0 -59 -23.5 -82.5t-83.5 -23.5h-14q-61 0 -85 23.5t-24 82.5v19q0 59 23.5 82.5t85.5 23.5h14zM365 1452q61 0 84.5 -23.5t23.5 -82.5v-19q0 -59 -23.5 -82.5t-84.5 -23.5h-15q-59 0 -81.5 23.5t-22.5 82.5v19q0 59 22.5 82.5t81.5 23.5h15z
" />
    <glyph glyph-name="yacute" unicode="&#xfd;" horiz-adv-x="1136" 
d="M954 1061q35 0 49.5 -13.5t14.5 -48.5v-1034q0 -211 -109.5 -328.5t-341.5 -117.5q-305 0 -426 196q-43 68 27 103l78 43q37 18 58.5 13t43.5 -38q66 -104 215 -104q217 0 217 221v96q-127 -29 -243 -29q-215 0 -321.5 106.5t-106.5 305.5v567q0 35 14 48.5t49 13.5h113
q35 0 48 -13.5t13 -48.5v-559q0 -203 223 -202q100 0 211 28v733q0 35 14.5 48.5t49.5 13.5h110zM633 1491q76 45 117 -2l51 -66q47 -53 -8 -69l-357 -150q-57 -25 -80 2l-28 39q-37 45 4 66z" />
    <glyph glyph-name="thorn" unicode="&#xfe;" horiz-adv-x="1114" 
d="M791 668q-1 100 -59 152t-154 52t-222 -30v-625q123 -31 199 -31q236 0 236 217v265zM119 1450q0 35 14 49t49 14h113q35 0 48 -14t13 -49v-387q125 27 240 27q217 0 325 -106t107 -308v-279q0 -428 -457 -428q-74 0 -215 37v-393q0 -35 -13 -49t-48 -15h-113
q-35 1 -49 15t-14 49v1837z" />
    <glyph glyph-name="ydieresis" unicode="&#xff;" horiz-adv-x="1136" 
d="M954 1061q35 0 49.5 -13.5t14.5 -48.5v-1034q0 -211 -109.5 -328.5t-341.5 -117.5q-305 0 -426 196q-43 68 27 103l78 43q37 18 58.5 13t43.5 -38q66 -104 215 -104q217 0 217 221v96q-127 -29 -243 -29q-215 0 -321.5 106.5t-106.5 305.5v567q0 35 14 48.5t49 13.5h113
q35 0 48 -13.5t13 -48.5v-559q0 -203 223 -202q100 0 211 28v733q0 35 14.5 48.5t49.5 13.5h110zM776 1452q59 0 83 -23.5t24 -82.5v-19q0 -59 -23.5 -82.5t-83.5 -23.5h-14q-61 0 -85 23.5t-24 82.5v19q0 59 23.5 82.5t85.5 23.5h14zM365 1452q61 0 84.5 -23.5t23.5 -82.5
v-19q0 -59 -23.5 -82.5t-84.5 -23.5h-15q-59 0 -81.5 23.5t-22.5 82.5v19q0 59 22.5 82.5t81.5 23.5h15z" />
    <glyph glyph-name="Amacron" unicode="&#x100;" horiz-adv-x="1347" 
d="M659 1219q0 -117 -45 -248l-157 -434h422l-156 432q-34 105 -47 215l-2 35h-15zM1278 0h-107q-63 0 -88.5 12.5t-38.5 48.5l-94 265h-565l-96 -265q-12 -37 -38 -49t-89 -12h-94q-72 0 -48 68l512 1331q14 35 32 46t54 11h109q37 0 55.5 -11t30.5 -44l512 -1333
q25 -68 -47 -68zM909 1782q35 0 47.5 -12.5t12.5 -47.5v-51q0 -35 -12.5 -47t-47.5 -12h-473q-35 0 -47 12t-12 47v51q0 35 13 47.5t46 12.5h473z" />
    <glyph glyph-name="amacron" unicode="&#x101;" horiz-adv-x="1062" 
d="M502 436q-111 0 -154 -32.5t-43 -101.5t40 -102.5t162 -33.5t195 16q23 8 23 29v215q-215 10 -223 10zM524 1092q438 0 439 -422v-531q0 -53 -15.5 -75.5t-58.5 -40.5q-123 -53 -376 -53.5t-351.5 80.5t-98.5 257t108 250t357 74q23 0 197 -10v57q0 100 -47 151.5
t-158 51.5q-152 0 -215 -99q-23 -33 -38 -38t-50 8l-82 34q-68 32 -35 93q111 213 424 213zM762 1423q35 0 47 -12t12 -47v-51q0 -35 -12 -47.5t-47 -12.5h-475q-35 0 -47.5 12.5t-12.5 47.5v51q0 35 13.5 47t46.5 12h475z" />
    <glyph glyph-name="Abreve" unicode="&#x102;" horiz-adv-x="1347" 
d="M659 1219q0 -117 -45 -248l-157 -434h422l-156 432q-34 105 -47 215l-2 35h-15zM1278 0h-107q-63 0 -88.5 12.5t-38.5 48.5l-94 265h-565l-96 -265q-12 -37 -38 -49t-89 -12h-94q-72 0 -48 68l512 1331q14 35 32 46t54 11h109q37 0 55.5 -11t30.5 -44l512 -1333
q25 -68 -47 -68zM674 1556q-117 0 -199 55.5t-117 155.5q-14 41 27 58l82 30q47 16 63 -20q35 -106 143.5 -106t143.5 106q16 37 53 23l93 -33q25 -10 30.5 -22.5t-2.5 -35.5q-35 -100 -117.5 -155.5t-199.5 -55.5z" />
    <glyph glyph-name="abreve" unicode="&#x103;" horiz-adv-x="1062" 
d="M502 436q-111 0 -154 -32.5t-43 -101.5t40 -102.5t162 -33.5t195 16q23 8 23 29v215q-215 10 -223 10zM524 1092q438 0 439 -422v-531q0 -53 -15.5 -75.5t-58.5 -40.5q-123 -53 -376 -53.5t-351.5 80.5t-98.5 257t108 250t357 74q23 0 197 -10v57q0 100 -47 151.5
t-158 51.5q-152 0 -215 -99q-23 -33 -38 -38t-50 8l-82 34q-68 32 -35 93q111 213 424 213zM524.5 1196q-116.5 0 -199.5 54.5t-116 154.5q-14 43 29 59l79 31q47 14 64 -20q35 -109 143.5 -109t143.5 109q16 33 53 22l94 -33q23 -10 29 -22t-2 -37q-33 -100 -117 -154.5
t-200.5 -54.5z" />
    <glyph glyph-name="Aogonek" unicode="&#x104;" horiz-adv-x="1347" 
d="M750 907q-41 112 -55.5 207.5t-18.5 104.5h-14q-4 -8 -17 -101t-53 -209l-131 -370h418zM729 1456q37 0 55.5 -11t30.5 -44l512 -1338q14 -39 -6 -59q-80 -80 -120 -165t-27 -124q12 -43 49 -43t59 21q27 16 39 -12l29 -68q12 -27 -4 -43q-76 -72 -195 -72
q-158 0 -182 123q-16 82 27.5 183.5t144.5 197.5q-49 2 -66.5 15.5t-27.5 45.5l-97 267h-561l-98 -269q-14 -37 -39 -49t-88 -12h-94q-72 0 -47 68l512 1331q12 35 30.5 46t55.5 11h108z" />
    <glyph glyph-name="aogonek" unicode="&#x105;" horiz-adv-x="1069" 
d="M502 436q-111 0 -154 -32.5t-43 -101.5t40 -102.5t162 -33.5t195 16q23 8 23 29v215q-215 10 -223 10zM524 1092q438 0 439 -422v-531q0 -59 -23 -84q-92 -119 -128 -209t-24 -132t47.5 -42t61.5 21q27 16 39 -12l27 -66q14 -29 -2 -43q-76 -74 -195 -74q-158 0 -182 123
q-14 78 25.5 175.5t127.5 189.5q-94 -16 -217 -17q-260 0 -358.5 81t-98.5 257t108 250t357 74q23 0 197 -10v57q0 100 -47 151.5t-158 51.5q-152 0 -215 -99q-23 -33 -38 -38t-50 8l-82 34q-68 32 -35 93q111 213 424 213z" />
    <glyph glyph-name="Cacute" unicode="&#x106;" horiz-adv-x="1310" 
d="M100 952q0 248 153 390.5t433 142.5q436 0 557 -342q25 -66 -43 -90l-113 -39q-37 -12 -55 -3t-33 46q-68 188 -313 188q-158 0 -243 -74.5t-85 -216.5v-452q0 -141 85 -217t243 -76q244 0 313 190q16 39 35 48.5t56 -5.5l110 -39q68 -25 45 -90q-121 -344 -559 -344
q-281 0 -433.5 142.5t-152.5 392.5v448zM766 1851q76 43 115 -4l53 -65q23 -27 21.5 -42.5t-31.5 -27.5l-357 -149q-59 -23 -78 2l-28 39q-37 45 2 65z" />
    <glyph glyph-name="cacute" unicode="&#x107;" horiz-adv-x="1058" 
d="M84 672q0 201 117.5 310.5t353.5 109.5q174 0 285.5 -74t152.5 -195q12 -39 2 -58.5t-47 -33.5l-90 -29q-37 -14 -56.5 -3.5t-33.5 46.5q-53 137 -223 138q-223 0 -223 -201v-303q0 -96 57 -148.5t166 -52.5q170 0 223 141q14 37 33.5 45.5t56.5 -4.5l92 -26
q70 -27 43 -92q-106 -272 -456 -273q-227 0 -340 109.5t-113 310.5v283zM625 1491q74 47 114 -2l54 -66q23 -27 21.5 -43t-32.5 -26l-356 -150q-59 -25 -78 2l-29 39q-37 45 3 66z" />
    <glyph glyph-name="Ccircumflex" unicode="&#x108;" horiz-adv-x="1310" 
d="M100 952q0 248 153 390.5t433 142.5q436 0 557 -342q25 -66 -43 -90l-113 -39q-37 -12 -55 -3t-33 46q-68 188 -313 188q-158 0 -243 -74.5t-85 -216.5v-452q0 -141 85 -217t243 -76q244 0 313 190q16 39 35 48.5t56 -5.5l110 -39q68 -25 45 -90q-121 -344 -559 -344
q-281 0 -433.5 142.5t-152.5 392.5v448zM715 1862q37 0 56.5 -8.5t55.5 -47.5l209 -200q20 -20 13 -36t-43 -16h-93q-68 0 -100 37l-117 117l-125 -117q-23 -25 -39 -31t-57 -6h-84q-37 0 -44 15.5t13 36.5l209 200q37 37 56.5 46.5t64.5 9.5h25z" />
    <glyph glyph-name="ccircumflex" unicode="&#x109;" horiz-adv-x="1058" 
d="M84 672q0 201 117.5 310.5t353.5 109.5q174 0 285.5 -74t152.5 -195q12 -39 2 -58.5t-47 -33.5l-90 -29q-37 -14 -56.5 -3.5t-33.5 46.5q-53 137 -223 138q-223 0 -223 -201v-303q0 -96 57 -148.5t166 -52.5q170 0 223 141q14 37 33.5 45.5t56.5 -4.5l92 -26
q70 -27 43 -92q-106 -272 -456 -273q-227 0 -340 109.5t-113 310.5v283zM573 1491q37 0 55.5 -8t55.5 -47l203 -195q20 -20 14 -35.5t-43 -15.5h-90q-68 0 -98 35l-117 114l-119 -114q-25 -25 -40 -30t-56 -5h-82q-37 0 -44 15.5t13 35.5l205 195q35 37 54.5 46t64.5 9h24z
" />
    <glyph glyph-name="Cdotaccent" unicode="&#x10a;" horiz-adv-x="1310" 
d="M100 952q0 248 153 390.5t433 142.5q436 0 557 -342q25 -66 -43 -90l-113 -39q-37 -12 -55 -3t-33 46q-68 188 -313 188q-158 0 -243 -74.5t-85 -216.5v-452q0 -141 85 -217t243 -76q244 0 313 190q16 39 35 48.5t56 -5.5l110 -39q68 -25 45 -90q-121 -344 -559 -344
q-281 0 -433.5 142.5t-152.5 392.5v448zM702 1819q63 0 86 -23.5t23 -87.5v-16q0 -63 -22.5 -86t-86.5 -23h-12q-63 0 -86.5 22.5t-23.5 86.5v16q0 63 23.5 87t86.5 24h12z" />
    <glyph glyph-name="cdotaccent" unicode="&#x10b;" horiz-adv-x="1058" 
d="M84 672q0 201 117.5 310.5t353.5 109.5q174 0 285.5 -74t152.5 -195q12 -39 2 -58.5t-47 -33.5l-90 -29q-37 -14 -56.5 -3.5t-33.5 46.5q-53 137 -223 138q-223 0 -223 -201v-303q0 -96 57 -148.5t166 -52.5q170 0 223 141q14 37 33.5 45.5t56.5 -4.5l92 -26
q70 -27 43 -92q-106 -272 -456 -273q-227 0 -340 109.5t-113 310.5v283zM561 1456q63 0 86 -23.5t23 -86.5v-15q0 -63 -22.5 -86.5t-86.5 -23.5h-12q-66 0 -88.5 22.5t-22.5 87.5v15q0 63 22.5 86.5t88.5 23.5h12z" />
    <glyph glyph-name="Ccaron" unicode="&#x10c;" horiz-adv-x="1310" 
d="M100 952q0 248 153 390.5t433 142.5q436 0 557 -342q25 -66 -43 -90l-113 -39q-37 -12 -55 -3t-33 46q-68 188 -313 188q-158 0 -243 -74.5t-85 -216.5v-452q0 -141 85 -217t243 -76q244 0 313 190q16 39 35 48.5t56 -5.5l110 -39q68 -25 45 -90q-121 -344 -559 -344
q-281 0 -433.5 142.5t-152.5 392.5v448zM999 1858q37 0 43.5 -15.5t-14.5 -36.5l-207 -198q-37 -39 -56.5 -47.5t-55.5 -8.5h-25q-47 0 -66.5 8.5t-56.5 47.5l-207 198q-20 20 -14 36t43 16h86q41 0 57.5 -5.5t38.5 -29.5l123 -117l119 117q20 23 39.5 29t60.5 6h92z" />
    <glyph glyph-name="ccaron" unicode="&#x10d;" horiz-adv-x="1058" 
d="M84 672q0 201 117.5 310.5t353.5 109.5q174 0 285.5 -74t152.5 -195q12 -39 2 -58.5t-47 -33.5l-90 -29q-37 -14 -56.5 -3.5t-33.5 46.5q-53 137 -223 138q-223 0 -223 -201v-303q0 -96 57 -148.5t166 -52.5q170 0 223 141q14 37 33.5 45.5t56.5 -4.5l92 -26
q70 -27 43 -92q-106 -272 -456 -273q-227 0 -340 109.5t-113 310.5v283zM831 1464q35 0 41.5 -14t-12.5 -33l-190 -186q-35 -35 -52.5 -43t-52.5 -8h-22q-41 0 -59.5 8t-51.5 43l-190 186q-43 47 26 47h78q37 0 52.5 -5t37.5 -27l113 -109l106 109q31 33 93 32h83z" />
    <glyph glyph-name="Dcaron" unicode="&#x10e;" horiz-adv-x="1363" 
d="M1010 915q0 145 -87 222t-249 77h-275v-974h275q162 0 249 76.5t87 222.5v376zM672 1454q283 0 438.5 -144.5t155.5 -396.5v-372q0 -252 -156 -396.5t-438 -144.5h-459q-39 0 -55.5 15.5t-16.5 54.5v1314q0 39 16.5 54.5t55.5 15.5h459zM948 1858q37 0 43 -15.5
t-14 -36.5l-207 -198q-39 -39 -57.5 -47.5t-57.5 -8.5h-24q-47 0 -66.5 8.5t-54.5 47.5l-209 198q-20 20 -13 36t44 16h84q41 0 57 -5.5t41 -29.5l123 -117l119 117q18 23 37.5 29t62.5 6h92z" />
    <glyph glyph-name="dcaron" unicode="&#x10f;" horiz-adv-x="1241" 
d="M324 391q0 -205 229 -205q109 0 188 23q16 6 17 22v617q-123 27 -199 26q-236 0 -235 -217v-266zM1149 1042q-27 0 -35 8t-4 35l49 365q7 39 21 52t53 14h92q76 0 55 -66l-104 -350q-10 -33 -22 -45t-42 -13h-63zM86 664q0 208 108 318t320 110q94 0 244 -27v387
q0 35 13 49t48 15h113q35 0 49 -14t14 -50v-1305q0 -49 -16 -71t-66 -41q-174 -66 -383 -66q-444 0 -444 414v281z" />
    <glyph glyph-name="Dcroat" unicode="&#x110;" horiz-adv-x="1396" 
d="M1040 915q0 145 -86 223t-249 76h-275v-380h272q25 0 33 -10t8 -36v-75q0 -27 -8 -36t-33 -9h-272v-428h275q163 0 249 76t86 223v376zM705 1454q283 0 439 -144t154 -397v-372q0 -252 -155 -397q-156 -144 -438 -144h-461q-39 0 -55 15q-15 15 -15 55v598h-121
q-25 0 -33 9t-8 36v75q0 45 41 46h121v550q0 38 15 54t55 16h461z" />
    <glyph glyph-name="dcroat" unicode="&#x111;" horiz-adv-x="1110" 
d="M324 391q0 -100 59 -152q59 -53 169 -53t189 23q16 6 17 22v617q-123 27 -197 26q-238 0 -237 -217v-266zM1104 1366q25 0 34 -9t9 -34v-59q0 -27 -9 -36t-34 -9h-109v-1072q0 -51 -15 -71t-65 -41q-174 -66 -391 -66q-218 1 -328 107t-110 307v281q0 208 109 318
t319 110q100 0 244 -27v154h-248q-25 0 -33 9t-8 36v59q0 43 41 43h248v86q0 35 14 49t49 15h111q35 0 49 -14t14 -50v-86h109z" />
    <glyph glyph-name="Emacron" unicode="&#x112;" horiz-adv-x="1185" 
d="M1026 1454q39 0 55.5 -15.5t16.5 -54.5v-100q0 -39 -16.5 -54.5t-55.5 -15.5h-627v-358h531q39 0 54 -15.5t15 -54.5v-100q0 -39 -15 -54.5t-54 -15.5h-531v-376h650q39 0 54 -15.5t15 -54.5v-100q0 -39 -15.5 -54.5t-53.5 -15.5h-836q-39 0 -55.5 15.5t-16.5 54.5v1314
q0 39 16.5 54.5t55.5 15.5h813zM858 1782q35 0 47.5 -12.5t12.5 -47.5v-51q0 -35 -12.5 -47t-47.5 -12h-475q-35 0 -47 12t-12 47v51q0 35 13 47.5t46 12.5h475z" />
    <glyph glyph-name="emacron" unicode="&#x113;" horiz-adv-x="1099" 
d="M793 682q0 100 -59.5 154.5t-175.5 54.5t-177.5 -54.5t-61.5 -154.5v-45h474v45zM82 649q0 215 122 329t354 114t352 -119t120 -305v-125q0 -88 -92 -88h-619v-76q0 -100 60.5 -152.5t173.5 -52.5q172 0 242 109q25 35 46 40t58 -16l72 -39q70 -33 24 -102
q-121 -197 -442 -197q-240 0 -355.5 119t-115.5 320v241zM774 1409q33 0 44 -12.5t11 -44.5v-49q0 -33 -11 -45.5t-44 -12.5h-434q-33 0 -44 11.5t-11 46.5v49q0 33 12 45t43 12h434z" />
    <glyph glyph-name="Ebreve" unicode="&#x114;" horiz-adv-x="1185" 
d="M1026 1454q39 0 55.5 -15.5t16.5 -54.5v-100q0 -39 -16.5 -54.5t-55.5 -15.5h-627v-358h531q39 0 54 -15.5t15 -54.5v-100q0 -39 -15 -54.5t-54 -15.5h-531v-376h650q39 0 54 -15.5t15 -54.5v-100q0 -39 -15.5 -54.5t-53.5 -15.5h-836q-39 0 -55.5 15.5t-16.5 54.5v1314
q0 39 16.5 54.5t55.5 15.5h813zM621.5 1556q-115.5 0 -199.5 55.5t-117 155.5q-14 41 29 58l80 30q47 16 63 -20q35 -106 143.5 -106t143.5 106q16 37 53 23l94 -33q41 -19 29 -58q-35 -100 -119 -155.5t-199.5 -55.5z" />
    <glyph glyph-name="ebreve" unicode="&#x115;" horiz-adv-x="1099" 
d="M793 682q0 100 -59.5 154.5t-175.5 54.5t-177.5 -54.5t-61.5 -154.5v-45h474v45zM82 649q0 215 122 329t354 114t352 -119t120 -305v-125q0 -88 -92 -88h-619v-76q0 -100 60.5 -152.5t173.5 -52.5q172 0 242 109q25 35 46 40t58 -16l72 -39q70 -33 24 -102
q-121 -197 -442 -197q-240 0 -355.5 119t-115.5 320v241zM557 1196q-117 0 -199 55.5t-116 153.5q-14 43 28 59l80 31q49 14 64 -20q35 -109 143.5 -109t142.5 109q13 34 54 22l94 -33q23 -10 28.5 -22t-2.5 -37q-35 -98 -117.5 -153.5t-199.5 -55.5z" />
    <glyph glyph-name="Edotaccent" unicode="&#x116;" horiz-adv-x="1185" 
d="M1026 1454q39 0 55.5 -15.5t16.5 -54.5v-100q0 -39 -16.5 -54.5t-55.5 -15.5h-627v-358h531q39 0 54 -15.5t15 -54.5v-100q0 -39 -15 -54.5t-54 -15.5h-531v-376h650q39 0 54 -15.5t15 -54.5v-100q0 -39 -15.5 -54.5t-53.5 -15.5h-836q-39 0 -55.5 15.5t-16.5 54.5v1314
q0 39 16.5 54.5t55.5 15.5h813zM627 1819q63 0 86.5 -23.5t23.5 -87.5v-16q0 -63 -23.5 -86t-86.5 -23h-13q-63 0 -86.5 22.5t-23.5 86.5v16q0 63 23.5 87t86.5 24h13z" />
    <glyph glyph-name="edotaccent" unicode="&#x117;" horiz-adv-x="1099" 
d="M793 682q0 100 -59.5 154.5t-175.5 54.5t-177.5 -54.5t-61.5 -154.5v-45h474v45zM82 649q0 215 122 329t354 114t352 -119t120 -305v-125q0 -88 -92 -88h-619v-76q0 -100 60.5 -152.5t173.5 -52.5q172 0 242 109q25 35 46 40t58 -16l72 -39q70 -33 24 -102
q-121 -197 -442 -197q-240 0 -355.5 119t-115.5 320v241zM563 1456q63 0 86 -23.5t23 -86.5v-15q0 -63 -22.5 -86.5t-86.5 -23.5h-12q-63 0 -87 22.5t-24 87.5v15q0 63 23.5 86.5t87.5 23.5h12z" />
    <glyph glyph-name="Eogonek" unicode="&#x118;" horiz-adv-x="1185" 
d="M1026 1454q39 0 55 -15t17 -55v-100q0 -39 -16 -54t-56 -16h-627v-358h531q39 0 54 -15t15 -55v-100q0 -39 -15 -54t-54 -16h-531v-376h650q39 0 54 -16t15 -54v-100q0 -35 -22 -62q-94 -88 -130 -168t-22 -121t47 -41t53 19q27 20 41 -10l27 -68q14 -27 -2 -43
q-76 -74 -192 -74q-150 0 -184 136q-16 68 33 172q50 104 153 190h-707q-39 0 -55 15t-17 55v1314q1 38 17 54t55 16h813z" />
    <glyph glyph-name="eogonek" unicode="&#x119;" horiz-adv-x="1099" 
d="M793 682q0 100 -59.5 154.5t-175.5 54.5t-177.5 -54.5t-61.5 -154.5v-45h474v45zM82 649q0 215 122 329t354 114t352 -119t120 -305v-125q0 -88 -92 -88h-619v-76q0 -100 60.5 -152.5t173.5 -52.5q172 0 242 109q25 35 46 40t58 -16l72 -39q70 -33 24 -102
q-23 -39 -53 -70q-96 -115 -142 -226.5t-34 -154.5t49 -43t59 21q29 18 39 -12l29 -66q12 -29 -2 -43q-76 -74 -195 -74q-162 0 -182 123q-35 160 158 367q-70 -18 -168 -19q-240 0 -355.5 119t-115.5 320v241z" />
    <glyph glyph-name="Ecaron" unicode="&#x11a;" horiz-adv-x="1185" 
d="M1026 1454q39 0 55.5 -15.5t16.5 -54.5v-100q0 -39 -16.5 -54.5t-55.5 -15.5h-627v-358h531q39 0 54 -15.5t15 -54.5v-100q0 -39 -15 -54.5t-54 -15.5h-531v-376h650q39 0 54 -15.5t15 -54.5v-100q0 -39 -15.5 -54.5t-53.5 -15.5h-836q-39 0 -55.5 15.5t-16.5 54.5v1314
q0 39 16.5 54.5t55.5 15.5h813zM924 1858q37 0 44 -15.5t-14 -36.5l-209 -198q-37 -39 -56 -47.5t-56 -8.5h-25q-47 0 -66.5 8.5t-56.5 47.5l-206 198q-20 20 -13.5 36t43.5 16h84q41 0 57.5 -5.5t38.5 -29.5l125 -117l117 117q20 23 40 29t60 6h93z" />
    <glyph glyph-name="ecaron" unicode="&#x11b;" horiz-adv-x="1099" 
d="M793 682q0 100 -59.5 154.5t-175.5 54.5t-177.5 -54.5t-61.5 -154.5v-45h474v45zM82 649q0 215 122 329t354 114t352 -119t120 -305v-125q0 -88 -92 -88h-619v-76q0 -100 60.5 -152.5t173.5 -52.5q172 0 242 109q25 35 46 40t58 -16l72 -39q70 -33 24 -102
q-121 -197 -442 -197q-240 0 -355.5 119t-115.5 320v241zM834 1464q35 0 41 -14t-13 -33l-190 -186q-33 -35 -50.5 -42t-54.5 -7h-22q-43 0 -60.5 7t-50.5 42l-190 186q-43 47 26 47h78q37 0 52.5 -5t37.5 -27l113 -109l106 109q31 33 93 32h84z" />
    <glyph glyph-name="Gcircumflex" unicode="&#x11c;" horiz-adv-x="1355" 
d="M1200 797q41 0 55.5 -15.5t14.5 -54.5v-274q0 -215 -154.5 -349.5t-432.5 -134.5t-430.5 142.5t-152.5 392.5v448q0 248 153 390.5t433 142.5q436 0 557 -342q25 -66 -43 -90l-113 -39q-37 -14 -55 -5t-33 48q-68 188 -313 188q-160 0 -244 -74.5t-84 -216.5v-452
q0 -143 85 -218t241 -75t245 67.5t89 174.5v106h-309q-39 0 -54.5 16.5t-15.5 55.5v98q0 39 15.5 54.5t54.5 15.5h491zM705 1882q37 0 56 -8t56 -47l209 -201q20 -20 13 -35.5t-44 -15.5h-92q-68 0 -100 37l-117 117l-125 -117q-23 -25 -39 -31t-57 -6h-84q-37 0 -44 15.5
t13 35.5l209 201q37 37 56.5 46t64.5 9h25z" />
    <glyph glyph-name="gcircumflex" unicode="&#x11d;" horiz-adv-x="1107" 
d="M322 436q0 -96 57 -148t157.5 -52t219.5 28v563q-1 17 -19 25q-82 23 -174 22q-242 0 -241 -221v-217zM84 662q0 430 463 430q231 0 371 -64q49 -23 62 -43t13 -70v-950q0 -211 -109.5 -328.5t-340.5 -117.5q-307 0 -424 196q-45 66 24 103l78 43q37 18 58.5 13t46.5 -38
q66 -104 213 -104q217 0 217 221v102q-137 -37 -246 -37q-215 0 -320.5 106.5t-105.5 305.5v232zM586 1491q37 0 55 -8t55 -47l203 -195q20 -20 14 -35.5t-43 -15.5h-90q-66 0 -98 35l-115 114l-121 -114q-23 -23 -39 -29t-55 -6h-84q-37 0 -43 15.5t15 35.5l202 195
q37 37 56.5 46t62.5 9h25z" />
    <glyph glyph-name="Gbreve" unicode="&#x11e;" horiz-adv-x="1355" 
d="M1200 797q41 0 55.5 -15.5t14.5 -54.5v-274q0 -215 -154.5 -349.5t-432.5 -134.5t-430.5 142.5t-152.5 392.5v448q0 248 153 390.5t433 142.5q436 0 557 -342q25 -66 -43 -90l-113 -39q-37 -14 -55 -5t-33 48q-68 188 -313 188q-160 0 -244 -74.5t-84 -216.5v-452
q0 -143 85 -218t241 -75t245 67.5t89 174.5v106h-309q-39 0 -54.5 16.5t-15.5 55.5v98q0 39 15.5 54.5t54.5 15.5h491zM686 1577q-117 0 -198.5 55.5t-116.5 155.5q-14 41 28 57l80 31q47 16 64 -21q35 -106 143.5 -106t142.5 106q16 37 54 23l94 -33q23 -10 29 -22t-2 -35
q-35 -100 -118 -155.5t-200 -55.5z" />
    <glyph glyph-name="gbreve" unicode="&#x11f;" horiz-adv-x="1107" 
d="M322 436q0 -96 57 -148t157.5 -52t219.5 28v563q-1 17 -19 25q-82 23 -174 22q-242 0 -241 -221v-217zM84 662q0 430 463 430q231 0 371 -64q49 -23 62 -43t13 -70v-950q0 -211 -109.5 -328.5t-340.5 -117.5q-307 0 -424 196q-45 66 24 103l78 43q37 18 58.5 13t46.5 -38
q66 -104 213 -104q217 0 217 221v102q-137 -37 -246 -37q-215 0 -320.5 106.5t-105.5 305.5v232zM568 1196q-116 0 -199.5 54.5t-116.5 154.5q-14 43 29 59l79 31q50 15 64 -20q35 -109 143.5 -109t143.5 109q16 33 53 22l94 -33q41 -18 29 -59q-35 -100 -119 -154.5
t-200 -54.5z" />
    <glyph glyph-name="Gdotaccent" unicode="&#x120;" horiz-adv-x="1355" 
d="M1200 797q41 0 55.5 -15.5t14.5 -54.5v-274q0 -215 -154.5 -349.5t-432.5 -134.5t-430.5 142.5t-152.5 392.5v448q0 248 153 390.5t433 142.5q436 0 557 -342q25 -66 -43 -90l-113 -39q-37 -14 -55 -5t-33 48q-68 188 -313 188q-160 0 -244 -74.5t-84 -216.5v-452
q0 -143 85 -218t241 -75t245 67.5t89 174.5v106h-309q-39 0 -54.5 16.5t-15.5 55.5v98q0 39 15.5 54.5t54.5 15.5h491zM692 1839q63 0 86 -23.5t23 -86.5v-17q0 -63 -22.5 -85.5t-86.5 -22.5h-12q-63 0 -87 22.5t-24 85.5v17q0 63 23.5 86.5t87.5 23.5h12z" />
    <glyph glyph-name="gdotaccent" unicode="&#x121;" horiz-adv-x="1107" 
d="M322 436q0 -96 57 -148t157.5 -52t219.5 28v563q-1 17 -19 25q-82 23 -174 22q-242 0 -241 -221v-217zM84 662q0 430 463 430q231 0 371 -64q49 -23 62 -43t13 -70v-950q0 -211 -109.5 -328.5t-340.5 -117.5q-307 0 -424 196q-45 66 24 103l78 43q37 18 58.5 13t46.5 -38
q66 -104 213 -104q217 0 217 221v102q-137 -37 -246 -37q-215 0 -320.5 106.5t-105.5 305.5v232zM573 1456q63 0 87 -23.5t24 -86.5v-15q0 -63 -23.5 -86.5t-87.5 -23.5h-12q-63 0 -86.5 23.5t-23.5 86.5v15q0 63 23.5 86.5t86.5 23.5h12z" />
    <glyph glyph-name="Gcommaaccent" unicode="&#x122;" horiz-adv-x="1355" 
d="M672 -526h-76q-27 0 -36 9t-5 36l41 291q4 39 20.5 52t55.5 13h108q84 0 60 -65l-95 -277q-10 -33 -26.5 -46t-46.5 -13zM1200 797q41 0 55.5 -15.5t14.5 -54.5v-274q0 -215 -154.5 -349.5t-432.5 -134.5t-430.5 142.5t-152.5 392.5v448q0 248 153 390.5t433 142.5
q436 0 557 -342q25 -66 -43 -90l-113 -39q-37 -14 -55 -5t-33 48q-68 188 -313 188q-160 0 -244 -74.5t-84 -216.5v-452q0 -143 85 -218t241 -75t245 67.5t89 174.5v106h-309q-39 0 -54.5 16.5t-15.5 55.5v98q0 39 15.5 54.5t54.5 15.5h491z" />
    <glyph glyph-name="gcommaaccent" unicode="&#x123;" horiz-adv-x="1110" 
d="M322 436q0 -96 57 -148t157.5 -52t219.5 28v563q-1 17 -19 25q-82 23 -174 22q-242 0 -241 -221v-217zM84 662q0 430 463 430q231 0 371 -64q49 -23 62 -43t13 -70v-950q0 -211 -109.5 -328.5t-340.5 -117.5q-307 0 -424 196q-45 66 24 103l78 43q37 18 58.5 13t46.5 -38
q66 -104 213 -104q217 0 217 221v102q-137 -37 -246 -37q-215 0 -320.5 106.5t-105.5 305.5v232zM602 1516h62q31 0 39 -9.5t4 -38.5l-39 -223q-6 -43 -23.5 -58.5t-58.5 -15.5h-90q-82 0 -54 74l80 213q12 35 28.5 46.5t51.5 11.5z" />
    <glyph glyph-name="Hcircumflex" unicode="&#x124;" horiz-adv-x="1404" 
d="M1192 1454q39 0 55.5 -15.5t16.5 -54.5v-1314q0 -39 -16.5 -54.5t-55.5 -15.5h-117q-39 0 -54 15.5t-15 54.5v546h-607v-546q0 -39 -15 -54.5t-54 -15.5h-117q-39 0 -55.5 15.5t-16.5 54.5v1314q0 39 16.5 54.5t55.5 15.5h117q39 0 54 -15.5t15 -54.5v-528h607v528
q0 39 15 54.5t54 15.5h117zM721 1862q39 0 57.5 -8.5t57.5 -47.5l206 -200q20 -20 14.5 -36t-42.5 -16h-92q-70 0 -101 37l-119 117l-122 -117q-25 -25 -41.5 -31t-57.5 -6h-84q-37 0 -44 15.5t14 36.5l208 200q37 37 56.5 46.5t64.5 9.5h25z" />
    <glyph glyph-name="hcircumflex" unicode="&#x125;" horiz-adv-x="1136" 
d="M293 1516q35 0 49 -14.5t14 -49.5v-389q14 8 87 18.5t157 10.5q426 0 426 -412v-617q0 -35 -14.5 -49t-48.5 -14h-111q-35 0 -49.5 14.5t-14.5 48.5v611q0 201 -223 200q-154 0 -209 -30v-781q0 -35 -14 -49t-49 -14h-113q-35 0 -48 14.5t-13 48.5v1389q0 35 13 49.5
t48 14.5h113zM256 1909q37 0 55.5 -7.5t53.5 -43.5l198 -195q20 -18 14 -33.5t-42 -15.5h-89q-66 0 -96 35l-112 112l-119 -112q-23 -23 -39.5 -29t-54.5 -6h-80q-37 0 -43 15.5t12 33.5l201 195q35 35 53 43t63 8h25z" />
    <glyph glyph-name="Hbar" unicode="&#x126;" horiz-adv-x="1429" 
d="M412 1098v-242h606v242h-606zM1372 1245q23 0 32 -9t9 -34v-59q0 -27 -8 -36t-33 -9h-96v-1028q0 -38 -15 -54t-55 -16h-119q-39 0 -54 15t-15 55v546h-606v-546q0 -38 -16 -54t-54 -16h-117q-39 0 -54 15t-15 55v1028h-95q-25 0 -33 9t-8 36v59q0 43 41 43h95v139
q0 38 15 54t54 16h117q39 0 54 -15t16 -55v-139h606v139q0 38 15 54t54 16h119q38 0 54 -15t16 -55v-139h96z" />
    <glyph glyph-name="hbar" unicode="&#x127;" horiz-adv-x="1136" 
d="M612 1092q204 0 310 -106t106 -306v-617q0 -35 -14 -49t-49 -14h-113q-35 0 -48 14t-13 49v611q0 201 -224 200q-150 0 -211 -30v-781q0 -35 -13 -49t-48 -14h-113q-35 0 -49 14t-14 49v1162h-68q-25 0 -33 9t-8 36v51q0 45 41 45h68v86q0 35 14 49t49 15h113
q35 0 48 -14t13 -50v-86h277q25 0 33 -9t8 -36v-51q0 -27 -8 -36t-33 -9h-277v-162q51 29 256 29z" />
    <glyph glyph-name="Itilde" unicode="&#x128;" horiz-adv-x="540" 
d="M141 1384q0 39 16.5 54.5t55.5 15.5h117q39 0 54 -15.5t15 -54.5v-1314q0 -39 -15 -54.5t-54 -15.5h-117q-39 0 -55.5 15.5t-16.5 54.5v1314zM537 1833q39 0 38 -39q0 -123 -40.5 -175t-122.5 -52t-159 58t-114 58q-49 0 -49 -77q0 -39 -37 -39h-67q-39 0 -39 39
q0 123 42 175t124 52t159.5 -58.5t114.5 -58.5q47 0 47 78q0 39 37 39h66z" />
    <glyph glyph-name="itilde" unicode="&#x129;" horiz-adv-x="473" 
d="M293 1061q35 0 48 -13.5t13 -48.5v-936q0 -35 -13 -49t-48 -14h-113q-35 0 -49 14.5t-14 48.5v936q0 35 14 48.5t49 13.5h113zM-29 1268q1 227 133 227q60 0 96 -28.5t63.5 -56.5t55.5 -28q43 0 43 74q0 39 31 39h60q33 0 32 -39q0 -127 -35.5 -178t-101 -51t-121 53
t-86.5 53q-45 0 -45 -65q0 -41 -30 -41h-64q-31 0 -31 41z" />
    <glyph glyph-name="Imacron" unicode="&#x12a;" horiz-adv-x="540" 
d="M141 1384q0 39 16.5 54.5t55.5 15.5h117q39 0 54 -15.5t15 -54.5v-1314q0 -39 -15 -54.5t-54 -15.5h-117q-39 0 -55.5 15.5t-16.5 54.5v1314zM508 1782q35 0 47 -12.5t12 -47.5v-51q0 -35 -12 -47t-47 -12h-473q-35 0 -47.5 12t-12.5 47v51q0 35 13.5 47.5t46.5 12.5h473
z" />
    <glyph glyph-name="imacron" unicode="&#x12b;" horiz-adv-x="473" 
d="M293 1061q35 0 48 -13.5t13 -48.5v-936q0 -35 -13 -49t-48 -14h-113q-35 0 -49 14.5t-14 48.5v936q0 35 14 48.5t49 13.5h113zM383 1411q23 0 30 -10t7 -45v-51q0 -35 -7 -46.5t-30 -11.5h-295q-23 0 -30 12.5t-7 45.5v51q0 33 8.5 44t28.5 11h295z" />
    <glyph glyph-name="Ibreve" unicode="&#x12c;" horiz-adv-x="540" 
d="M141 1384q0 39 16.5 54.5t55.5 15.5h117q39 0 54 -15.5t15 -54.5v-1314q0 -39 -15 -54.5t-54 -15.5h-117q-39 0 -55.5 15.5t-16.5 54.5v1314zM271 1556q-116 0 -198.5 55.5t-115.5 155.5q-16 41 27 58l82 30q47 16 63 -20q35 -106 142.5 -106t144.5 106q16 37 53 23
l92 -33q25 -10 31 -22.5t-2 -35.5q-35 -100 -119 -155.5t-200 -55.5z" />
    <glyph glyph-name="ibreve" unicode="&#x12d;" horiz-adv-x="473" 
d="M293 1061q35 0 48 -13.5t13 -48.5v-936q0 -35 -13 -49t-48 -14h-113q-35 0 -49 14.5t-14 48.5v936q0 35 14 48.5t49 13.5h113zM236.5 1196q-221.5 0 -287.5 209q-14 43 28 57l80 33q47 14 64 -22q29 -100 116 -100.5t115 100.5q16 37 54 22l94 -33q23 -10 29 -21t-3 -36
q-68 -209 -289.5 -209z" />
    <glyph glyph-name="Iogonek" unicode="&#x12e;" horiz-adv-x="540" 
d="M248 -502q-162 0 -182 123q-37 172 153 379q-45 0 -61.5 16.5t-16.5 53.5v1314q0 39 16.5 54.5t55.5 15.5h117q39 0 54 -15.5t15 -54.5v-1314q0 -37 -18 -62q-72 -88 -97.5 -169t-14.5 -124t48.5 -43t59.5 21q29 18 39 -12l28 -66q12 -29 -2 -43q-76 -74 -194 -74z" />
    <glyph glyph-name="iogonek" unicode="&#x12f;" horiz-adv-x="473" 
d="M238 -502q-164 0 -183 129q-27 176 121 373q-33 0 -45 14t-12 49v936q0 35 13 49t48 13h113q35 0 49 -13t14 -49v-936q0 -35 -12 -49q-106 -170 -84 -297q6 -45 51 -45q27 0 43 19q27 16 39 -10l25 -66q12 -27 -2 -43q-72 -74 -178 -74zM229 1192q-69 0 -97 27t-28 98v18
q0 70 27 97t98 26h15q72 0 98 -26t27 -97v-18q0 -73 -27 -99t-98 -26h-15z" />
    <glyph glyph-name="Idotaccent" unicode="&#x130;" horiz-adv-x="540" 
d="M141 1384q0 39 16.5 54.5t55.5 15.5h117q39 0 54 -15.5t15 -54.5v-1314q0 -39 -15 -54.5t-54 -15.5h-117q-39 0 -55.5 15.5t-16.5 54.5v1314zM276 1819q63 0 87 -23.5t24 -87.5v-16q0 -63 -23.5 -86t-87.5 -23h-10q-63 0 -86.5 22.5t-23.5 86.5v16q0 63 23.5 87t86.5 24
h10z" />
    <glyph glyph-name="dotlessi" unicode="&#x131;" horiz-adv-x="473" 
d="M293 1061q35 0 49 -13.5t14 -48.5v-936q0 -35 -14 -49t-49 -14h-113q-35 0 -48 14.5t-13 48.5v936q0 35 13 48.5t48 13.5h113z" />
    <glyph glyph-name="IJ" unicode="&#x132;" horiz-adv-x="1728" 
d="M1528 1454q39 0 53 -15.5t14 -52.5v-907q0 -240 -134 -375t-388 -135q-385 0 -495 342q-23 66 43 90l112 39q37 14 55.5 5t34.5 -48q33 -96 91.5 -142t158.5 -46q266 0 266 268v909q0 37 14.5 52.5t53.5 15.5h121zM141 1384q0 39 16.5 54.5t55.5 15.5h117q39 0 54 -15.5
t15 -54.5v-1314q0 -39 -15 -54.5t-54 -15.5h-117q-39 0 -55.5 15.5t-16.5 54.5v1314z" />
    <glyph glyph-name="ij" unicode="&#x133;" horiz-adv-x="968" 
d="M784 1061q38 0 52 -13t14 -49v-1013q0 -457 -469 -457q-37 0 -50 14t-14 51v91q-1 37 13 51t51 14q125 0 178 62t53 180v1007q0 35 14 49t50 13h108zM293 1061q35 0 49 -13t14 -49v-936q0 -35 -14 -49t-49 -14h-113q-35 0 -48 14t-13 49v936q0 35 13 49t48 13h113z
M737 1458q72 0 99 -26t26 -97v-18q0 -73 -28 -99t-97 -26h-14q-73 0 -99 27t-26 98v18q0 70 27 97t98 26h14zM244 1458q72 0 98 -26t27 -97v-18q0 -73 -27 -99t-98 -26h-15q-69 0 -97 27t-28 98v18q0 70 27 97t98 26h15z" />
    <glyph glyph-name="Jcircumflex" unicode="&#x134;" horiz-adv-x="1181" 
d="M983 1454q37 0 52.5 -15.5t15.5 -52.5v-907q0 -240 -134.5 -375t-388.5 -135q-385 0 -495 342q-25 66 43 90l112 39q35 14 53.5 5t34.5 -48q33 -96 91.5 -142t160.5 -46q264 0 265 268v909q0 37 15 52.5t54 15.5h121zM942 1862q37 0 56.5 -8.5t56.5 -47.5l209 -200
q20 -20 13 -36t-44 -16h-92q-68 0 -101 37l-118 117l-123 -117q-23 -25 -39.5 -31t-57.5 -6h-86q-37 0 -43 15.5t15 36.5l207 200q39 39 57 47.5t66 8.5h24z" />
    <glyph glyph-name="jcircumflex" unicode="&#x135;" horiz-adv-x="477" 
d="M293 1061q37 0 50 -13.5t13 -48.5v-1013q0 -457 -467 -457q-37 0 -51 14.5t-14 50.5v91q0 37 14.5 51t50.5 14q123 0 176.5 61.5t53.5 180.5v1007q0 35 14 48.5t51 13.5h109zM256 1491q37 0 56.5 -8t54.5 -45l194 -197q45 -49 -31 -49h-88q-41 0 -60.5 5t-37.5 28
l-106 114l-111 -114q-23 -23 -39 -28t-55 -5h-84q-74 0 -29 49l193 197q37 37 56 45t62 8h25z" />
    <glyph glyph-name="Kcommaaccent" unicode="&#x136;" horiz-adv-x="1284" 
d="M627 -526h-78q-27 0 -35 9t-4 36l41 291q2 39 19.5 52t56.5 13h106q84 0 62 -65l-97 -277q-10 -33 -25.5 -46t-45.5 -13zM1212 0h-118q-68 0 -94.5 11.5t-45.5 49.5l-206 416q-43 84 -91.5 114t-152.5 30h-105v-551q0 -39 -15 -54.5t-54 -15.5h-117q-39 0 -55.5 15.5
t-16.5 54.5v1314q0 39 16.5 54.5t55.5 15.5h117q39 0 54 -15.5t15 -54.5v-530h109l412 543q27 37 52 47t87 10h131q35 0 44 -20.5t-11 -47.5l-457 -583q131 -57 221 -234l260 -499q37 -70 -35 -70z" />
    <glyph glyph-name="kcommaaccent" unicode="&#x137;" horiz-adv-x="1071" 
d="M539 -471h-62q-31 0 -40 10t-5 39l35 246q4 43 22 58t60 16h90q82 0 53 -74l-76 -236q-10 -35 -26 -47t-51 -12zM983 0h-104q-53 0 -73 10q-19 10 -36 47l-127 273q-45 100 -164 100h-123v-364q0 -38 -13 -52t-52 -14h-105q-39 0 -53 14t-14 52v1384q0 37 14 51t53 15
h105q39 0 52 -14t13 -52v-799h107l278 363q23 33 45 40t78 7h101q98 0 41 -74l-310 -383q86 -43 148 -170l178 -358q22 -40 14 -58t-53 -18z" />
    <glyph glyph-name="kgreenlandic" unicode="&#x138;" horiz-adv-x="1032" 
d="M946 0h-104q-55 0 -82 9t-49 42l-246 344l-109 -127v-202q0 -38 -14 -52t-53 -14h-105q-39 0 -52 14t-13 52v931q0 37 13 51t52 13h105q39 0 53 -13t14 -51v-397l351 414q25 33 47 40t75 7h101q104 0 41 -74l-350 -409l364 -502q59 -76 -39 -76z" />
    <glyph glyph-name="Lacute" unicode="&#x139;" horiz-adv-x="1081" 
d="M330 1454q39 0 54 -15.5t15 -54.5v-1144h588q39 0 54.5 -15.5t15.5 -54.5v-100q0 -39 -15.5 -54.5t-54.5 -15.5h-774q-39 0 -55.5 15.5t-16.5 54.5v1314q0 39 16.5 54.5t55.5 15.5h117zM340 1851q78 43 117 -4l53 -65q23 -27 21.5 -42.5t-31.5 -27.5l-357 -149
q-59 -23 -77 2l-29 39q-37 45 2 65z" />
    <glyph glyph-name="lacute" unicode="&#x13a;" horiz-adv-x="487" 
d="M360 63q0 -35 -14 -49t-49 -14h-111q-35 0 -49 14t-14 49v1389q0 35 14 49t49 15h111q35 0 49 -14t14 -50v-1389zM0 1671q0 14 25 27l260 151q66 39 104 -8l60 -76q47 -53 -9 -69l-305 -117q-61 -23 -80 4l-35 47q-20 27 -20 41z" />
    <glyph glyph-name="Lcommaaccent" unicode="&#x13b;" horiz-adv-x="1081" 
d="M547 -526h-76q-27 0 -36 9t-5 36l41 291q4 39 20.5 52t55.5 13h108q84 0 60 -65l-97 -277q-16 -59 -71 -59zM330 1454q39 0 54 -15.5t15 -54.5v-1144h588q39 0 54.5 -15.5t15.5 -54.5v-100q0 -39 -15.5 -54.5t-54.5 -15.5h-774q-39 0 -55.5 15.5t-16.5 54.5v1314
q0 39 16.5 54.5t55.5 15.5h117z" />
    <glyph glyph-name="lcommaaccent" unicode="&#x13c;" horiz-adv-x="487" 
d="M131 -451q-31 -1 -39 9t-6 39l35 249q6 42 23 58t61 16h88q80 0 55 -74l-78 -239q-10 -35 -26 -46t-51 -12h-62zM362 63q0 -35 -14 -49t-49 -14h-111q-37 0 -50 14t-13 49v1389q0 35 13 49t50 15h111q35 0 49 -14t14 -50v-1389z" />
    <glyph glyph-name="Lcaron" unicode="&#x13d;" horiz-adv-x="1083" 
d="M739 985h-57q-27 0 -34 8t-5 35l49 361q2 39 18.5 52t55.5 13h98q80 0 56 -65l-111 -347q-10 -33 -25.5 -45t-44.5 -12zM330 1454q39 0 54 -15.5t15 -54.5v-1144h588q39 0 54.5 -15.5t15.5 -54.5v-100q0 -39 -15.5 -54.5t-54.5 -15.5h-774q-39 0 -55.5 15.5t-16.5 54.5
v1314q0 39 16.5 54.5t55.5 15.5h117z" />
    <glyph glyph-name="lcaron" unicode="&#x13e;" horiz-adv-x="501" 
d="M582 1098h-56q-26 0 -34 8t-7 35l41 309q6 39 20 52t54 14h98q82 0 58 -66l-105 -297q-10 -33 -24 -44t-45 -11zM362 63q0 -35 -14 -49t-49 -14h-111q-37 0 -50 14t-13 49v1389q0 35 13 49t50 15h111q35 0 49 -14t14 -50v-1389z" />
    <glyph glyph-name="Ldot" unicode="&#x13f;" horiz-adv-x="1083" 
d="M762 924q76 0 103.5 -29t27.5 -102v-19q0 -76 -27.5 -103.5t-103.5 -27.5h-14q-74 0 -103 27.5t-29 103.5v19q0 74 29 102.5t103 28.5h14zM330 1454q39 0 54 -15.5t15 -54.5v-1144h588q39 0 54.5 -15.5t15.5 -54.5v-100q0 -39 -15.5 -54.5t-54.5 -15.5h-774
q-39 0 -55.5 15.5t-16.5 54.5v1314q0 39 16.5 54.5t55.5 15.5h117z" />
    <glyph glyph-name="ldot" unicode="&#x140;" horiz-adv-x="788" 
d="M649 911q76 -1 104 -29t27 -102v-18q0 -76 -28 -104t-103 -27h-14q-76 -1 -104 27t-27 104v18q0 74 27 103q28 29 104 28h14zM362 63q0 -35 -14 -49t-49 -14h-111q-37 0 -50 14t-13 49v1389q0 35 13 49t50 15h111q35 0 49 -14t14 -50v-1389z" />
    <glyph glyph-name="Lslash" unicode="&#x141;" horiz-adv-x="1150" 
d="M1053 240q39 0 54 -15.5t15 -54.5v-100q0 -39 -15 -54.5t-54 -15.5h-774q-39 0 -54.5 15.5t-15.5 54.5v460l-113 -51q-47 -23 -67 23l-37 73q-23 41 20 60l197 90v659q0 39 15.5 54.5t54.5 15.5h116q39 0 54.5 -15.5t15.5 -54.5v-542l313 145q47 20 70 -22l37 -76
q20 -45 -23 -60l-397 -182v-407h588z" />
    <glyph glyph-name="lslash" unicode="&#x142;" horiz-adv-x="681" 
d="M457 63q-1 -35 -15 -49t-49 -14h-110q-35 0 -50 14q-14 14 -14 49v539l-88 -49q-47 -23 -70 16l-41 70q-20 41 19 61l180 101v651q0 35 14 49t50 15h110q35 0 49 -14t15 -50v-524l98 55q43 23 70 -16l39 -70q23 -39 -17 -61l-190 -105v-668z" />
    <glyph glyph-name="Nacute" unicode="&#x143;" horiz-adv-x="1425" 
d="M1212 1454q39 0 54.5 -15.5t15.5 -54.5v-1314q0 -39 -15.5 -54.5t-54.5 -15.5h-116q-47 0 -68 35l-502 741q-74 109 -146 286q-22 56 -22 58h-12q0 -2 22 -124t23 -283v-643q0 -39 -15.5 -54.5t-53.5 -15.5h-109q-39 0 -55.5 15.5t-16.5 54.5v1314q0 39 16.5 54.5
t55.5 15.5h117q45 0 67 -33l498 -737q89 -132 149 -290q22 -56 23 -58h12q-1 4 -23 130t-22 284v634q0 39 15.5 54.5t54.5 15.5h108zM784 1851q76 41 115 -4l53 -65q30 -34 21.5 -48t-29.5 -22l-356 -149q-59 -23 -80 2l-29 39q-37 45 4 65z" />
    <glyph glyph-name="nacute" unicode="&#x144;" 
d="M591 1092q222 0 327.5 -106.5t105.5 -305.5v-617q0 -35 -14.5 -49t-48.5 -14h-113q-35 0 -48.5 14.5t-13.5 48.5v611q0 201 -223 200q-98 0 -196 -26q-14 -6 -15 -21v-764q0 -35 -13 -49t-48 -14h-113q-35 0 -49 14.5t-14 48.5v842q0 49 15.5 73t64.5 44q174 70 396 70z
M639 1493q76 41 117 -4l51 -66q30 -34 21 -47.5t-29 -21.5l-357 -150q-59 -23 -80 4l-28 37q-37 45 4 66z" />
    <glyph glyph-name="Ncommaaccent" unicode="&#x145;" horiz-adv-x="1425" 
d="M686 -526h-76q-27 0 -36 9t-5 36l41 291q4 39 20.5 52t55.5 13h109q84 0 59 -65l-94 -277q-10 -33 -26.5 -46t-47.5 -13zM1212 1454q39 0 54.5 -15.5t15.5 -54.5v-1314q0 -39 -15.5 -54.5t-54.5 -15.5h-116q-47 0 -68 35l-502 741q-74 109 -146 286q-22 56 -22 58h-12
q0 -2 22 -124t23 -283v-643q0 -39 -15.5 -54.5t-53.5 -15.5h-109q-39 0 -55.5 15.5t-16.5 54.5v1314q0 39 16.5 54.5t55.5 15.5h117q45 0 67 -33l498 -737q89 -132 149 -290q22 -56 23 -58h12q-1 4 -23 130t-22 284v634q0 39 15.5 54.5t54.5 15.5h108z" />
    <glyph glyph-name="ncommaaccent" unicode="&#x146;" 
d="M537 -449h-62q-31 0 -39 9.5t-4 38.5l33 247q6 43 23.5 58.5t60.5 15.5h88q80 0 55 -74l-76 -237q-12 -35 -28.5 -46.5t-50.5 -11.5zM591 1092q222 0 327.5 -106.5t105.5 -305.5v-617q0 -35 -14.5 -49t-48.5 -14h-113q-35 0 -48.5 14.5t-13.5 48.5v611q0 201 -223 200
q-98 0 -196 -26q-14 -6 -15 -21v-764q0 -35 -13 -49t-48 -14h-113q-35 0 -49 14.5t-14 48.5v842q0 49 15.5 73t64.5 44q174 70 396 70z" />
    <glyph glyph-name="Ncaron" unicode="&#x147;" horiz-adv-x="1425" 
d="M1212 1454q39 0 54.5 -15.5t15.5 -54.5v-1314q0 -39 -15.5 -54.5t-54.5 -15.5h-116q-47 0 -68 35l-502 741q-74 109 -146 286q-22 56 -22 58h-12q0 -2 22 -124t23 -283v-643q0 -39 -15.5 -54.5t-53.5 -15.5h-109q-39 0 -55.5 15.5t-16.5 54.5v1314q0 39 16.5 54.5
t55.5 15.5h117q45 0 67 -33l498 -737q89 -132 149 -290q22 -56 23 -58h12q-1 4 -23 130t-22 284v634q0 39 15.5 54.5t54.5 15.5h108zM1018 1858q37 0 44 -15.5t-13 -36.5l-209 -198q-37 -39 -56.5 -47.5t-56.5 -8.5h-25q-47 0 -66.5 8.5t-55.5 47.5l-207 198q-20 20 -14 36
t42 16h86q41 0 57.5 -5.5t39.5 -29.5l125 -117l116 117q20 23 40 29t61 6h92z" />
    <glyph glyph-name="ncaron" unicode="&#x148;" 
d="M591 1092q222 0 327.5 -106.5t105.5 -305.5v-617q0 -35 -14.5 -49t-48.5 -14h-113q-35 0 -48.5 14.5t-13.5 48.5v611q0 201 -223 200q-98 0 -196 -26q-14 -6 -15 -21v-764q0 -35 -13 -49t-48 -14h-113q-35 0 -49 14.5t-14 48.5v842q0 49 15.5 73t64.5 44q174 70 396 70z
M848 1464q70 0 26 -47l-190 -186q-33 -35 -50.5 -42t-51.5 -7h-23q-43 0 -60.5 7t-52.5 42l-190 186q-18 18 -12 32.5t39 14.5h79q37 0 52.5 -5t36.5 -27l112 -109l109 109q31 33 92 32h84z" />
    <glyph glyph-name="napostrophe" unicode="&#x149;" 
d="M591 1092q222 0 327.5 -106.5t105.5 -305.5v-617q0 -35 -14.5 -49t-48.5 -14h-113q-35 0 -48.5 14.5t-13.5 48.5v611q0 201 -223 200q-98 0 -196 -26q-14 -6 -15 -21v-764q0 -35 -13 -49t-48 -14h-113q-35 0 -49 14.5t-14 48.5v842q0 49 15.5 73t64.5 44q174 70 396 70z
M162 1104h-58q-27 0 -32.5 9t2.5 34l112 313q12 33 25.5 44.5t48.5 11.5h115q82 0 41 -66l-180 -303q-18 -27 -30.5 -35t-43.5 -8z" />
    <glyph glyph-name="Eng" unicode="&#x14a;" horiz-adv-x="1425" 
d="M1212 1454q39 0 54.5 -15.5t15.5 -54.5v-1400q0 -217 -120 -336t-357 -119q-37 0 -51.5 14.5t-14.5 50.5v91q0 37 14.5 51t51.5 14q229 0 229 240v33l-508 753q-74 109 -146 286q-22 56 -22 58h-12q0 -2 22 -120t23 -279v-651q0 -39 -15.5 -54.5t-53.5 -15.5h-109
q-39 0 -55.5 15.5t-16.5 54.5v1314q0 39 16.5 54.5t55.5 15.5h117q45 0 67 -33l498 -737q89 -132 149 -290q22 -56 23 -58h12q-1 4 -23 130t-22 284v634q0 39 15.5 54.5t54.5 15.5h108z" />
    <glyph glyph-name="eng" unicode="&#x14b;" 
d="M591 1092q222 0 327.5 -106.5t105.5 -305.5v-715q0 -209 -115.5 -322.5t-345.5 -113.5q-35 0 -48 13.5t-13 47.5v88q0 35 13 48.5t48 13.5q223 0 223 233v701q0 201 -223 200q-98 0 -196 -26q-14 -6 -15 -21v-764q0 -35 -13 -49t-48 -14h-113q-35 0 -49 14.5t-14 48.5
v842q0 49 15.5 73t64.5 44q174 70 396 70z" />
    <glyph glyph-name="Omacron" unicode="&#x14c;" horiz-adv-x="1370" 
d="M1014 952q0 141 -85 217t-243 76t-243 -74.5t-85 -218.5v-450q0 -143 85 -218t243 -75t243 75.5t85 217.5v450zM100 950q0 250 153 392.5t433 142.5t432 -142.5t152 -392.5v-446q0 -250 -152.5 -392.5t-432.5 -142.5t-432.5 142.5t-152.5 392.5v446zM924 1802
q35 0 47 -12t12 -47v-51q0 -35 -12.5 -47.5t-46.5 -12.5h-475q-35 0 -47.5 12.5t-12.5 47.5v51q0 35 13.5 47t46.5 12h475z" />
    <glyph glyph-name="omacron" unicode="&#x14d;" horiz-adv-x="1112" 
d="M791 682q0 94 -61.5 144.5t-174.5 50.5t-173 -50.5t-60 -144.5v-303q0 -92 60 -143.5t173 -51.5t174.5 51.5t61.5 143.5v303zM84 682q0 193 123 301.5t349 108.5t349 -109t123 -301v-303q0 -193 -123 -301.5t-349 -108.5t-349 108.5t-123 301.5v303zM774 1409
q33 0 43 -11.5t10 -45.5v-49q0 -35 -10 -46.5t-43 -11.5h-436q-33 0 -44 12.5t-11 45.5v49q0 33 12 45t43 12h436z" />
    <glyph glyph-name="Obreve" unicode="&#x14e;" horiz-adv-x="1370" 
d="M1014 952q0 141 -85 217t-243 76t-243 -74.5t-85 -218.5v-450q0 -143 85 -218t243 -75t243 75.5t85 217.5v450zM100 950q0 250 153 392.5t432.5 142.5t432 -142.5t152.5 -392.5v-446q0 -250 -152.5 -392.5t-432.5 -142.5t-432.5 142.5t-152.5 392.5v446zM687 1577
q-116 0 -200 55.5t-116 155.5q-14 41 28 57l80 31q47 16 64 -21q35 -106 143.5 -106t142.5 106q16 37 54 23l94 -33q25 -10 30 -22t-3 -35q-35 -100 -118 -155.5t-199 -55.5z" />
    <glyph glyph-name="obreve" unicode="&#x14f;" horiz-adv-x="1112" 
d="M791 682q0 94 -61.5 144.5t-174.5 50.5t-173 -50.5t-60 -144.5v-303q0 -92 60 -143.5t173 -51.5t174.5 51.5t61.5 143.5v303zM84 682q0 193 123 301.5t349 108.5t349 -109t123 -301v-303q0 -193 -123 -301.5t-349 -108.5t-349 108.5t-123 301.5v303zM556 1196
q-116 0 -200 54.5t-116 154.5q-12 43 28 59l82 31q47 14 64 -20q33 -109 140 -109t146 109q16 33 54 22l92 -33q40 -18 28 -59q-35 -100 -118.5 -154.5t-199.5 -54.5z" />
    <glyph glyph-name="Ohungarumlaut" unicode="&#x150;" horiz-adv-x="1370" 
d="M1014 952q0 141 -85 217t-243 76t-243 -74.5t-85 -218.5v-450q0 -143 85 -218t243 -75t243 75.5t85 217.5v450zM100 950q0 250 153 392.5t433 142.5t432 -142.5t152 -392.5v-446q0 -250 -152.5 -392.5t-432.5 -142.5t-432.5 142.5t-152.5 392.5v446zM872 1849
q45 59 109 41l76 -24q74 -25 18 -70l-227 -197q-43 -37 -74 -26l-35 10q-55 16 -20 64zM526 1849q43 59 107 41l72 -24q68 -20 18 -70l-209 -188q-43 -37 -74 -27l-34 12q-51 14 -21 62z" />
    <glyph glyph-name="ohungarumlaut" unicode="&#x151;" horiz-adv-x="1112" 
d="M791 682q0 94 -61.5 144.5t-174.5 50.5t-173 -50.5t-60 -144.5v-303q0 -92 60 -143.5t173 -51.5t174.5 51.5t61.5 143.5v303zM84 682q0 193 123 301.5t349 108.5t349 -109t123 -301v-303q0 -193 -123 -301.5t-349 -108.5t-349 108.5t-123 301.5v303zM729 1421
q39 55 98 39l70 -22q68 -25 18 -64l-210 -180q-39 -35 -68 -25l-33 11q-51 16 -18 59zM408 1423q39 55 100 37l65 -22q59 -20 17 -64l-193 -172q-41 -35 -67 -24l-33 10q-49 14 -18 57z" />
    <glyph glyph-name="OE" unicode="&#x152;" horiz-adv-x="1759" 
d="M358 502q0 -143 85 -218t243 -75q92 0 160 24v988q-70 25 -160 24q-158 0 -243 -75t-85 -218v-450zM1622 240q39 0 54 -16t16 -54v-100q0 -38 -16 -54t-54 -16h-707q-100 -31 -229 -31q-282 1 -434 143t-152 392v446q0 250 153 392t433 143q131 0 229 -31h684
q39 0 55 -15t15 -55v-100q0 -39 -15 -54t-55 -16h-497v-358h399q39 0 54 -15t16 -55v-100q1 -39 -15 -54t-55 -16h-399v-376h520z" />
    <glyph glyph-name="oe" unicode="&#x153;" horiz-adv-x="1697" 
d="M735 379v303q0 195 -207 195q-100 -1 -152 -51t-52 -144v-303q0 -92 53 -143t151 -52q207 0 207 195zM1391 682q0 209 -209 209t-209 -209v-45h418v45zM1186 1092q219 0 331 -117t111 -305v-127q0 -88 -92 -88h-563v-76q0 -205 209 -205q141 0 211 109q25 33 45 38
t57 -14l74 -39q68 -37 22 -102q-117 -197 -411 -197q-217 0 -324 119q-109 -119 -325 -119q-217 0 -331 109t-114 299v305q0 194 115 302t331 108t326 -119q109 119 328 119z" />
    <glyph glyph-name="Racute" unicode="&#x154;" horiz-adv-x="1333" 
d="M969 1003.5q0 102.5 -55.5 156.5t-159.5 54h-355v-421h355q102 0 158.5 54t56.5 156.5zM778 1454q215 0 338 -120t123 -330q0 -158 -70.5 -264.5t-199.5 -149.5q37 -31 65 -88l226 -432q37 -70 -35 -70h-119q-68 0 -94.5 11.5t-44.5 49.5l-172 349q-41 86 -90.5 114.5
t-153.5 28.5h-152v-483q0 -39 -15 -54.5t-54 -15.5h-117q-39 0 -55.5 15.5t-16.5 54.5v1314q0 39 16.5 54.5t55.5 15.5h565zM733 1851q78 43 117 -4l53 -65q23 -27 22 -42.5t-32 -27.5l-356 -149q-59 -23 -78 2l-31 39q-37 45 4 65z" />
    <glyph glyph-name="racute" unicode="&#x155;" horiz-adv-x="720" 
d="M641 1092q35 0 49.5 -13.5t14.5 -50.5v-90q0 -35 -14.5 -49.5t-49.5 -14.5h-74q-115 0 -194 -24q-20 -4 -21 -25v-762q0 -35 -13 -49t-48 -14h-113q-35 0 -49 14.5t-14 48.5v850q0 49 15 73t65 44q149 56 380 62h66zM496 1491q76 45 116 -2l52 -66q47 -53 -9 -69
l-356 -150q-57 -25 -80 2l-29 39q-37 45 5 66z" />
    <glyph glyph-name="Rcommaaccent" unicode="&#x156;" horiz-adv-x="1333" 
d="M655 -526h-77q-27 0 -35 9t-6 36l43 291q2 39 19 52t56 13h107q84 0 59 -65l-94 -277q-10 -33 -25.5 -46t-46.5 -13zM969 1003.5q0 102.5 -55.5 156.5t-159.5 54h-355v-421h355q102 0 158.5 54t56.5 156.5zM778 1454q215 0 338 -120t123 -330q0 -158 -70.5 -264.5
t-199.5 -149.5q37 -31 65 -88l226 -432q37 -70 -35 -70h-119q-68 0 -94.5 11.5t-44.5 49.5l-172 349q-41 86 -90.5 114.5t-153.5 28.5h-152v-483q0 -39 -15 -54.5t-54 -15.5h-117q-39 0 -55.5 15.5t-16.5 54.5v1314q0 39 16.5 54.5t55.5 15.5h565z" />
    <glyph glyph-name="rcommaaccent" unicode="&#x157;" horiz-adv-x="720" 
d="M186 -461h-61q-31 0 -39 9.5t-4 37.5l33 258q4 43 21.5 58.5t60.5 15.5h90q43 0 54 -17.5t1 -56.5l-76 -247q-10 -35 -26.5 -46.5t-53.5 -11.5zM641 1092q35 0 49.5 -13.5t14.5 -50.5v-90q0 -35 -14.5 -49.5t-49.5 -14.5h-74q-115 0 -194 -24q-20 -4 -21 -25v-762
q0 -35 -13 -49t-48 -14h-113q-35 0 -49 14.5t-14 48.5v850q0 49 15 73t65 44q149 56 380 62h66z" />
    <glyph glyph-name="Rcaron" unicode="&#x158;" horiz-adv-x="1333" 
d="M969 1003.5q0 102.5 -55.5 156.5t-159.5 54h-355v-421h355q102 0 158.5 54t56.5 156.5zM778 1454q215 0 338 -120t123 -330q0 -158 -70.5 -264.5t-199.5 -149.5q37 -31 65 -88l226 -432q37 -70 -35 -70h-119q-68 0 -94.5 11.5t-44.5 49.5l-172 349q-41 86 -90.5 114.5
t-153.5 28.5h-152v-483q0 -39 -15 -54.5t-54 -15.5h-117q-39 0 -55.5 15.5t-16.5 54.5v1314q0 39 16.5 54.5t55.5 15.5h565zM969 1858q37 0 43 -15.5t-15 -36.5l-206 -198q-37 -39 -56.5 -47.5t-56.5 -8.5h-27q-47 0 -66.5 8.5t-54.5 47.5l-206 198q-23 20 -17 36t45 16h86
q41 0 56.5 -5.5t40.5 -29.5l122 -117l119 117q20 23 40 29t61 6h92z" />
    <glyph glyph-name="rcaron" unicode="&#x159;" horiz-adv-x="720" 
d="M641 1092q35 0 49.5 -13.5t14.5 -50.5v-90q0 -35 -14.5 -49.5t-49.5 -14.5h-74q-115 0 -194 -24q-20 -4 -21 -25v-762q0 -35 -13 -49t-48 -14h-113q-35 0 -49 14.5t-14 48.5v850q0 49 15 73t65 44q149 56 380 62h66zM705 1464q70 0 26 -47l-190 -186q-33 -35 -50.5 -43
t-52.5 -8h-24q-41 0 -59.5 8t-51.5 43l-190 186q-18 18 -12.5 32.5t38.5 14.5h80q37 0 52.5 -5t35.5 -27l113 -109l108 109q29 33 93 32h84z" />
    <glyph glyph-name="Sacute" unicode="&#x15a;" horiz-adv-x="1296" 
d="M88 1036q0 201 146.5 325t414.5 124q213 0 338 -76t201 -233q31 -63 -39 -95l-113 -49q-35 -14 -52 -7t-36 42q-43 86 -112.5 129t-186.5 43q-297 0 -297 -188q0 -105 110 -145q84 -31 207.5 -45.5t186 -27t137 -42t121.5 -72.5t80 -118t33 -173q0 -209 -153.5 -334
t-407.5 -125t-387.5 85t-198.5 257q-14 39 -4 58.5t47 31.5l113 41q35 12 53 3t35 -46q80 -190 319 -190q326 0 326 213q0 68 -49.5 108.5t-110.5 56t-147.5 24.5t-128 14.5t-107.5 19.5q-66 15 -106 33q-122 56 -166 123q-66 101 -66 235zM723 1870q76 45 115 -2l53 -66
q43 -51 -8 -69l-357 -152q-59 -23 -80 4l-28 39q-37 45 4 66z" />
    <glyph glyph-name="sacute" unicode="&#x15b;" horiz-adv-x="1032" 
d="M500 1092q330 0 438 -220q33 -61 -33 -92l-92 -37q-35 -14 -50 -9t-36 38q-59 106 -221 107q-193 0 -193 -111q0 -68 53.5 -91.5t224.5 -39.5t275.5 -85t104.5 -233t-115 -257t-328 -93q-360 0 -456 248q-25 63 41 86l92 29q31 12 50 4t34 -43q47 -113 231 -113
q217 0 217 121q0 68 -54 92.5t-158.5 35.5t-154.5 21q-135 25 -213.5 93.5t-78.5 219.5t107.5 240t314.5 89zM586 1493q78 43 116 -4l54 -66q23 -27 21.5 -42t-32.5 -27l-356 -150q-59 -23 -80 4l-28 37q-37 45 4 66z" />
    <glyph glyph-name="Scircumflex" unicode="&#x15c;" horiz-adv-x="1296" 
d="M88 1036q0 201 146.5 325t414.5 124q213 0 338 -76t201 -233q31 -63 -39 -95l-113 -49q-35 -14 -52 -7t-36 42q-43 86 -112.5 129t-186.5 43q-297 0 -297 -188q0 -105 110 -145q84 -31 207.5 -45.5t186 -27t137 -42t121.5 -72.5t80 -118t33 -173q0 -209 -153.5 -334
t-407.5 -125t-387.5 85t-198.5 257q-14 39 -4 58.5t47 31.5l113 41q35 12 53 3t35 -46q80 -190 319 -190q326 0 326 213q0 68 -49.5 108.5t-110.5 56t-147.5 24.5t-128 14.5t-107.5 19.5q-66 15 -106 33q-122 56 -166 123q-66 101 -66 235zM672 1882q39 0 57.5 -8t56.5 -47
l207 -201q20 -20 13 -35.5t-43 -15.5h-91q-70 0 -102 35l-117 119l-123 -119q-25 -25 -41 -30t-57 -5h-84q-37 0 -44 15.5t13 35.5l209 201q37 37 56.5 46t64.5 9h25z" />
    <glyph glyph-name="scircumflex" unicode="&#x15d;" horiz-adv-x="1032" 
d="M500 1092q330 0 438 -220q33 -61 -33 -92l-92 -37q-35 -14 -50 -9t-36 38q-59 106 -221 107q-193 0 -193 -111q0 -68 53.5 -91.5t224.5 -39.5t275.5 -85t104.5 -233t-115 -257t-328 -93q-360 0 -456 248q-25 63 41 86l92 29q31 12 50 4t34 -43q47 -113 231 -113
q217 0 217 121q0 68 -54 92.5t-158.5 35.5t-154.5 21q-135 25 -213.5 93.5t-78.5 219.5t107.5 240t314.5 89zM535 1491q37 0 56 -8t56 -45l203 -197q45 -49 -31 -49h-88q-41 0 -60.5 5t-37.5 28l-117 114l-121 -114q-23 -23 -39 -28t-55 -5h-84q-74 0 -29 49l203 197
q37 37 56.5 45t62.5 8h25z" />
    <glyph glyph-name="Scedilla" unicode="&#x15e;" horiz-adv-x="1294" 
d="M638 -504q-101 0 -157 29q-35 14 -35 55l-2 64q0 39 33 24q61 -33 121 -33q100 0 100 74q0 57 -86 58q-35 0 -51 -3q-49 0 -29 50l68 155q-213 8 -337 93t-185 249q-14 39 -4 58.5t47 31.5l112 41q37 12 54.5 3t34.5 -46q80 -190 319 -190q326 0 326 213
q0 68 -49.5 108.5t-111 56t-147.5 24.5t-126.5 14.5t-106.5 19.5q-66 15 -106 33q-122 55 -168 123q-64 96 -64 235q0 201 145.5 325t413.5 124q213 0 338 -76t201 -233q31 -63 -39 -95l-113 -49q-35 -14 -52 -7t-36 42q-43 86 -112.5 129t-186.5 43q-297 0 -297 -188
q0 -105 110 -145q86 -31 208.5 -45.5t184.5 -27t137 -42t122 -72.5t80 -118t33 -173q0 -188 -126 -309t-358 -144l-34 -94l26 2q80 0 129 -53t40 -146t-86 -140.5t-178 -47.5z" />
    <glyph glyph-name="scedilla" unicode="&#x15f;" horiz-adv-x="1032" 
d="M489 -500q-180 0 -180 82l-2 60q0 39 31 22q57 -31 121 -31q98 0 98 72q0 55 -86 55q-35 0 -51 -2q-47 0 -25 49l72 164q-309 23 -395 246q-25 63 41 86l92 29q31 12 50 4t34 -43q47 -113 231 -113q217 0 217 121q0 68 -54 92.5t-158.5 35.5t-154.5 21
q-135 25 -213.5 93.5t-78.5 219.5t107.5 240t314.5 89q330 0 438 -220q33 -61 -33 -92l-92 -37q-35 -14 -50 -9t-36 38q-59 106 -221 107q-193 0 -193 -111q0 -68 53.5 -91.5t224.5 -39.5t275.5 -85t104.5 -224.5t-94.5 -245.5t-272.5 -109l-41 -104q8 2 25 2q80 0 128 -51
t39 -140t-83 -134.5t-183 -45.5z" />
    <glyph glyph-name="Scaron" unicode="&#x160;" horiz-adv-x="1296" 
d="M88 1036q0 201 146.5 325t414.5 124q213 0 338 -76t201 -233q31 -63 -39 -95l-113 -49q-35 -14 -52 -7t-36 42q-43 86 -112.5 129t-186.5 43q-297 0 -297 -188q0 -105 110 -145q84 -31 207.5 -45.5t186 -27t137 -42t121.5 -72.5t80 -118t33 -173q0 -209 -153.5 -334
t-407.5 -125t-387.5 85t-198.5 257q-14 39 -4 58.5t47 31.5l113 41q35 12 53 3t35 -46q80 -190 319 -190q326 0 326 213q0 68 -49.5 108.5t-110.5 56t-147.5 24.5t-128 14.5t-107.5 19.5q-66 15 -106 33q-122 56 -166 123q-66 101 -66 235zM956 1878q37 0 44.5 -15.5
t-13.5 -35.5l-209 -201q-37 -37 -55 -45t-57 -8h-25q-47 0 -66.5 8t-56.5 45l-207 201q-20 20 -14 35.5t43 15.5h86q41 0 57.5 -5t38.5 -30l125 -117l117 117q33 35 100 35h92z" />
    <glyph glyph-name="scaron" unicode="&#x161;" horiz-adv-x="1032" 
d="M500 1092q330 0 438 -220q33 -61 -33 -92l-92 -37q-35 -14 -50 -9t-36 38q-59 106 -221 107q-193 0 -193 -111q0 -68 53.5 -91.5t224.5 -39.5t275.5 -85t104.5 -233t-115 -257t-328 -93q-360 0 -456 248q-25 63 41 86l92 29q31 12 50 4t34 -43q47 -113 231 -113
q217 0 217 121q0 68 -54 92.5t-158.5 35.5t-154.5 21q-135 25 -213.5 93.5t-78.5 219.5t107.5 240t314.5 89zM791 1456q35 0 41 -14.5t-13 -32.5l-188 -180q-33 -35 -50.5 -42t-52.5 -7h-22q-41 0 -59.5 7t-51.5 42l-188 182q-18 16 -12 30.5t38 14.5h78q37 0 52.5 -5
t35.5 -28l113 -104l106 104q29 33 91 33h82z" />
    <glyph glyph-name="Tcaron" unicode="&#x164;" horiz-adv-x="1159" 
d="M1061 1454q39 0 54 -15.5t15 -54.5v-100q0 -39 -15 -54.5t-54 -15.5h-352v-1144q0 -39 -15.5 -54.5t-54.5 -15.5h-119q-39 0 -54 15.5t-15 54.5v1144h-353q-39 0 -54 15.5t-15 54.5v100q0 39 15 54.5t54 15.5h963zM885 1858q37 0 43 -15.5t-15 -36.5l-206 -198
q-37 -39 -56.5 -47.5t-58.5 -8.5h-25q-47 0 -66.5 8.5t-54.5 47.5l-208 198q-20 20 -13.5 36t43.5 16h86q39 0 55.5 -5.5t41.5 -29.5l122 -117l119 117q18 23 38 29t63 6h92z" />
    <glyph glyph-name="tcaron" unicode="&#x165;" horiz-adv-x="796" 
d="M395 1307q35 1 49 -13t15 -49v-184h233q35 0 49 -13t15 -49v-94q0 -35 -14 -49t-50 -14h-233v-412q0 -145 48 -190t183 -45q37 1 51 -13t15 -51v-94q0 -37 -14 -50t-52 -16q-258 -8 -363 90t-106 361v420h-141q-35 0 -48 14t-14 49v94q0 35 14 49t48 13h141v184
q1 35 15 48t49 14h110zM666 1137h-56q-28 0 -34 8t-5 35l29 270q2 37 18 51t56 15h96q43 0 55 -16t2 -50l-90 -256q-12 -33 -26 -45t-45 -12z" />
    <glyph glyph-name="Tbar" unicode="&#x166;" horiz-adv-x="1193" 
d="M1079 1454q39 0 54.5 -15.5t15.5 -54.5v-100q0 -39 -15.5 -54.5t-54.5 -15.5h-354v-452h244q25 0 33 -10.5t8 -34.5v-94q0 -27 -8.5 -36t-32.5 -9h-244v-508q0 -39 -15.5 -54.5t-54.5 -15.5h-116q-39 0 -54.5 15.5t-15.5 54.5v508h-244q-25 0 -33 9t-8 36v94q0 45 41 45
h244v452h-352q-39 0 -54.5 15.5t-15.5 54.5v100q0 39 15.5 54.5t54.5 15.5h962z" />
    <glyph glyph-name="tbar" unicode="&#x167;" horiz-adv-x="802" 
d="M401 1309q35 1 49 -13t15 -51v-182h233q36 0 50 -13t14 -51v-94q0 -35 -14 -48t-50 -13h-233v-215h182q25 0 33 -9t8 -34v-78q0 -27 -8 -35t-33 -8h-182v-39q0 -141 48 -185t183 -44q37 -1 50 -15t14 -49v-96q0 -35 -14 -48t-50 -16q-258 -8 -363 90t-106 361v41h-127
q-24 0 -32 8t-9 35v78q0 43 41 43h127v215h-141q-35 0 -49 13t-14 48v94q0 37 14 51t49 13h141v182q-1 37 13 50t49 14h112z" />
    <glyph glyph-name="Utilde" unicode="&#x168;" horiz-adv-x="1409" 
d="M389 498q0 -139 80 -214t235.5 -75t235.5 74.5t80 214.5v886q0 39 15.5 54.5t54.5 15.5h116q39 0 54.5 -15.5t15.5 -54.5v-884q0 -246 -147.5 -388.5t-424 -142.5t-425 142.5t-148.5 388.5v884q0 39 15.5 54.5t54.5 15.5h118q39 0 54.5 -15.5t15.5 -54.5v-886zM971 1833
q39 0 39 -39q0 -123 -41 -175t-122 -52t-159 58t-117 58q-47 0 -47 -77q0 -39 -39 -39h-65q-39 0 -39 39q0 123 42 175t123 52t159.5 -58.5t113.5 -58.5q49 0 49 78q0 39 37 39h66z" />
    <glyph glyph-name="utilde" unicode="&#x169;" 
d="M954 1061q35 0 49.5 -13.5t14.5 -48.5v-843q0 -49 -15.5 -72t-64.5 -43q-180 -72 -398 -72t-324.5 106.5t-106.5 305.5v618q0 35 14 48.5t49 13.5h113q35 0 48 -13.5t13 -48.5v-610q0 -203 223 -203q106 0 189 25q23 8 22 35v753q0 35 14.5 48.5t49.5 13.5h110zM829 1483
q39 0 39 -39q0 -125 -41 -177.5t-122 -52.5t-158.5 58.5t-114.5 58.5q-49 0 -49 -78q0 -39 -37 -39h-67q-39 0 -39 39q0 123 42 176.5t124 53.5t159.5 -58.5t112.5 -58.5q49 0 49 78q0 39 37 39h65z" />
    <glyph glyph-name="Umacron" unicode="&#x16a;" horiz-adv-x="1409" 
d="M389 498q0 -139 80 -214t235.5 -75t235.5 74.5t80 214.5v886q0 39 15.5 54.5t54.5 15.5h116q39 0 54.5 -15.5t15.5 -54.5v-884q0 -246 -147.5 -388.5t-424 -142.5t-425 142.5t-148.5 388.5v884q0 39 15.5 54.5t54.5 15.5h118q39 0 54.5 -15.5t15.5 -54.5v-886zM942 1782
q35 0 47 -12.5t12 -47.5v-51q0 -35 -12 -47t-47 -12h-475q-35 0 -47 12t-12 47v51q0 35 13 47.5t46 12.5h475z" />
    <glyph glyph-name="umacron" unicode="&#x16b;" 
d="M954 1061q35 0 49.5 -13.5t14.5 -48.5v-843q0 -49 -15.5 -72t-64.5 -43q-180 -72 -398 -72t-324.5 106.5t-106.5 305.5v618q0 35 14 48.5t49 13.5h113q35 0 48 -13.5t13 -48.5v-610q0 -203 223 -203q106 0 189 25q23 8 22 35v753q0 35 14.5 48.5t49.5 13.5h110zM801 1423
q35 0 47 -12t12 -47v-51q0 -35 -12 -47.5t-47 -12.5h-475q-35 0 -47.5 12.5t-12.5 47.5v51q0 35 13.5 47t46.5 12h475z" />
    <glyph glyph-name="Ubreve" unicode="&#x16c;" horiz-adv-x="1409" 
d="M389 498q0 -139 80 -214t235.5 -75t235.5 74.5t80 214.5v886q0 39 15.5 54.5t54.5 15.5h116q39 0 54.5 -15.5t15.5 -54.5v-884q0 -246 -147.5 -388.5t-424 -142.5t-425 142.5t-148.5 388.5v884q0 39 15.5 54.5t54.5 15.5h118q39 0 54.5 -15.5t15.5 -54.5v-886z
M705.5 1556q-115.5 0 -199.5 55.5t-117 155.5q-14 41 29 58l80 30q47 16 63 -20q35 -106 143.5 -106t143.5 106q16 37 53 23l94 -33q25 -10 30 -22.5t-3 -35.5q-35 -100 -118 -155.5t-198.5 -55.5z" />
    <glyph glyph-name="ubreve" unicode="&#x16d;" 
d="M954 1061q35 0 49.5 -13.5t14.5 -48.5v-843q0 -49 -15.5 -72t-64.5 -43q-180 -72 -398 -72t-324.5 106.5t-106.5 305.5v618q0 35 14 48.5t49 13.5h113q35 0 48 -13.5t13 -48.5v-610q0 -203 223 -203q106 0 189 25q23 8 22 35v753q0 35 14.5 48.5t49.5 13.5h110zM564 1196
q-116 0 -199.5 54.5t-116.5 154.5q-12 43 28 59l82 31q47 14 64 -20q33 -109 140 -109t147 109q16 33 53 22l92 -33q41 -18 29 -59q-35 -100 -119 -154.5t-200 -54.5z" />
    <glyph glyph-name="Uring" unicode="&#x16e;" horiz-adv-x="1409" 
d="M389 498q0 -139 80 -214t235.5 -75t235.5 74.5t80 214.5v886q0 39 15.5 54.5t54.5 15.5h116q39 0 54.5 -15.5t15.5 -54.5v-884q0 -246 -147.5 -388.5t-424 -142.5t-425 142.5t-148.5 388.5v884q0 39 15.5 54.5t54.5 15.5h118q39 0 54.5 -15.5t15.5 -54.5v-886zM817 1737
q0 45 -27.5 73.5t-73.5 28.5t-76 -28.5t-30 -73.5t30 -73t76 -28t73.5 28t27.5 73zM492 1736.5q0 96.5 62 158t160 61.5t160 -61.5t62 -156.5t-61.5 -155.5t-159.5 -60.5t-160.5 59t-62.5 155.5z" />
    <glyph glyph-name="uring" unicode="&#x16f;" 
d="M954 1061q35 0 49.5 -13.5t14.5 -48.5v-843q0 -49 -15.5 -72t-64.5 -43q-180 -72 -398 -72t-324.5 106.5t-106.5 305.5v618q0 35 14 48.5t49 13.5h113q35 0 48 -13.5t13 -48.5v-610q0 -203 223 -203q106 0 189 25q23 8 22 35v753q0 35 14.5 48.5t49.5 13.5h110zM666 1328
q0 44 -28 73t-74 29t-74.5 -29t-28.5 -73t29.5 -71.5t74.5 -27.5t73 27.5t28 71.5zM342 1328q0 95 62.5 156.5t159.5 61.5t158.5 -61.5t61.5 -156.5t-61 -155.5t-158.5 -60.5t-160 60.5t-62.5 155.5z" />
    <glyph glyph-name="Uhungarumlaut" unicode="&#x170;" horiz-adv-x="1409" 
d="M389 498q0 -139 80 -214t235.5 -75t235.5 74.5t80 214.5v886q0 39 15.5 54.5t54.5 15.5h116q39 0 54.5 -15.5t15.5 -54.5v-884q0 -246 -147.5 -388.5t-424 -142.5t-425 142.5t-148.5 388.5v884q0 39 15.5 54.5t54.5 15.5h118q39 0 54.5 -15.5t15.5 -54.5v-886zM891 1829
q45 59 108 41l76 -25q74 -25 19 -69l-228 -197q-43 -37 -73 -27l-35 11q-57 16 -21 63zM545 1829q43 59 106 41l72 -25q68 -20 18 -69l-209 -189q-43 -37 -73 -26l-35 12q-51 14 -21 61z" />
    <glyph glyph-name="uhungarumlaut" unicode="&#x171;" 
d="M954 1061q35 0 49.5 -13.5t14.5 -48.5v-843q0 -49 -15.5 -72t-64.5 -43q-180 -72 -398 -72t-324.5 106.5t-106.5 305.5v618q0 35 14 48.5t49 13.5h113q35 0 48 -13.5t13 -48.5v-610q0 -203 223 -203q106 0 189 25q23 8 22 35v753q0 35 14.5 48.5t49.5 13.5h110zM752 1454
q45 59 106 41l78 -25q72 -25 18 -69l-229 -195q-25 -23 -37 -29t-37 3l-35 10q-53 16 -20 63zM403 1454q41 59 107 41l72 -22q63 -23 20 -72l-209 -189q-45 -37 -74 -24l-34 10q-51 14 -23 64z" />
    <glyph glyph-name="Uogonek" unicode="&#x172;" horiz-adv-x="1409" 
d="M1206 1454q39 0 54.5 -15.5t15.5 -54.5v-884q0 -272 -170 -408q-129 -127 -186.5 -230.5t-45 -146.5t49.5 -43t59 21q29 18 39 -12l29 -66q12 -29 -2 -43q-78 -74 -195 -74q-162 0 -182 123q-14 76 27.5 171t131.5 190q-55 -12 -126 -13q-276 0 -425 142.5t-149 388.5
v884q0 39 15.5 54.5t54.5 15.5h118q39 0 54.5 -15.5t15.5 -54.5v-886q0 -139 80 -214t235.5 -75t235.5 74.5t80 214.5v886q0 39 15.5 54.5t54.5 15.5h116z" />
    <glyph glyph-name="uogonek" unicode="&#x173;" 
d="M954 1061q35 0 49.5 -13.5t14.5 -48.5v-843q0 -55 -23 -80q-88 -110 -128 -214q-41 -104 -29 -147t49 -43t59 21q29 18 39 -12l29 -66q12 -29 -2 -43q-78 -74 -195 -74q-162 0 -182 123q-16 76 25.5 179.5t127.5 195.5q-111 -27 -251 -27q-215 0 -321.5 106.5
t-106.5 305.5v618q0 35 14 48.5t49 13.5h113q35 0 48 -13.5t13 -48.5v-610q0 -203 223 -203q106 0 189 25q23 8 22 35v753q0 35 14.5 48.5t49.5 13.5h110z" />
    <glyph glyph-name="Wcircumflex" unicode="&#x174;" horiz-adv-x="1845" 
d="M1757 1454q35 0 45 -16.5t0 -51.5l-338 -1329q-8 -35 -27.5 -46t-58.5 -11h-112q-74 0 -86 55l-215 813q-31 119 -33 232h-14q-2 -109 -35 -230l-217 -813q-8 -35 -28 -46t-58 -11h-111q-39 0 -59.5 11.5t-28.5 43.5l-336 1331q-10 35 -1 51.5t46 16.5h143q45 0 64.5 -12
t28.5 -49l168 -764q6 -27 32 -275h13q6 141 41 275l206 757q10 37 31 49.5t62 12.5h110q43 0 63.5 -12.5t28.5 -49.5l203 -757q37 -141 43 -275h12q8 133 37 273l164 766q8 37 27.5 49t64.5 12h125zM954 1862q39 0 57.5 -8.5t55.5 -47.5l209 -200q20 -20 13 -36t-44 -16h-92
q-68 0 -100 37l-117 117l-123 -117q-25 -25 -41 -31t-57 -6h-84q-37 0 -44 15.5t13 36.5l209 200q37 37 56.5 46.5t64.5 9.5h24z" />
    <glyph glyph-name="wcircumflex" unicode="&#x175;" horiz-adv-x="1505" 
d="M1407 1061q45 0 55.5 -14.5t-2.5 -59.5l-274 -932q-16 -57 -86 -57h-70q-70 0 -88 57l-149 525q-21 77 -33 178l-4 33h-11l-4 -33q-11 -95 -34 -178l-150 -525q-16 -57 -86 -57h-68q-70 0 -86 57l-272 932q-14 45 -4 59.5t55 14.5h80q59 0 82 -12.5t31 -51.5l117 -458
q17 -81 24.5 -163.5t9.5 -86.5h11q0 2 4 30.5t10 84.5t29 137l135 448q12 43 30.5 54.5t73.5 11.5h47q55 0 73.5 -11.5t31.5 -52.5l137 -450q26 -98 34.5 -174t8.5 -78h12l4 39q5 100 31 213l113 456q8 39 31.5 51.5t82.5 12.5h68zM776 1491q37 0 55.5 -8t55.5 -47l203 -195
q20 -20 14 -35.5t-43 -15.5h-90q-68 0 -99 35l-114 114l-121 -114q-23 -25 -39 -30t-57 -5h-82q-74 0 -31 51l205 195q37 39 55.5 47t63.5 8h24z" />
    <glyph glyph-name="Ycircumflex" unicode="&#x176;" horiz-adv-x="1316" 
d="M1251 1454q37 0 45.5 -20.5t-10.5 -49.5l-500 -811v-503q0 -39 -15 -54.5t-54 -15.5h-117q-39 0 -54.5 15.5t-15.5 54.5v508l-501 806q-18 29 -9 49.5t46 20.5h143q66 0 89.5 -9t45.5 -52l318 -553l319 553q23 43 47.5 52t89.5 9h133zM684 1862q37 0 56.5 -8.5
t56.5 -47.5l207 -200q20 -20 14 -36t-43 -16h-92q-68 0 -101 37l-118 117l-123 -117q-25 -25 -40.5 -31t-56.5 -6h-86q-37 0 -44 15.5t14 36.5l209 200q37 37 56 46.5t64 9.5h27z" />
    <glyph glyph-name="ycircumflex" unicode="&#x177;" horiz-adv-x="1136" 
d="M954 1061q35 0 49.5 -13.5t14.5 -48.5v-1034q0 -211 -109.5 -328.5t-341.5 -117.5q-305 0 -426 196q-43 68 27 103l78 43q37 18 58.5 13t43.5 -38q66 -104 215 -104q217 0 217 221v96q-127 -29 -243 -29q-215 0 -321.5 106.5t-106.5 305.5v567q0 35 14 48.5t49 13.5h113
q35 0 48 -13.5t13 -48.5v-559q0 -203 223 -202q100 0 211 28v733q0 35 14.5 48.5t49.5 13.5h110zM582 1491q37 0 56 -8t54 -47l203 -195q20 -20 14 -35.5t-43 -15.5h-90q-66 0 -98 35l-115 114l-121 -114q-23 -23 -39 -29t-55 -6h-84q-37 0 -43 15.5t15 35.5l202 195
q37 37 56.5 46t62.5 9h25z" />
    <glyph glyph-name="Ydieresis" unicode="&#x178;" horiz-adv-x="1316" 
d="M1251 1454q37 0 45.5 -20.5t-10.5 -49.5l-500 -811v-503q0 -39 -15 -54.5t-54 -15.5h-117q-39 0 -54.5 15.5t-15.5 54.5v508l-501 806q-18 29 -9 49.5t46 20.5h143q66 0 89.5 -9t45.5 -52l318 -553l319 553q23 43 47.5 52t89.5 9h133zM877 1819q61 0 83.5 -23.5
t22.5 -83.5v-20q0 -59 -22.5 -83t-83.5 -24h-15q-61 0 -84.5 23.5t-23.5 83.5v20q0 59 23.5 83t84.5 24h15zM465 1819q61 0 84.5 -23.5t23.5 -83.5v-20q0 -59 -23.5 -83t-84.5 -24h-12q-61 0 -84 23.5t-23 83.5v20q0 59 22.5 83t84.5 24h12z" />
    <glyph glyph-name="Zacute" unicode="&#x179;" horiz-adv-x="1204" 
d="M1053 1454q39 0 54 -15.5t15 -54.5v-98q0 -45 -22 -74l-709 -972h674q41 0 55.5 -15.5t14.5 -54.5v-100q0 -39 -15.5 -54.5t-54.5 -15.5h-926q-39 0 -54 15.5t-15 54.5v100q0 39 24 72l707 972h-651q-39 0 -54.5 15.5t-15.5 54.5v100q0 39 15.5 54.5t54.5 15.5h903z
M684 1851q76 41 115 -4l53 -65q31 -35 21.5 -48.5t-29.5 -21.5l-357 -149q-59 -23 -79 2l-29 39q-37 45 4 65z" />
    <glyph glyph-name="zacute" unicode="&#x17a;" horiz-adv-x="964" 
d="M842 215q35 0 48 -14.5t13 -48.5v-89q0 -35 -13 -49t-48 -14h-717q-35 0 -49.5 14.5t-14.5 48.5v89q0 39 23 63l502 631h-451q-35 0 -49 14t-14 49v90q0 35 14 48.5t49 13.5h696q35 0 48.5 -13.5t13.5 -48.5v-90q0 -41 -23 -67l-505 -627h477zM553 1491q74 47 115 -2
l53 -66q43 -51 -10 -69l-357 -150q-59 -25 -78 2l-28 39q-37 45 2 66z" />
    <glyph glyph-name="Zdotaccent" unicode="&#x17b;" horiz-adv-x="1204" 
d="M1053 1454q39 0 54 -15.5t15 -54.5v-98q0 -45 -22 -74l-709 -972h674q41 0 55.5 -15.5t14.5 -54.5v-100q0 -39 -15.5 -54.5t-54.5 -15.5h-926q-39 0 -54 15.5t-15 54.5v100q0 39 24 72l707 972h-651q-39 0 -54.5 15.5t-15.5 54.5v100q0 39 15.5 54.5t54.5 15.5h903z
M621 1819q63 0 86.5 -23.5t23.5 -87.5v-16q0 -63 -23.5 -86t-86.5 -23h-13q-63 0 -86.5 22.5t-23.5 86.5v16q0 63 23.5 87t86.5 24h13z" />
    <glyph glyph-name="zdotaccent" unicode="&#x17c;" horiz-adv-x="964" 
d="M842 215q35 0 48 -14.5t13 -48.5v-89q0 -35 -13 -49t-48 -14h-717q-35 0 -49.5 14.5t-14.5 48.5v89q0 39 23 63l502 631h-451q-35 0 -49 14t-14 49v90q0 35 14 48.5t49 13.5h696q35 0 48.5 -13.5t13.5 -48.5v-90q0 -41 -23 -67l-505 -627h477zM489 1456q63 0 86 -23.5
t23 -86.5v-15q0 -63 -22.5 -86.5t-86.5 -23.5h-12q-63 0 -86.5 22.5t-23.5 87.5v15q0 63 23.5 86.5t86.5 23.5h12z" />
    <glyph glyph-name="Zcaron" unicode="&#x17d;" horiz-adv-x="1204" 
d="M1053 1454q39 0 54 -15.5t15 -54.5v-98q0 -45 -22 -74l-709 -972h674q41 0 55.5 -15.5t14.5 -54.5v-100q0 -39 -15.5 -54.5t-54.5 -15.5h-926q-39 0 -54 15.5t-15 54.5v100q0 39 24 72l707 972h-651q-39 0 -54.5 15.5t-15.5 54.5v100q0 39 15.5 54.5t54.5 15.5h903z
M918 1858q37 0 44 -15.5t-14 -36.5l-209 -198q-37 -39 -56 -47.5t-56 -8.5h-25q-47 0 -66.5 8.5t-56.5 47.5l-207 198q-20 20 -14 36t43 16h86q41 0 57.5 -5.5t38.5 -29.5l125 -117l117 117q20 23 39.5 29t60.5 6h93z" />
    <glyph glyph-name="zcaron" unicode="&#x17e;" horiz-adv-x="964" 
d="M842 215q35 0 48 -14.5t13 -48.5v-89q0 -35 -13 -49t-48 -14h-717q-35 0 -49.5 14.5t-14.5 48.5v89q0 39 23 63l502 631h-451q-35 0 -49 14t-14 49v90q0 35 14 48.5t49 13.5h696q35 0 48.5 -13.5t13.5 -48.5v-90q0 -41 -23 -67l-505 -627h477zM756 1456q33 0 39 -14.5
t-13 -32.5l-186 -182q-33 -33 -50.5 -41t-51.5 -8h-23q-41 0 -59.5 7t-51.5 42l-186 182q-18 18 -12 32.5t39 14.5h78q35 0 50 -5t36 -28l110 -106l107 106q31 33 92 33h82z" />
    <glyph glyph-name="longs" unicode="&#x17f;" horiz-adv-x="602" 
d="M205 1083q0 432 469 433q37 0 50 -14t13 -52v-90q0 -37 -13 -51t-50 -15q-125 0 -178 -56t-54 -175v-1000q0 -35 -14 -49t-51 -14h-109q-37 0 -50 14t-13 49v779h-117q-35 0 -49 14t-14 49v94q0 35 14 49t49 13h117v22z" />
    <glyph glyph-name="florin" unicode="&#x192;" horiz-adv-x="944" 
d="M848 1516q37 0 50 -14t13 -52v-90q0 -37 -13 -51t-50 -15q-121 0 -172 -58t-64 -173l-22 -221h211q35 0 49 -14t14 -50v-94q0 -35 -14 -49t-49 -14h-236l-63 -625q-24 -219 -134 -333t-339 -114q-37 1 -51 15t-15 51v90q0 37 14 51t52 15q119 0 170 58t63 175l66 617
h-201q-35 0 -48 14t-13 49v94q0 35 13 49t48 15h223l25 227q23 219 132 333q110 114 341 114z" />
    <glyph glyph-name="Aringacute" unicode="&#x1fa;" horiz-adv-x="1345" 
d="M674 1217h-17q0 -42 -19.5 -133t-39.5 -152l-141 -393h417l-137 391q-38 101 -50.5 192.5t-12.5 94.5zM774 1518q0 43 -27.5 69.5t-73.5 26.5t-75 -26.5t-29 -69.5t30 -70t75 -27t72.5 27t27.5 70zM440 1506q0 99 65.5 163t167 64t166 -63.5t64.5 -164t-82 -149.5
l502 -1288q25 -68 -47 -68h-105q-66 0 -91 12.5t-38 48.5l-96 269h-561l-98 -269q-12 -37 -37 -49t-90 -12h-94q-72 0 -46 68l504 1288q-84 51 -84 150zM752 1972q72 33 108 -2l49 -51q23 -20 21 -31.5t-29 -19.5l-336 -109q-53 -18 -73 2l-27 29q-33 33 18 57z" />
    <glyph glyph-name="aringacute" unicode="&#x1fb;" horiz-adv-x="1062" 
d="M502 436q-111 0 -154 -32.5t-43 -101.5t40 -102.5t162 -33.5t195 16q23 8 23 29v215q-215 10 -223 10zM524 1092q438 0 439 -422v-531q0 -53 -15.5 -75.5t-58.5 -40.5q-123 -53 -376 -53.5t-351.5 80.5t-98.5 257t108 250t357 74q23 0 197 -10v57q0 100 -47 151.5
t-158 51.5q-152 0 -215 -99q-23 -33 -38 -38t-50 8l-82 34q-68 32 -35 93q111 213 424 213zM631 1374q0 45 -28 74t-74 29t-75.5 -29t-29.5 -74t29.5 -72.5t75.5 -27.5t74 27.5t28 72.5zM305 1374q0 96 62.5 157.5t160.5 61.5t160 -61.5t62 -156.5t-61.5 -155.5t-160 -60.5
t-161 59.5t-62.5 155.5zM592 1843q74 31 108 -2l50 -49q23 -20 21.5 -31.5t-30.5 -19.5l-333 -111q-53 -18 -74 2l-27 27q-23 27 -17.5 35t21.5 16z" />
    <glyph glyph-name="AEacute" unicode="&#x1fc;" horiz-adv-x="1757" 
d="M860 516v506l-305 -506h305zM1622 240q39 0 54.5 -15.5t15.5 -54.5v-100q0 -39 -15.5 -54.5t-54.5 -15.5h-692q-39 0 -54.5 15.5t-15.5 54.5v235h-430l-147 -244q-20 -35 -44 -48t-85 -13h-109q-72 0 -47 68l836 1329q23 35 38 46t48 11h679q39 0 54.5 -15.5t15.5 -54.5
v-100q0 -39 -15.5 -54.5t-54.5 -15.5h-491v-358h393q39 0 54.5 -15.5t15.5 -54.5v-100q0 -39 -15.5 -54.5t-54.5 -15.5h-393v-376h514zM1329 1851q76 41 117 -4l51 -65q31 -35 21.5 -48.5t-29.5 -21.5l-356 -149q-59 -23 -80 2l-29 39q-37 45 4 65z" />
    <glyph glyph-name="aeacute" unicode="&#x1fd;" horiz-adv-x="1636" 
d="M305 300q0 -70 34 -102t118 -32q184 0 221 45q-4 33 -4 100v115l-197 10q-100 0 -136 -33t-36 -103zM1329 682q0 209 -208 209t-208 -209v-45h416v45zM674 705q0 86 -40 131t-152 45t-177 -99q-23 -33 -37 -38t-49 10l-82 34q-70 28 -37 91q115 213 400 213
q205 0 303 -113q109 113 325 113t328 -117q111 -117 111 -305v-127q0 -88 -90 -88h-564v-76q0 -205 207 -205q141 0 211 109q25 33 47 38t58 -14l71 -39q68 -35 25 -102q-121 -197 -414 -197q-170 0 -278 78q-138 -78 -364 -78t-318 80t-92 257t99 251t339 74l170 -10v84z
M545 1287q0 13 24 28l301 180q78 43 115 -4l53 -64q43 -51 -8 -71l-356 -150q-61 -23 -80 4l-29 37q-20 27 -20 40z" />
    <glyph glyph-name="Oslashacute" unicode="&#x1fe;" horiz-adv-x="1370" 
d="M703.5 209q140.5 0 225.5 75.5t85 217.5v450q0 51 -21 97l-508 -795q78 -45 218.5 -45zM668.5 1245q-140.5 0 -225.5 -74.5t-85 -218.5v-450q0 -63 25 -109l510 801q-84 51 -224.5 51zM1282 1542q23 0 12 -22l-139 -215q115 -137 115 -355v-446q0 -248 -151.5 -389.5
t-432.5 -145.5q-197 -2 -336 72l-63 -100q-16 -20 -47 -21h-134q-27 0 -12 23l127 198q-121 137 -121 363v446q0 250 153 392.5t433 142.5q201 0 342 -80l74 117q16 20 43 20h137zM758 1872q76 41 116 -4l52 -66q30 -34 21 -47.5t-29 -21.5l-357 -150q-59 -23 -80 2l-28 39
q-37 45 4 66z" />
    <glyph glyph-name="oslashacute" unicode="&#x1ff;" horiz-adv-x="1112" 
d="M575.5 184q92.5 0 154 51.5t61.5 143.5v303q0 39 -21 70l-344 -541q57 -27 149.5 -27zM536.5 877q-94.5 0 -154.5 -50.5t-60 -144.5v-303q0 -39 22 -68l342 541q-55 25 -149.5 25zM985 1130q23 0 10 -22l-82 -131q115 -104 115 -295v-303q0 -193 -123 -301.5t-350 -108.5
q-145 0 -250 49l-43 -69q-16 -20 -45 -21h-92q-25 0 -10 23l86 135q-117 106 -117 293v303q0 193 123 301.5t348 108.5q147 0 252 -48l43 66q14 20 41 20h94zM625 1491q76 45 116 -2l52 -66q47 -53 -9 -69l-356 -150q-57 -25 -80 2l-29 39q-37 45 5 66z" />
    <glyph glyph-name="Scommaaccent" unicode="&#x218;" horiz-adv-x="1296" 
d="M625 -528h-76q-29 0 -37 9t-4 34l41 290q4 39 20.5 53.5t55.5 14.5h108q82 0 60 -68l-97 -276q-10 -33 -25.5 -45t-45.5 -12zM88 1036q0 201 146.5 325t414.5 124q213 0 338 -76t201 -233q31 -63 -39 -95l-113 -49q-35 -14 -52 -7t-36 42q-43 86 -112.5 129t-186.5 43
q-297 0 -297 -188q0 -105 110 -145q84 -31 207.5 -45.5t186 -27t137 -42t121.5 -72.5t80 -118t33 -173q0 -209 -153.5 -334t-407.5 -125t-387.5 85t-198.5 257q-14 39 -4 58.5t47 31.5l113 41q35 12 53 3t35 -46q80 -190 319 -190q326 0 326 213q0 68 -49.5 108.5t-110.5 56
t-147.5 24.5t-128 14.5t-107.5 19.5q-66 15 -106 33q-122 56 -166 123q-66 101 -66 235z" />
    <glyph glyph-name="scommaaccent" unicode="&#x219;" horiz-adv-x="1032" 
d="M492 -457h-62q-31 0 -39 10.5t-4 38.5l35 244q4 43 22.5 58.5t59.5 15.5h88q84 0 55 -74l-76 -233q-12 -35 -28.5 -47.5t-50.5 -12.5zM500 1092q330 0 438 -220q33 -61 -33 -92l-92 -37q-35 -14 -50 -9t-36 38q-59 106 -221 107q-193 0 -193 -111q0 -68 53.5 -91.5
t224.5 -39.5t275.5 -85t104.5 -233t-115 -257t-328 -93q-360 0 -456 248q-25 63 41 86l92 29q31 12 50 4t34 -43q47 -113 231 -113q217 0 217 121q0 68 -54 92.5t-158.5 35.5t-154.5 21q-135 25 -213.5 93.5t-78.5 219.5t107.5 240t314.5 89z" />
    <glyph glyph-name="uni021A" unicode="&#x21a;" horiz-adv-x="1159" 
d="M537 -526h-76q-27 0 -36 9t-5 36l41 291q4 39 20.5 52t55.5 13h108q84 0 60 -65l-95 -277q-10 -33 -26.5 -46t-46.5 -13zM1061 1454q39 0 54 -15.5t15 -54.5v-100q0 -39 -15 -54.5t-54 -15.5h-352v-1144q0 -39 -15.5 -54.5t-54.5 -15.5h-119q-39 0 -54 15.5t-15 54.5
v1144h-353q-39 0 -54 15.5t-15 54.5v100q0 39 15 54.5t54 15.5h963z" />
    <glyph glyph-name="uni021B" unicode="&#x21b;" horiz-adv-x="796" 
d="M426 -526h-76q-29 0 -37 9t-4 36l41 291q4 39 20 52t56 13h109q82 0 59 -65l-96 -277q-16 -59 -72 -59zM395 1307q35 1 49 -13t15 -49v-184h233q35 0 49 -13t15 -49v-94q0 -35 -14 -49t-50 -14h-233v-412q0 -145 48 -190t183 -45q37 1 51 -13t15 -51v-94q0 -37 -14 -50
t-52 -16q-258 -8 -363 90t-106 361v420h-141q-35 0 -48 14t-14 49v94q0 35 14 49t48 13h141v184q1 35 15 48t49 14h110z" />
    <glyph glyph-name="dotlessj" unicode="&#x237;" horiz-adv-x="477" 
d="M293 1061q37 0 50 -13.5t13 -48.5v-1013q0 -457 -467 -457q-37 0 -51 14.5t-14 50.5v91q0 37 14.5 51t50.5 14q123 0 176.5 61.5t53.5 180.5v1007q0 35 14 48.5t51 13.5h109z" />
    <glyph glyph-name="circumflex" unicode="&#x2c6;" horiz-adv-x="806" 
d="M416 1503q37 0 56 -8t56 -47l209 -201q20 -18 14 -35q-7 -16 -44 -16h-93q-68 0 -100 37l-119 117l-123 -117q-23 -25 -39 -31t-57 -6h-86q-37 0 -44 16t15 35l207 201q40 39 58 47t65 8h25z" />
    <glyph glyph-name="caron" unicode="&#x2c7;" horiz-adv-x="679" 
d="M643 1499q37 0 44 -15t-13 -36l-207 -199q-39 -39 -57 -47t-58 -8h-24q-46 0 -66 8t-55 47l-209 199q-20 20 -14 36t43 15h86q41 0 57 -5t41 -30l123 -116l117 116q20 23 39 29t63 6h90z" />
    <glyph glyph-name="breve" unicode="&#x2d8;" horiz-adv-x="587" 
d="M284 1198q-116 0 -200 55t-117 156q-14 41 29 57l80 33q47 14 63 -22q35 -107 144 -107t143 107q14 35 53 24l94 -35q41 -18 29 -57q-35 -99 -119 -155q-83 -56 -199 -56z" />
    <glyph glyph-name="dotaccent" unicode="&#x2d9;" horiz-adv-x="442" 
d="M227 1458q63 0 87 -22t24 -86v-17q0 -63 -24 -87t-87 -23h-12q-63 -1 -87 23t-24 87v17q0 63 24 86t87 22h12z" />
    <glyph glyph-name="ring" unicode="&#x2da;" horiz-adv-x="491" 
d="M350 1356q0 44 -28 72t-73 28q-46 0 -76 -28t-30 -72t30 -73q30 -28 76 -28t74 28q27 28 27 73zM25 1356q0 96 62 157q63 61 161 61t160 -60q62 -62 61 -157q0 -95 -61 -155q-62 -60 -160 -61q-98 0 -161 59q-62 60 -62 156z" />
    <glyph glyph-name="ogonek" unicode="&#x2db;" horiz-adv-x="516" 
d="M316 -328q38 0 59 21q29 18 39 -12l28 -66q14 -27 -2 -43q-78 -74 -194 -74q-158 0 -183 123q-16 80 31 180t152 199h153q-75 -94 -109 -170t-23 -117t49 -41z" />
    <glyph glyph-name="tilde" unicode="&#x2dc;" horiz-adv-x="624" 
d="M588 1485q39 0 39 -39q0 -123 -41 -175t-122 -52t-159 58t-115 58q-49 0 -49 -78q0 -39 -37 -38h-67q-39 0 -39 38q0 123 42 175t124 53q82 -1 160 -59t112 -58q49 0 49 78q0 39 37 39h66z" />
    <glyph glyph-name="hungarumlaut" unicode="&#x2dd;" horiz-adv-x="808" 
d="M598 1456q45 61 107 43l75 -24q74 -27 21 -70l-230 -197q-43 -37 -73 -26l-35 12q-57 16 -21 63zM250 1456q43 61 106 43l72 -24q63 -23 21 -70l-209 -188q-45 -37 -76 -27l-33 10q-51 16 -22 64z" />
    <glyph glyph-name="uni0326" unicode="&#x326;" horiz-adv-x="0" 
d="M242 -526h-78q-27 0 -36 9t-5 36l43 291q2 39 18.5 52t55.5 13h108q84 0 60 -65l-95 -277q-10 -33 -25.5 -46t-45.5 -13z" />
    <glyph glyph-name="pi" unicode="&#x3c0;" horiz-adv-x="1316" 
d="M1200 1061q35 0 49 -13t15 -49v-92q0 -35 -14 -49t-50 -14h-63v-537q0 -98 34 -171t-32 -97l-92 -37q-35 -16 -55 -9q-19 7 -34 42q-59 121 -59 282v527h-397v-781q0 -35 -14 -49t-50 -14h-112q-35 0 -48 14t-14 49v781q-54 -2 -122 -33t-89 23l-37 90q-27 55 31 82
q119 55 295 55h858z" />
    <glyph glyph-name="uni0401" unicode="&#x401;" horiz-adv-x="1185" 
d="M1026 1454q39 0 55.5 -15.5t16.5 -54.5v-100q0 -39 -16.5 -54.5t-55.5 -15.5h-627v-358h531q39 0 54 -15.5t15 -54.5v-100q0 -39 -15 -54.5t-54 -15.5h-531v-376h650q39 0 54 -15.5t15 -54.5v-100q0 -39 -15.5 -54.5t-53.5 -15.5h-836q-39 0 -55.5 15.5t-16.5 54.5v1314
q0 39 16.5 54.5t55.5 15.5h813zM836 1804q61 0 84.5 -23.5t23.5 -82.5v-21q0 -59 -23.5 -82.5t-84.5 -23.5h-13q-61 0 -84.5 23.5t-23.5 82.5v21q0 59 23.5 82.5t84.5 23.5h13zM426 1804q61 0 85 -23.5t24 -82.5v-21q0 -59 -24 -82.5t-85 -23.5h-14q-61 0 -84 23.5t-23 82.5
v21q0 59 22.5 82.5t84.5 23.5h14z" />
    <glyph glyph-name="uni0410" unicode="&#x410;" horiz-adv-x="1347" 
d="M659 1219q0 -117 -45 -248l-157 -434h422l-156 432q-34 105 -47 215l-2 35h-15zM1278 0h-107q-63 0 -88.5 12.5t-38.5 48.5l-94 265h-565l-96 -265q-12 -37 -38 -49t-89 -12h-94q-72 0 -48 68l512 1331q14 35 32 46t54 11h109q37 0 55.5 -11t30.5 -44l512 -1333
q25 -68 -47 -68z" />
    <glyph glyph-name="uni0411" unicode="&#x411;" horiz-adv-x="1298" 
d="M971 444q1 94 -55 150t-154 55h-363v-409h363q98 0 154 55t55 149zM1069 1454q39 0 54 -15t16 -55v-100q1 -39 -15 -54t-55 -16h-670v-325h389q207 0 330 -119t123 -326q0 -208 -123 -326t-330 -118h-577q-37 0 -53 14t-17 52v1318q1 38 17 54t55 16h856z" />
    <glyph glyph-name="uni0412" unicode="&#x412;" horiz-adv-x="1331" 
d="M981 428q0 193 -195 193h-387v-381h387q195 0 195 188zM938 1034q0 180 -188 180h-351v-360h351q188 0 188 180zM780 1454q199 0 310 -99t110 -284q0 -217 -156 -309v-8q209 -74 209 -355q0 -187 -127 -293t-333 -106h-580q-39 0 -55 15t-17 55v1314q1 38 17 54t55 16
h567z" />
    <glyph glyph-name="uni0413" unicode="&#x413;" horiz-adv-x="1062" 
d="M965 1454q39 0 54 -15t15 -55v-100q0 -39 -15 -54t-54 -16h-566v-1144q0 -38 -15 -54t-54 -16h-117q-39 0 -55 15t-17 55v1314q1 38 17 54t55 16h752z" />
    <glyph glyph-name="uni0414" unicode="&#x414;" horiz-adv-x="1513" 
d="M592 1214v-251q0 -508 -137 -723h587v974h-450zM1229 1454q39 0 55 -15t16 -55v-1144h107q39 0 54 -16t16 -54v-414q1 -39 -15 -54t-55 -15h-113q-39 0 -54 15t-15 54v244h-936v-244q1 -39 -15 -54t-55 -15h-110q-39 0 -55 15q-15 15 -15 54v414q0 39 15 54t55 16h47
q40 28 68 66t58 116q62 161 62 539v423q0 38 15 54t55 16h815z" />
    <glyph glyph-name="uni0415" unicode="&#x415;" horiz-adv-x="1185" 
d="M1026 1454q39 0 55.5 -15.5t16.5 -54.5v-100q0 -39 -16.5 -54.5t-55.5 -15.5h-627v-358h531q39 0 54 -15.5t15 -54.5v-100q0 -39 -15 -54.5t-54 -15.5h-531v-376h650q39 0 54 -15.5t15 -54.5v-100q0 -39 -15.5 -54.5t-53.5 -15.5h-836q-39 0 -55.5 15.5t-16.5 54.5v1314
q0 39 16.5 54.5t55.5 15.5h813z" />
    <glyph glyph-name="uni0416" unicode="&#x416;" horiz-adv-x="1927" 
d="M1831 1454q37 0 46 -20t-11 -48l-410 -610q98 -61 174 -207l258 -499q18 -30 10 -50t-45 -20h-118q-66 0 -94 12t-46 49l-204 416q-43 84 -93 114t-153 30h-53v-551q0 -38 -16 -54t-54 -16h-117q-39 0 -54 15t-15 55v551h-54q-104 0 -153 -30t-92 -114l-205 -416
q-18 -37 -46 -49t-93 -12h-119q-37 0 -45 20t10 50l260 499q72 143 172 207l-410 610q-18 28 -9 48t44 20h131q63 0 89 -10t51 -47l346 -545q27 2 69 2h54v530q0 38 15 54t54 16h117q39 0 54 -15t16 -55v-530h53q47 0 69 -2l347 545q25 37 51 47t90 10h129z" />
    <glyph glyph-name="uni0417" unicode="&#x417;" horiz-adv-x="1300" 
d="M680 1485q240 1 367 -109t127 -319t-164 -299q209 -90 209 -352q-1 -207 -135 -322t-404 -115q-489 0 -610 344q-25 66 43 90l112 39q37 12 55 3t33 -46q35 -98 119 -144t248 -46q268 0 268 209q0 96 -51 150t-149 55h-287q-39 0 -54 15t-16 54v92q-1 38 15 54t55 16h256
q94 0 144 51t50 142q0 199 -247 198q-150 0 -227 -45t-111 -143q-14 -37 -32 -46t-56 3l-113 39q-68 25 -43 90q121 342 598 342z" />
    <glyph glyph-name="uni0418" unicode="&#x418;" horiz-adv-x="1433" 
d="M1221 1454q39 0 54 -15t15 -55v-1314q0 -38 -15 -54t-54 -16h-117q-39 0 -54 15t-16 55v600q0 156 9 238t40 231h-8q-70 -178 -205 -389l-469 -715q-20 -35 -69 -35h-119q-39 0 -55 15t-17 55v1314q1 38 17 54t55 16h117q39 0 54 -15t15 -55v-593q0 -156 -9 -242
t-40 -234h8q76 195 213 406l461 700q23 33 68 33h121z" />
    <glyph glyph-name="uni0419" unicode="&#x419;" horiz-adv-x="1433" 
d="M1221 1454q39 0 54 -15t15 -55v-1314q0 -38 -15 -54t-54 -16h-117q-39 0 -54 15t-16 55v600q0 156 9 238t40 231h-8q-70 -178 -205 -389l-469 -715q-20 -35 -69 -35h-119q-39 0 -55 15t-17 55v1314q1 38 17 54t55 16h117q39 0 54 -15t15 -55v-593q0 -156 -9 -242
t-40 -234h8q76 195 213 406l461 700q23 33 68 33h121zM1079 1774q-41 -102 -133 -160t-223 -58t-223 58t-129 160q-16 45 30 61l91 33q53 14 71 -23q39 -111 160 -111t160 111q18 35 59 25l105 -35q27 -10 33 -22t-1 -39z" />
    <glyph glyph-name="uni041A" unicode="&#x41a;" horiz-adv-x="1284" 
d="M1212 0h-118q-68 0 -94.5 11.5t-45.5 49.5l-206 416q-43 84 -91.5 114t-152.5 30h-105v-551q0 -39 -15 -54.5t-54 -15.5h-117q-39 0 -55.5 15.5t-16.5 54.5v1314q0 39 16.5 54.5t55.5 15.5h117q39 0 54 -15.5t15 -54.5v-530h109l412 543q27 37 52 47t87 10h131
q35 0 44 -20.5t-11 -47.5l-457 -583q131 -57 221 -234l260 -499q37 -70 -35 -70z" />
    <glyph glyph-name="uni041B" unicode="&#x41b;" horiz-adv-x="1382" 
d="M1171 1454q39 0 55 -15t15 -55v-1314q0 -38 -15 -54t-55 -16h-118q-39 0 -55 15q-15 15 -15 55v1144h-434v-266q0 -577 -166 -794q-55 -72 -103 -105t-100 -58t-75 -19q-22 6 -35 42l-54 103q-31 63 33 94q43 21 69 39t64 70q114 156 115 628v436q0 38 16 54t56 16h802z
" />
    <glyph glyph-name="uni041C" unicode="&#x41c;" horiz-adv-x="1660" 
d="M1448 1454q39 0 54 -15t16 -55v-1314q0 -38 -16 -54t-54 -16h-105q-39 0 -54 15t-15 55v624q0 184 49 408h-14q-59 -178 -168 -375l-201 -354q-31 -49 -80 -49h-65q-33 0 -49 9q-15 9 -31 40l-205 356q-94 160 -158 373h-14q43 -209 43 -410v-622q0 -38 -15 -54t-55 -16
h-98q-39 0 -55 15t-17 55v1314q1 38 17 54t55 16h90q43 0 63 -10t35 -43l426 -762l426 760q17 35 35 45t60 10h100z" />
    <glyph glyph-name="uni041D" unicode="&#x41d;" horiz-adv-x="1404" 
d="M1192 1454q39 0 55.5 -15.5t16.5 -54.5v-1314q0 -39 -16.5 -54.5t-55.5 -15.5h-117q-39 0 -54 15.5t-15 54.5v546h-607v-546q0 -39 -15 -54.5t-54 -15.5h-117q-39 0 -55.5 15.5t-16.5 54.5v1314q0 39 16.5 54.5t55.5 15.5h117q39 0 54 -15.5t15 -54.5v-528h607v528
q0 39 15 54.5t54 15.5h117z" />
    <glyph glyph-name="uni041E" unicode="&#x41e;" horiz-adv-x="1370" 
d="M1014 952q0 141 -85 217t-243 76t-243 -74.5t-85 -218.5v-450q0 -143 85 -218t243 -75t243 75.5t85 217.5v450zM100 950q0 250 153 392.5t433 142.5t432 -142.5t152 -392.5v-446q0 -250 -152.5 -392.5t-432.5 -142.5t-432.5 142.5t-152.5 392.5v446z" />
    <glyph glyph-name="uni041F" unicode="&#x41f;" horiz-adv-x="1394" 
d="M1182 1454q39 0 54 -15t15 -55v-1314q0 -38 -15 -54t-54 -16h-117q-39 0 -54 15t-16 55v1144h-596v-1144q0 -38 -15 -54t-54 -16h-117q-39 0 -55 15t-17 55v1314q1 38 17 54t55 16h969z" />
    <glyph glyph-name="uni0420" unicode="&#x420;" horiz-adv-x="1294" 
d="M731 745q113 -1 175 61t63 173q-1 111 -63 173t-175 62h-332v-469h332zM756 1454q223 0 353 -127t130 -348t-130 -347t-353 -126h-357v-436q0 -38 -15 -54t-54 -16h-117q-39 0 -55 15t-17 55v1314q1 38 17 54t55 16h543z" />
    <glyph glyph-name="uni0421" unicode="&#x421;" horiz-adv-x="1310" 
d="M100 952q0 248 153 390.5t433 142.5q436 0 557 -342q25 -66 -43 -90l-113 -39q-37 -12 -55 -3t-33 46q-68 188 -313 188q-158 0 -243 -74.5t-85 -216.5v-452q0 -141 85 -217t243 -76q244 0 313 190q16 39 35 48.5t56 -5.5l110 -39q68 -25 45 -90q-121 -344 -559 -344
q-281 0 -433.5 142.5t-152.5 392.5v448z" />
    <glyph glyph-name="uni0422" unicode="&#x422;" horiz-adv-x="1159" 
d="M1061 1454q39 0 54 -15.5t15 -54.5v-100q0 -39 -15 -54.5t-54 -15.5h-352v-1144q0 -39 -15.5 -54.5t-54.5 -15.5h-119q-39 0 -54 15.5t-15 54.5v1144h-353q-39 0 -54 15.5t-15 54.5v100q0 39 15 54.5t54 15.5h963z" />
    <glyph glyph-name="uni0423" unicode="&#x423;" horiz-adv-x="1255" 
d="M1198 1454q63 0 35 -70l-610 -1323q-16 -39 -38 -50t-77 -11h-139q-70 0 -35 70l178 356l-496 958q-37 70 35 70h121q50 0 68 -2q41 -4 67 -59l338 -680l309 680q18 43 38 52t87 9h119z" />
    <glyph glyph-name="uni0424" unicode="&#x424;" horiz-adv-x="1712" 
d="M1386 821q0 279 -294 279h-107v-735h107q295 0 294 278v178zM621 1100q-295 0 -295 -279v-178q0 -279 295 -278h106v735h-106zM913 1505q39 0 55 -15t17 -54v-105h107q268 0 410 -137t143 -383v-158q-1 -246 -143 -383t-410 -137h-107v-104q0 -39 -16 -55t-56 -15h-116
q-39 0 -55 15q-15 15 -15 55v104h-106q-268 0 -411 137q-142 137 -142 383v158q0 246 142 383t411 137h106v105q0 39 15 54t55 15h116z" />
    <glyph glyph-name="uni0425" unicode="&#x425;" horiz-adv-x="1306" 
d="M1237 0h-143q-63 0 -88 10t-50 51l-313 482l-301 -482q-30 -41 -52 -51t-83 -10h-133q-39 0 -47 22t12 50l450 669l-434 648q-20 25 -11 45t46 20h137q61 0 84 -10t51 -47l293 -453l293 453q28 37 50 47t79 10h142q35 0 44 -20t-12 -45l-438 -646l457 -671q24 -28 14 -50
t-47 -22z" />
    <glyph glyph-name="uni0426" unicode="&#x426;" horiz-adv-x="1454" 
d="M1346 240q39 0 54 -16t15 -54v-414q0 -39 -15 -54t-54 -15h-109q-39 0 -54 15t-16 54v244h-954q-39 0 -55 15t-17 55v1314q1 38 17 54t55 16h117q39 0 54 -15t15 -55v-1144h586v1144q0 38 15 54t55 16h116q39 0 55 -15t17 -55v-1144h103z" />
    <glyph glyph-name="uni0427" unicode="&#x427;" horiz-adv-x="1314" 
d="M1102 1454q39 0 54 -15t15 -55v-1314q0 -38 -15 -54t-54 -16h-117q-39 0 -54 15t-16 55v487q-121 -27 -307 -27q-278 0 -406 127t-128 375v352q0 38 16 54t55 16h117q39 0 54 -15t16 -55v-352q0 -264 289 -264q156 0 294 33v583q-1 38 15 54t55 16h117z" />
    <glyph glyph-name="uni0428" unicode="&#x428;" horiz-adv-x="1898" 
d="M1686 1454q39 0 54 -15t15 -55v-1314q0 -38 -15 -54t-54 -16h-1473q-39 0 -55 15t-17 55v1314q1 38 17 54t55 16h117q39 0 54 -15t15 -55v-1144h422v1144q-1 38 15 54t55 16h117q39 0 54 -15t15 -55v-1144h422v1144q0 38 15 54t55 16h117z" />
    <glyph glyph-name="uni0429" unicode="&#x429;" horiz-adv-x="1970" 
d="M1860 240q39 0 54 -16t15 -54v-414q0 -39 -15 -54t-54 -15h-109q-39 0 -54 15t-16 54v244h-1468q-39 0 -55 15t-17 55v1314q1 38 17 54t55 16h117q39 0 54 -15t15 -55v-1144h422v1144q-1 38 15 54t55 16h117q39 0 54 -15t15 -55v-1144h422v1144q0 38 15 54t55 16h117
q39 0 54 -15t15 -55v-1144h105z" />
    <glyph glyph-name="uni042A" unicode="&#x42a;" horiz-adv-x="1523" 
d="M961 240q113 0 175 62t62 173t-62 172t-175 62h-332v-469h332zM985 948q223 0 352 -126t129 -347t-129 -348t-352 -127h-545q-39 0 -54 15t-15 55v1144h-271q-39 0 -54 16t-15 54v100q0 38 15 54t54 16h459q39 0 54 -15t16 -55v-436h356z" />
    <glyph glyph-name="uni042B" unicode="&#x42b;" horiz-adv-x="1853" 
d="M399 709v-469h332q113 0 175.5 62.5t62.5 173t-62.5 172t-175.5 61.5h-332zM1456 1384q0 39 15.5 54.5t54.5 15.5h116q39 0 54.5 -15.5t15.5 -54.5v-1314q0 -39 -15.5 -54.5t-54.5 -15.5h-116q-39 0 -54.5 15.5t-15.5 54.5v1314zM213 0q-39 0 -55.5 15.5t-16.5 54.5v1314
q0 39 16.5 54.5t55.5 15.5h117q39 0 54 -15.5t15 -54.5v-436h357q223 0 353 -126t130 -347t-130 -348t-353 -127h-543z" />
    <glyph glyph-name="uni042C" unicode="&#x42c;" horiz-adv-x="1294" 
d="M399 709v-469h332q113 0 175 62t63 173q-1 111 -63 172t-175 62h-332zM213 0q-39 0 -55 15t-17 55v1314q1 38 17 54t55 16h117q39 0 54 -15t15 -55v-436h357q223 0 353 -126t130 -347t-130 -348t-353 -127h-543z" />
    <glyph glyph-name="uni042D" unicode="&#x42d;" horiz-adv-x="1318" 
d="M635 1485q279 -1 431 -143t153 -390v-450q0 -248 -153 -390t-431 -143q-438 0 -559 344q-25 66 43 90l112 39q63 25 88 -43q68 -190 316 -190q158 0 243 75t85 216v116h-498q-39 0 -54 16t-16 54v100q-1 38 15 54t55 16h498v98q0 141 -85 216t-243 75q-246 0 -313 -188
q-14 -37 -32 -46t-59 3l-110 39q-68 24 -45 90q121 342 559 342z" />
    <glyph glyph-name="uni042E" unicode="&#x42e;" horiz-adv-x="1923" 
d="M1565 952q0 143 -81 218t-233 75q-153 0 -233 -75t-80 -218v-450q0 -143 81 -218t233 -75t232 75q81 75 81 218v450zM682 952q0 250 148 391t420 141t423 -142q150 -142 150 -390v-450q0 -248 -150 -390t-422 -142q-273 0 -421 140q-148 142 -148 392v114h-283v-546
q0 -38 -15 -54t-54 -16h-117q-39 0 -55 15t-17 55v1314q1 38 17 54t55 16h117q39 0 54 -15t15 -55v-528h283v96z" />
    <glyph glyph-name="uni042F" unicode="&#x42f;" horiz-adv-x="1329" 
d="M575 1214q-104 0 -159 -54q-56 -54 -56 -156t56 -156t159 -55h355v421h-355zM92 1004q0 210 122 330t337 120h567q39 0 54 -15t16 -55v-1314q0 -38 -16 -54t-54 -16h-119q-39 0 -54 15t-15 55v483h-158q-106 0 -156 -29t-88 -114l-155 -349q-16 -39 -44 -50t-96 -11h-118
q-68 0 -35 70l209 432q29 59 63 90q-260 93 -260 412z" />
    <glyph glyph-name="uni0430" unicode="&#x430;" horiz-adv-x="1062" 
d="M502 436q-111 0 -154 -32.5t-43 -101.5t40 -102.5t162 -33.5t195 16q23 8 23 29v215q-215 10 -223 10zM524 1092q438 0 439 -422v-531q0 -53 -15.5 -75.5t-58.5 -40.5q-123 -53 -376 -53.5t-351.5 80.5t-98.5 257t108 250t357 74q23 0 197 -10v57q0 100 -47 151.5
t-158 51.5q-152 0 -215 -99q-23 -33 -38 -38t-50 8l-82 34q-68 32 -35 93q111 213 424 213z" />
    <glyph glyph-name="uni0431" unicode="&#x431;" horiz-adv-x="1136" 
d="M815 616q0 203 -233 203q-111 0 -170 -51t-64 -131v-250q0 -98 60 -150q60 -53 174 -53q115 0 174 52t59 151v229zM737 1495q94 0 144 23q63 33 90 -41l28 -80q10 -37 2 -55t-57 -42q-49 -26 -203 -26h-67q-201 0 -273 -73t-71 -261v-33q84 127 292 127t320 -112
t113 -306v-231q0 -197 -122 -307t-351 -109q-229 0 -352 110q-122 110 -121 306v489q0 326 127 474t436 147h65z" />
    <glyph glyph-name="uni0432" unicode="&#x432;" horiz-adv-x="1095" 
d="M653 201q57 -1 91 33t34 90t-34 89q-34 32 -93 31h-295v-243h297zM633 639q53 0 84 31t31 81q0 49 -31 79t-86 30h-275v-221h277zM672 1061q150 0 232 -80t81 -218q0 -138 -98 -210q139 -80 139 -252q0 -137 -88 -219t-238 -82h-518q-37 0 -50 14t-13 49v934q0 37 13 51
t50 13h490z" />
    <glyph glyph-name="uni0433" unicode="&#x433;" horiz-adv-x="878" 
d="M788 1061q36 0 50 -13t14 -49v-94q0 -35 -14 -49t-50 -14h-432v-779q0 -35 -14 -49t-49 -14h-113q-35 0 -48 14t-13 49v936q0 35 13 49t48 13h608z" />
    <glyph glyph-name="uni0434" unicode="&#x434;" horiz-adv-x="1267" 
d="M508 684q0 -313 -84 -463h416v621h-332v-158zM1171 221q35 0 49 -14t15 -51v-377q0 -35 -14 -49t-50 -15h-102q-35 1 -50 15t-15 49v221h-730v-221q0 -35 -14 -49t-49 -15h-105q-35 1 -48 15t-13 49v377q0 37 13 51t48 14h46q127 98 127 479v299q0 35 13 49t48 13h674
q35 0 49 -13t14 -49v-778h94z" />
    <glyph glyph-name="uni0435" unicode="&#x435;" horiz-adv-x="1099" 
d="M793 682q0 100 -59.5 154.5t-175.5 54.5t-177.5 -54.5t-61.5 -154.5v-45h474v45zM82 649q0 215 122 329t354 114t352 -119t120 -305v-125q0 -88 -92 -88h-619v-76q0 -100 60.5 -152.5t173.5 -52.5q172 0 242 109q25 35 46 40t58 -16l72 -39q70 -33 24 -102
q-121 -197 -442 -197q-240 0 -355.5 119t-115.5 320v241z" />
    <glyph glyph-name="uni0436" unicode="&#x436;" horiz-adv-x="1538" 
d="M821 1061q39 0 53 -13t15 -51v-346h86l231 363q20 33 43 40t80 7h101q90 0 40 -74l-280 -401q63 -41 121 -152l178 -358q20 -40 12 -58t-53 -18h-102q-53 0 -74 10q-20 10 -37 47l-127 273q-43 100 -162 100h-57v-364q-1 -38 -15 -52t-53 -14h-104q-39 0 -52 14t-14 52
v364h-59q-117 0 -162 -100l-127 -273q-15 -37 -35 -47t-73 -10h-105q-45 0 -53 17t12 59l180 358q53 106 119 152l-280 401q-49 74 41 74h100q57 0 80 -7t43 -40l233 -363h86v346q-1 37 13 51t53 13h104z" />
    <glyph glyph-name="uni0437" unicode="&#x437;" horiz-adv-x="1056" 
d="M532 1092q426 0 426 -322q0 -168 -120 -217v-10q145 -61 145 -250q0 -324 -444 -324q-193 0 -313 77t-169 194q-29 72 45 92l91 26q39 12 57 4t33 -45q59 -139 258 -139t198 139q0 57 -33 90q-34 32 -100 31h-196q-36 0 -50 14t-14 50v67q0 37 14 51t50 13h180
q59 0 94 30t35 82q0 137 -187 138q-94 0 -152 -41t-76 -86q-18 -44 -38 -54t-57 3l-92 28q-68 22 -43 92q37 106 154 187q118 80 304 80z" />
    <glyph glyph-name="uni0438" unicode="&#x438;" horiz-adv-x="1150" 
d="M293 1061q35 0 49 -13t14 -49v-391q0 -145 -43 -299h6q41 98 115 207l363 514q23 31 61 31h113q35 0 48 -13t13 -49v-936q0 -35 -13 -49t-48 -14h-113q-35 0 -49 14t-14 49v386q0 143 45 301h-6q-33 -80 -119 -207l-359 -510q-25 -33 -63 -33h-113q-35 0 -48 14t-13 49
v936q0 35 13 49t48 13h113z" />
    <glyph glyph-name="uni0439" unicode="&#x439;" horiz-adv-x="1150" 
d="M293 1061q35 0 49 -13t14 -49v-391q0 -145 -43 -299h6q41 98 115 207l363 514q23 31 61 31h113q35 0 48 -13t13 -49v-936q0 -35 -13 -49t-48 -14h-113q-35 0 -49 14t-14 49v386q0 143 45 301h-6q-33 -80 -119 -207l-359 -510q-25 -33 -63 -33h-113q-35 0 -48 14t-13 49
v936q0 35 13 49t48 13h113zM588 1198q-116 0 -199 55q-84 55 -117 156q-14 41 29 57l80 33q47 14 63 -22q35 -107 144 -107t143 107q14 35 53 24l95 -35q25 -10 29 -22t-3 -35q-35 -99 -118 -155t-199 -56z" />
    <glyph glyph-name="uni043A" unicode="&#x43a;" horiz-adv-x="1073" 
d="M987 0h-102q-53 0 -73 10q-19 10 -38 47l-127 273q-25 55 -61 78q-37 23 -101 22h-129v-364q0 -38 -14 -52t-53 -14h-105q-39 0 -52 14t-13 52v931q0 37 13 51t52 13h105q39 0 53 -13t14 -51v-346h113l276 363q23 33 45 40t78 7h101q98 0 41 -74l-308 -383
q82 -41 148 -170l178 -358q20 -40 12 -58t-53 -18z" />
    <glyph glyph-name="uni043B" unicode="&#x43b;" horiz-adv-x="1112" 
d="M930 1061q35 0 49 -13t14 -49v-936q0 -35 -14 -49t-49 -14h-111q-35 0 -49 14t-14 49v779h-312v-162q0 -371 -98 -521q-49 -75 -94 -113q-46 -38 -104 -65t-85 29l-53 107q-24 47 20 70t68 43q77 64 100 220q15 99 15 244v305q0 35 14 49t49 13h654z" />
    <glyph glyph-name="uni043C" unicode="&#x43c;" horiz-adv-x="1314" 
d="M1128 1061q42 0 56 -14t14 -54v-930q0 -37 -14 -50t-49 -13h-97q-39 0 -51 12t-12 51v371q0 113 43 303h-8q-45 -129 -105 -227l-143 -250q-18 -29 -32 -38t-46 -9h-57q-31 0 -46 9t-32 40l-143 246q-57 98 -103 231h-8q41 -205 41 -311v-365q0 -37 -13 -50t-49 -13h-92
q-39 0 -51 12t-12 51v930q0 39 13 53t56 15h82q38 0 56 -10t34 -41l297 -533l293 531q18 33 34 43t54 10h90z" />
    <glyph glyph-name="uni043D" unicode="&#x43d;" horiz-adv-x="1140" 
d="M961 1061q35 0 48 -13t13 -49v-936q0 -35 -13 -49t-48 -14h-113q-35 0 -49 14t-15 49v367h-428v-367q0 -35 -14 -49t-49 -14h-113q-35 0 -48 14t-13 49v936q0 35 13 49t48 13h113q35 0 49 -13t14 -49v-348h428v348q0 35 14 49t50 13h113z" />
    <glyph glyph-name="uni043E" unicode="&#x43e;" horiz-adv-x="1112" 
d="M791 682q0 94 -61.5 144.5t-174.5 50.5t-173 -50.5t-60 -144.5v-303q0 -92 60 -143.5t173 -51.5t174.5 51.5t61.5 143.5v303zM84 682q0 193 123 301.5t349 108.5t349 -109t123 -301v-303q0 -193 -123 -301.5t-349 -108.5t-349 108.5t-123 301.5v303z" />
    <glyph glyph-name="uni043F" unicode="&#x43f;" 
d="M950 1061q37 0 50 -13t14 -49v-936q0 -35 -14 -49t-50 -14h-110q-35 0 -49 14t-15 49v779h-420v-779q0 -35 -14 -49t-49 -14h-113q-35 0 -48 14t-13 49v936q0 35 13 49t48 13h770z" />
    <glyph glyph-name="uni0440" unicode="&#x440;" horiz-adv-x="1110" 
d="M786 672q0 203 -229 202q-104 0 -184 -22q-20 -8 -21 -27v-608q119 -31 199 -31q236 0 235 220v266zM1024 678v-281q0 -428 -457 -428q-74 0 -215 37v-393q0 -35 -13 -49t-48 -15h-113q-35 1 -49 15t-14 49v1302q0 49 15 73q16 24 65 44q162 60 388 60q441 0 441 -414z
" />
    <glyph glyph-name="uni0441" unicode="&#x441;" horiz-adv-x="1058" 
d="M84 672q0 201 117.5 310.5t353.5 109.5q174 0 285.5 -74t152.5 -195q12 -39 2 -58.5t-47 -33.5l-90 -29q-37 -14 -56.5 -3.5t-33.5 46.5q-53 137 -223 138q-223 0 -223 -201v-303q0 -96 57 -148.5t166 -52.5q170 0 223 141q14 37 33.5 45.5t56.5 -4.5l92 -26
q70 -27 43 -92q-106 -272 -456 -273q-227 0 -340 109.5t-113 310.5v283z" />
    <glyph glyph-name="uni0442" unicode="&#x442;" horiz-adv-x="952" 
d="M862 1061q35 0 49 -13t15 -49v-94q0 -35 -14 -49t-50 -14h-266v-779q0 -35 -14 -49t-50 -14h-110q-35 0 -49 14t-15 49v779h-268q-35 0 -49 14t-14 49v94q0 35 14 49t49 13h772z" />
    <glyph glyph-name="uni0443" unicode="&#x443;" horiz-adv-x="1136" 
d="M954 1061q35 0 49.5 -13.5t14.5 -48.5v-1034q0 -211 -109.5 -328.5t-341.5 -117.5q-305 0 -426 196q-43 68 27 103l78 43q37 18 58.5 13t43.5 -38q66 -104 215 -104q217 0 217 221v96q-127 -29 -243 -29q-215 0 -321.5 106.5t-106.5 305.5v567q0 35 14 48.5t49 13.5h113
q35 0 48 -13.5t13 -48.5v-559q0 -203 223 -202q100 0 211 28v733q0 35 14.5 48.5t49.5 13.5h110z" />
    <glyph glyph-name="uni0444" unicode="&#x444;" horiz-adv-x="1517" 
d="M1198 635q0 240 -229 239q-33 0 -99 -4v-677q49 -6 99 -7q229 0 229 240v209zM319 426q0 -240 230 -240q49 0 98 7v677q-66 4 -98 4q-229 0 -230 -243v-205zM1436 641v-221q0 -225 -116 -338t-335 -113q-59 0 -106 8v-364q-1 -35 -15 -49t-49 -15h-113q-35 1 -48 15
t-13 49v364q-47 -8 -109 -8q-218 0 -334 113t-116 338v219q0 225 116 339t334 114q57 0 109 -7v365q0 35 13 49t48 14h113q35 0 49 -14t15 -49v-365q53 6 106 7q451 0 451 -451z" />
    <glyph glyph-name="uni0445" unicode="&#x445;" horiz-adv-x="1040" 
d="M932 1061q92 0 43 -74l-307 -440l327 -473q53 -74 -45 -74h-98q-51 0 -72 9q-20 9 -43 44l-221 322l-211 -322q-23 -35 -43 -44t-72 -9h-96q-55 0 -65 18t18 56l328 471l-314 442q-53 74 50 74h92q53 0 75 -10t41 -43l203 -289l199 289q23 35 41 44t69 9h101z" />
    <glyph glyph-name="uni0446" unicode="&#x446;" horiz-adv-x="1193" 
d="M1100 221q35 0 48 -14t13 -51v-377q0 -35 -13 -49t-48 -15h-105q-35 1 -49 15t-14 49v221h-752q-35 0 -48 14t-13 49v936q0 35 13 49t48 13h113q35 0 49 -13t14 -49v-778h412v778q0 35 13 49t48 13h113q35 0 49 -13t15 -49v-778h94z" />
    <glyph glyph-name="uni0447" unicode="&#x447;" horiz-adv-x="1060" 
d="M59 999q1 35 15 49t49 13h110q35 0 49 -13t15 -49v-233q0 -195 215 -195q135 0 193 29v399q0 35 14 49t49 13h111q35 0 49 -13t14 -49v-936q0 -35 -14 -49t-49 -14h-111q-35 0 -49 14t-14 49v314q-45 -23 -226 -23q-420 0 -420 406v239z" />
    <glyph glyph-name="uni0448" unicode="&#x448;" horiz-adv-x="1579" 
d="M1397 1061q35 0 49 -13t14 -49v-936q0 -35 -14 -49t-49 -14h-1217q-35 0 -48 14t-13 49v936q0 35 13 49t48 13h113q35 0 49 -13t14 -49v-778h314v778q0 35 14 49t49 13h113q35 0 48 -13t13 -49v-778h316v778q0 35 14 49t49 13h111z" />
    <glyph glyph-name="uni0449" unicode="&#x449;" horiz-adv-x="1650" 
d="M1554 221q34 0 48 -14t14 -51v-377q0 -35 -13 -49t-49 -15h-104q-35 1 -49 15t-15 49v221h-1206q-35 0 -48 14t-13 49v936q0 35 13 49t48 13h113q35 0 49 -13t14 -49v-778h314v778q0 35 14 49t49 13h113q35 0 48 -13t13 -49v-778h316v778q0 35 14 49t49 13h111
q35 0 49 -13t14 -49v-778h94z" />
    <glyph glyph-name="uni044A" unicode="&#x44a;" horiz-adv-x="1253" 
d="M786 213q78 0 123 46t45 121t-45 119t-123 44h-241v-330h241zM815 758q179 0 283 -100t104 -278q0 -176 -103 -278t-284 -102h-446q-35 0 -48 14t-14 49v779h-215q-35 0 -49 14t-14 49v94q0 35 14 49t49 13h389q35 0 49 -13t15 -49v-241h270z" />
    <glyph glyph-name="uni044B" unicode="&#x44b;" horiz-adv-x="1468" 
d="M598 213q78 0 123 46t45 121t-45 119t-123 44h-242v-330h242zM1286 1061q35 0 49 -13t15 -49v-936q0 -35 -14 -49t-50 -14h-110q-35 0 -50 14q-14 14 -14 49v936q0 35 14 49t50 13h110zM627 758q180 0 283 -100q104 -100 104 -278q0 -176 -104 -278t-283 -102h-447
q-35 0 -48 14t-13 49v936q0 35 13 49t48 13h113q35 0 49 -13t14 -49v-241h271z" />
    <glyph glyph-name="uni044C" unicode="&#x44c;" horiz-adv-x="1064" 
d="M598 213q78 0 123 46t45 121t-45 119t-123 44h-242v-330h242zM627 758q180 0 283 -100q104 -100 104 -278q0 -176 -104 -278t-283 -102h-447q-35 0 -48 14t-13 49v936q0 35 13 49t48 13h113q35 0 49 -13t14 -49v-241h271z" />
    <glyph glyph-name="uni044D" unicode="&#x44d;" horiz-adv-x="1050" 
d="M500 1092q233 0 350 -110t117 -310v-281q0 -201 -112 -311.5t-339 -110.5q-346 0 -453 275q-27 66 43 90l93 28q66 23 90 -40q51 -141 219 -142q219 0 219 201v51l-305 2q-35 0 -49.5 13.5t-14.5 48.5v84q0 35 14.5 48t49.5 13h305v41q0 201 -219 201q-166 0 -219 -138
q-14 -37 -33.5 -47t-56.5 4l-90 29q-37 14 -47.5 33.5t1.5 58.5q41 123 152 196t285 73z" />
    <glyph glyph-name="uni044E" unicode="&#x44e;" horiz-adv-x="1548" 
d="M1223 684q0 193 -222 193q-106 1 -162 -49t-57 -144v-305q0 -92 58 -143q58 -52 164 -52t162 52t57 143v305zM543 684q0 192 119 300q118 108 340 108t341 -109t119 -301v-305q0 -193 -119 -301t-341 -107q-222 0 -340 108t-119 300v51h-187v-365q0 -35 -14 -49t-49 -14
h-113q-35 0 -48 14t-13 49v936q0 35 13 49t48 13h113q35 0 49 -13t14 -49v-350h187v35z" />
    <glyph glyph-name="uni044F" unicode="&#x44f;" horiz-adv-x="1085" 
d="M473 848q-69 0 -109 -41t-40 -106t41 -105t108 -39h256v291h-256zM903 1061q35 0 49 -13t15 -51v-934q-1 -35 -15 -49t-49 -14h-110q-35 0 -50 14q-14 14 -14 49v279h-209l-172 -287q-20 -37 -40 -46t-75 -9h-100q-55 0 -64 18t17 58l195 299q-205 82 -205 327
q0 166 98 262t268 97h461z" />
    <glyph glyph-name="uni0451" unicode="&#x451;" horiz-adv-x="1099" 
d="M793 682q0 100 -59.5 154.5t-175.5 54.5t-177.5 -54.5t-61.5 -154.5v-45h474v45zM82 649q0 215 122 329t354 114t352 -119t120 -305v-125q0 -88 -92 -88h-619v-76q0 -100 60.5 -152.5t173.5 -52.5q172 0 242 109q25 35 46 40t58 -16l72 -39q70 -33 24 -102
q-121 -197 -442 -197q-240 0 -355.5 119t-115.5 320v241zM768 1452q61 0 83.5 -23.5t22.5 -82.5v-19q0 -59 -22.5 -82.5t-83.5 -23.5h-12q-63 0 -86 22.5t-23 83.5v19q0 59 22.5 82.5t86.5 23.5h12zM358 1452q61 0 85 -23.5t24 -82.5v-19q0 -59 -23.5 -82.5t-85.5 -23.5h-14
q-61 0 -83.5 23.5t-22.5 82.5v19q0 59 22.5 82.5t83.5 23.5h14z" />
    <glyph glyph-name="Wgrave" unicode="&#x1e80;" horiz-adv-x="1845" 
d="M1757 1454q35 0 45 -16.5t0 -51.5l-338 -1329q-8 -35 -27.5 -46t-58.5 -11h-112q-74 0 -86 55l-215 813q-31 119 -33 232h-14q-2 -109 -35 -230l-217 -813q-8 -35 -28 -46t-58 -11h-111q-39 0 -59.5 11.5t-28.5 43.5l-336 1331q-10 35 -1 51.5t46 16.5h143q45 0 64.5 -12
t28.5 -49l168 -764q6 -27 32 -275h13q6 141 41 275l206 757q10 37 31 49.5t62 12.5h110q43 0 63.5 -12.5t28.5 -49.5l203 -757q37 -141 43 -275h12q8 133 37 273l164 766q8 37 27.5 49t64.5 12h125zM758 1843q39 47 116 4l302 -178q25 -14 24.5 -27.5t-20.5 -39.5l-29 -37
q-20 -27 -80 -4l-356 147q-31 12 -32 28.5t22 43.5z" />
    <glyph glyph-name="wgrave" unicode="&#x1e81;" horiz-adv-x="1505" 
d="M1407 1061q45 0 55.5 -14.5t-2.5 -59.5l-274 -932q-16 -57 -86 -57h-70q-70 0 -88 57l-149 525q-21 77 -33 178l-4 33h-11l-4 -33q-11 -95 -34 -178l-150 -525q-16 -57 -86 -57h-68q-70 0 -86 57l-272 932q-14 45 -4 59.5t55 14.5h80q59 0 82 -12.5t31 -51.5l117 -458
q17 -81 24.5 -163.5t9.5 -86.5h11q0 2 4 30.5t10 84.5t29 137l135 448q12 43 30.5 54.5t73.5 11.5h47q55 0 73.5 -11.5t31.5 -52.5l137 -450q26 -98 34.5 -174t8.5 -78h12l4 39q5 100 31 213l113 456q8 39 31.5 51.5t82.5 12.5h68zM580 1489q41 47 116 2l301 -180
q41 -20 4 -66l-28 -39q-23 -27 -80 -2l-356 150q-56 17 -9 69z" />
    <glyph glyph-name="Wacute" unicode="&#x1e82;" horiz-adv-x="1845" 
d="M1757 1454q35 0 45 -16.5t0 -51.5l-338 -1329q-8 -35 -27.5 -46t-58.5 -11h-112q-74 0 -86 55l-215 813q-31 119 -33 232h-14q-2 -109 -35 -230l-217 -813q-8 -35 -28 -46t-58 -11h-111q-39 0 -59.5 11.5t-28.5 43.5l-336 1331q-10 35 -1 51.5t46 16.5h143q45 0 64.5 -12
t28.5 -49l168 -764q6 -27 32 -275h13q6 141 41 275l206 757q10 37 31 49.5t62 12.5h110q43 0 63.5 -12.5t28.5 -49.5l203 -757q37 -141 43 -275h12q8 133 37 273l164 766q8 37 27.5 49t64.5 12h125zM1006 1851q76 43 114 -4l54 -65q30 -34 20 -48t-31 -22l-354 -149
q-63 -23 -80 2l-29 39q-37 45 5 65z" />
    <glyph glyph-name="wacute" unicode="&#x1e83;" horiz-adv-x="1505" 
d="M1407 1061q45 0 55.5 -14.5t-2.5 -59.5l-274 -932q-16 -57 -86 -57h-70q-70 0 -88 57l-149 525q-21 77 -33 178l-4 33h-11l-4 -33q-11 -95 -34 -178l-150 -525q-16 -57 -86 -57h-68q-70 0 -86 57l-272 932q-14 45 -4 59.5t55 14.5h80q59 0 82 -12.5t31 -51.5l117 -458
q17 -81 24.5 -163.5t9.5 -86.5h11q0 2 4 30.5t10 84.5t29 137l135 448q12 43 30.5 54.5t73.5 11.5h47q55 0 73.5 -11.5t31.5 -52.5l137 -450q26 -98 34.5 -174t8.5 -78h12l4 39q5 100 31 213l113 456q8 39 31.5 51.5t82.5 12.5h68zM827 1491q76 45 115 -2l53 -66
q43 -51 -8 -69l-356 -150q-57 -25 -80 2l-29 39q-37 45 4 66z" />
    <glyph glyph-name="Wdieresis" unicode="&#x1e84;" horiz-adv-x="1845" 
d="M1757 1454q35 0 45 -16.5t0 -51.5l-338 -1329q-8 -35 -27.5 -46t-58.5 -11h-112q-74 0 -86 55l-215 813q-31 119 -33 232h-14q-2 -109 -35 -230l-217 -813q-8 -35 -28 -46t-58 -11h-111q-39 0 -59.5 11.5t-28.5 43.5l-336 1331q-10 35 -1 51.5t46 16.5h143q45 0 64.5 -12
t28.5 -49l168 -764q6 -27 32 -275h13q6 141 41 275l206 757q10 37 31 49.5t62 12.5h110q43 0 63.5 -12.5t28.5 -49.5l203 -757q37 -141 43 -275h12q8 133 37 273l164 766q8 37 27.5 49t64.5 12h125zM1147 1819q61 0 83.5 -23.5t22.5 -83.5v-20q0 -59 -22.5 -83t-83.5 -24
h-12q-61 0 -85 23.5t-24 83.5v20q0 59 23.5 83t85.5 24h12zM737 1819q61 0 85 -23.5t24 -83.5v-20q0 -59 -23.5 -83t-85.5 -24h-14q-61 0 -84 23.5t-23 83.5v20q0 59 23 83t84 24h14z" />
    <glyph glyph-name="wdieresis" unicode="&#x1e85;" horiz-adv-x="1505" 
d="M1407 1061q45 0 55.5 -14.5t-2.5 -59.5l-274 -932q-16 -57 -86 -57h-70q-70 0 -88 57l-149 525q-21 77 -33 178l-4 33h-11l-4 -33q-11 -95 -34 -178l-150 -525q-16 -57 -86 -57h-68q-70 0 -86 57l-272 932q-14 45 -4 59.5t55 14.5h80q59 0 82 -12.5t31 -51.5l117 -458
q17 -81 24.5 -163.5t9.5 -86.5h11q0 2 4 30.5t10 84.5t29 137l135 448q12 43 30.5 54.5t73.5 11.5h47q55 0 73.5 -11.5t31.5 -52.5l137 -450q26 -98 34.5 -174t8.5 -78h12l4 39q5 100 31 213l113 456q8 39 31.5 51.5t82.5 12.5h68zM969 1452q61 0 84.5 -23.5t23.5 -82.5v-19
q0 -59 -23.5 -82.5t-84.5 -23.5h-13q-61 0 -84.5 23.5t-23.5 82.5v19q0 59 23.5 82.5t84.5 23.5h13zM559 1452q61 0 85 -23.5t24 -82.5v-19q0 -59 -23.5 -82.5t-85.5 -23.5h-14q-61 0 -84 23.5t-23 82.5v19q0 59 22.5 82.5t84.5 23.5h14z" />
    <glyph glyph-name="Ygrave" unicode="&#x1ef2;" horiz-adv-x="1316" 
d="M1251 1454q37 0 45.5 -20.5t-10.5 -49.5l-500 -811v-503q0 -39 -15 -54.5t-54 -15.5h-117q-39 0 -54.5 15.5t-15.5 54.5v508l-501 806q-18 29 -9 49.5t46 20.5h143q66 0 89.5 -9t45.5 -52l318 -553l319 553q23 43 47.5 52t89.5 9h133zM485 1843q39 47 117 4l303 -178
q23 -14 24 -27.5t-20 -39.5l-28 -37q-20 -27 -80 -4l-359 147q-51 21 -8 72z" />
    <glyph glyph-name="ygrave" unicode="&#x1ef3;" horiz-adv-x="1136" 
d="M954 1061q35 0 49.5 -13.5t14.5 -48.5v-1034q0 -211 -109.5 -328.5t-341.5 -117.5q-305 0 -426 196q-43 68 27 103l78 43q37 18 58.5 13t43.5 -38q66 -104 215 -104q217 0 217 221v96q-127 -29 -243 -29q-215 0 -321.5 106.5t-106.5 305.5v567q0 35 14 48.5t49 13.5h113
q35 0 48 -13.5t13 -48.5v-559q0 -203 223 -202q100 0 211 28v733q0 35 14.5 48.5t49.5 13.5h110zM387 1489q39 47 115 2l301 -180q41 -20 4 -66l-29 -39q-18 -27 -80 -2l-356 150q-51 18 -8 69z" />
    <glyph glyph-name="endash" unicode="&#x2013;" horiz-adv-x="1161" 
d="M975 662q39 0 54 -16t15 -54v-90q0 -38 -15 -54t-54 -16h-787q-41 0 -55 15t-14 55v90q0 39 15 54t54 16h787z" />
    <glyph glyph-name="emdash" unicode="&#x2014;" horiz-adv-x="1568" 
d="M1382 662q38 0 54 -16t16 -54v-92q0 -38 -15 -54t-55 -16h-1196q-39 0 -54 15t-15 55v92q0 39 15 54t54 16h1196z" />
    <glyph glyph-name="quoteleft" unicode="&#x2018;" horiz-adv-x="460" 
d="M289 1454h43q31 0 39 -9t4 -38l-51 -379q-6 -45 -24 -60t-60 -16h-90q-92 0 -66 76l125 363q13 35 29 49t51 14z" />
    <glyph glyph-name="quoteright" unicode="&#x2019;" horiz-adv-x="448" 
d="M141 952q-31 0 -39 10t-4 39l52 379q6 42 23 58t60 16h91q94 0 65 -74l-125 -364q-12 -35 -28 -49t-52 -15h-43z" />
    <glyph glyph-name="quotesinglbase" unicode="&#x201a;" horiz-adv-x="423" 
d="M221 -299h-55q-35 0 -49 14t-15 49v398q0 35 14 49t50 14h96q70 0 64 -63l-37 -398q-5 -37 -19 -50t-49 -13z" />
    <glyph glyph-name="quotedblleft" unicode="&#x201c;" horiz-adv-x="774" 
d="M600 1454h45q31 0 39 -9t4 -38l-51 -379q-5 -45 -23 -60t-61 -16h-90q-92 0 -66 76l125 363q12 37 28 50t50 13zM289 1454h43q31 0 39 -9t4 -38l-51 -379q-6 -45 -24 -60t-60 -16h-90q-92 0 -66 76l125 363q13 35 29 49t51 14z" />
    <glyph glyph-name="quotedblright" unicode="&#x201d;" horiz-adv-x="761" 
d="M455 952q-31 0 -39 10t-4 39l51 379q6 42 23 58t61 16h90q92 0 65 -74l-124 -364q-12 -35 -28 -49t-52 -15h-43zM141 952q-31 0 -39 10t-4 39l52 379q6 42 23 58t60 16h91q94 0 65 -74l-125 -364q-12 -35 -28 -49t-52 -15h-43z" />
    <glyph glyph-name="quotedblbase" unicode="&#x201e;" horiz-adv-x="763" 
d="M461 -250h-45q-31 0 -39 9t-4 38l51 381q6 42 23 58t61 16h90q94 0 66 -74l-125 -364q-13 -36 -29 -50t-49 -14zM147 -250h-45q-30 0 -38 9t-5 38l52 381q6 42 24 58t60 16h92q90 0 63 -74l-125 -364q-12 -36 -28 -50t-50 -14z" />
    <glyph glyph-name="dagger" unicode="&#x2020;" horiz-adv-x="1073" 
d="M948 1030q39 0 54 -15t16 -54v-101q0 -39 -16 -54t-54 -15h-291v-926q0 -39 -15 -54t-54 -16h-101q-39 -1 -54 15t-15 55v926h-291q-39 0 -54 15t-16 54v101q-1 39 15 54t55 15h291v354q0 38 15 54t54 16h101q39 0 54 -15t15 -55v-354h291z" />
    <glyph glyph-name="daggerdbl" unicode="&#x2021;" horiz-adv-x="1142" 
d="M621 1454q39 0 54 -15t15 -55v-354h291q39 0 54 -15t16 -54v-101q1 -39 -15 -54t-55 -15h-291v-332h293q39 1 54 -15t16 -55v-100q1 -39 -15 -55t-55 -15h-293v-354q0 -39 -15 -54t-54 -16h-101q-39 -1 -54 15t-15 55v354h-289q-39 0 -54 15t-16 55v100q0 39 16 54t54 16
h289v332h-291q-39 0 -55 15q-15 15 -15 54v101q0 39 15 54t55 15h291v354q0 38 15 54t54 16h101z" />
    <glyph glyph-name="bullet" unicode="&#x2022;" horiz-adv-x="749" 
d="M375 305q-100 0 -167 68t-67 168t67 167q67 66 167 66t167 -66q66 -66 66 -167q0 -100 -66 -168t-167 -68z" />
    <glyph glyph-name="ellipsis" unicode="&#x2026;" horiz-adv-x="1441" 
d="M1217 266q75 0 103 -28t28 -103v-18q0 -76 -28 -104t-103 -27h-15q-76 0 -104 28t-27 103v18q0 74 28 103t103 28h15zM729 266q75 0 103 -28t28 -103v-18q0 -76 -29 -104t-102 -27h-16q-74 0 -103 28t-28 103v18q0 74 28 103q29 29 103 28h16zM240 266q76 0 104 -28
t27 -103v-18q0 -76 -28 -104t-103 -27h-15q-75 0 -103 28t-28 103v18q0 74 28 103t103 28h15z" />
    <glyph glyph-name="perthousand" unicode="&#x2030;" horiz-adv-x="2435" 
d="M2175 403q0 125 -141 125t-142 -125v-120q0 -127 142 -127t141 127v120zM1413 403q0 125 -141 125t-142 -125v-120q0 -127 142 -127t141 127v120zM1694 414q0 143 88 224t252 81t252 -81t88 -224v-146q0 -141 -88 -221t-252 -80t-252 80t-88 221v146zM932 414
q0 143 88 224t252 81t252 -81t88 -224v-146q0 -141 -88 -221t-252 -80t-252 80t-88 221v146zM547 1171q0 125 -141 125t-142 -125v-122q0 -125 142 -125t141 125v122zM1421 1454q35 0 43 -20t-10 -48l-975 -1325q-31 -41 -53 -51t-84 -10h-80q-37 0 -46 20t11 50l975 1327
q28 39 50 48t79 9h90zM66 1182q0 143 88 224t252 81t252 -81t87 -224v-146q0 -141 -88 -221q-87 -80 -251 -80t-252 80t-88 221v146z" />
    <glyph glyph-name="guilsinglleft" unicode="&#x2039;" horiz-adv-x="722" 
d="M53 538q0 17 23 40l389 391q39 43 80 0l69 -72q23 -23 23 -39t-23 -39l-274 -276l270 -271q41 -39 0 -79l-73 -76q-41 -37 -80 0l-381 381q-23 23 -23 40z" />
    <glyph glyph-name="guilsinglright" unicode="&#x203a;" horiz-adv-x="722" 
d="M86 858q0 16 23 39l69 72q39 43 80 0l389 -391q21 -23 21 -40t-21 -40l-381 -381q-39 -37 -80 0l-73 76q-41 41 0 79l270 271l-274 276q-23 23 -23 39z" />
    <glyph glyph-name="fraction" unicode="&#x2044;" horiz-adv-x="399" 
d="M690 1454h90q35 0 43 -20t-10 -48l-975 -1325q-30 -41 -52 -51t-83 -10h-82q-37 0 -46 20t11 50l977 1327q29 37 51 47t76 10z" />
    <glyph glyph-name="zerosuperior" unicode="&#x2070;" horiz-adv-x="774" 
d="M498 1389q0 47 -30 73t-82 25q-52 0 -82 -26t-30 -72v-267q0 -46 30 -72t82 -26t82 26t30 72v267zM76 1389q0 133 82 211t229 77q147 0 229 -78t82 -210v-267q0 -133 -82 -210q-82 -76 -229 -76t-229 76t-82 210v267z" />
    <glyph glyph-name="foursuperior" unicode="&#x2074;" horiz-adv-x="778" 
d="M444 1188v225l-182 -225h182zM664 1188q37 0 48 -10t11 -45v-58q0 -35 -11 -45t-48 -10h-39v-111q1 -35 -11 -46t-47 -11h-67q-35 0 -45 11t-11 46v111h-346q-35 0 -48 12t-13 49v49q0 39 20 66l349 428q29 37 81 37h76q39 0 50 -11t12 -51v-411h39z" />
    <glyph glyph-name="fivesuperior" unicode="&#x2075;" horiz-adv-x="739" 
d="M600 1661q27 0 37 -10t10 -37v-76q0 -27 -10 -37t-37 -10h-313l-13 -111h109q145 0 220 -72t75 -190t-80 -200t-219 -82q-248 0 -316 200q-25 63 31 84l56 21q39 12 54 6t29 -37q41 -100 138 -100q55 0 86 28t31 76q-1 105 -111 105h-238q-59 0 -53 57l33 332q2 33 15 43
t48 10h418z" />
    <glyph glyph-name="sixsuperior" unicode="&#x2076;" horiz-adv-x="774" 
d="M272 1128q0 -110 119 -110t119 82t-115 82q-59 0 -123 -25v-29zM428 1364q141 0 211 -69t70 -195t-84 -196q-84 -68 -237 -68q-154 0 -234 76t-80 223v235q0 147 83 227t244 80q107 0 181 -42t106 -103q23 -39 -29 -66l-77 -39q-45 -23 -72 13q-43 55 -110 55
q-68 0 -98 -28t-30 -89v-39q94 25 156 25z" />
    <glyph glyph-name="sevensuperior" unicode="&#x2077;" horiz-adv-x="669" 
d="M584 1661q31 0 41 -11t10 -42v-49q0 -41 -12 -66l-269 -600q-12 -29 -24 -35t-60 -6h-77q-39 0 -48 14q-8 14 11 56l250 555h-310q-31 0 -42 11t-11 40v80q0 33 11 43t42 10h488z" />
    <glyph glyph-name="eightsuperior" unicode="&#x2078;" horiz-adv-x="792" 
d="M518 1081q0 41 -33 61t-110 38q-31 -14 -46 -22t-35 -32q-20 -23 -20 -47q0 -86 122 -86t122 88zM506 1440q0 80 -110 80t-109 -80q0 -37 31 -58q32 -20 106 -39q82 42 82 97zM88 1435q0 118 82 180t228 62t227 -57q80 -57 80 -170t-109 -166q133 -61 133 -197
q0 -252 -334 -251q-168 0 -250 58t-82 159q0 131 142 198q-117 66 -117 184z" />
    <glyph glyph-name="ninesuperior" unicode="&#x2079;" horiz-adv-x="774" 
d="M502 1382q0 113 -119 113t-119 -83t115 -83q59 0 123 25v28zM348 1147q-143 1 -213 69q-69 68 -69 195t84 197t233 69q317 0 317 -301v-235q0 -147 -83 -227t-242 -78q-106 0 -182 41t-107 102q-23 43 29 65l78 39q39 11 49 9t24 -21q37 -53 109 -53q127 0 127 115v41
q-80 -27 -154 -27z" />
    <glyph glyph-name="zeroinferior" unicode="&#x2080;" horiz-adv-x="774" 
d="M498 293q0 47 -30 73t-82 26t-82 -26t-30 -73v-264q0 -47 30 -74t82 -27t82 27t30 74v264zM76 293q0 133 82 211t229 78t229 -78t82 -211v-264q0 -135 -82 -212t-229 -77t-229 77t-82 212v264z" />
    <glyph glyph-name="oneinferior" unicode="&#x2081;" horiz-adv-x="583" 
d="M410 565q41 0 56 -15t15 -54v-670q0 -39 -16 -54t-55 -16h-60q-39 0 -54 16t-15 54v489l-115 -63q-63 -35 -100 24l-27 48q-33 59 31 96l221 127q35 18 82 18h37z" />
    <glyph glyph-name="twoinferior" unicode="&#x2082;" horiz-adv-x="745" 
d="M383 582q137 0 214 -75t77 -189t-50 -174t-175 -99l-111 -33q-74 -20 -74 -55v-18h338q33 -1 46 -15t14 -47v-61q0 -59 -60 -60h-467q-35 0 -49 14t-14 48v61q0 111 37 171t135 100l112 45q63 23 88 45t25 64t-24 66t-66 23q-74 0 -111 -78q-18 -39 -34 -47t-56 4l-55 21
q-70 24 -45 90q80 199 305 199z" />
    <glyph glyph-name="threeinferior" unicode="&#x2083;" horiz-adv-x="755" 
d="M385 582q133 0 207 -62t74 -170q0 -63 -20 -102t-68 -68q111 -55 110 -207q0 -111 -76 -172t-227 -61q-248 0 -317 197q-25 68 32 88l58 20q35 12 54 3q18 -9 34 -49t47 -60t92 -21q106 0 107 78q0 80 -80 80h-78q-39 0 -50 11t-12 50v51q0 46 12 56t54 10h61q80 0 80 76
t-97 76t-128 -82q-16 -44 -36 -54t-68 6l-39 15q-66 25 -41 88q70 203 315 203z" />
    <glyph glyph-name="fourinferior" unicode="&#x2084;" horiz-adv-x="784" 
d="M444 92v225l-182 -225h182zM670 92q39 0 49 -10t10 -43v-57q0 -36 -10 -46t-49 -10h-37v-112q0 -35 -11 -46t-47 -12h-75q-35 0 -45 12t-11 46v112h-346q-35 0 -48 12t-13 50v49q0 39 20 63l349 430q18 23 33 29t48 6h86q39 0 49 -11t11 -50v-412h37z" />
    <glyph glyph-name="fiveinferior" unicode="&#x2085;" horiz-adv-x="741" 
d="M600 565q27 0 37 -10t10 -37v-74q0 -30 -9 -38t-38 -9h-313l-13 -110h109q145 0 220 -73q75 -74 75 -192t-80 -200t-219 -82q-248 0 -316 201q-25 66 31 86l56 20q39 12 54 6t29 -39q41 -100 138 -100q55 0 86 29t30 77q0 102 -110 103h-238q-59 0 -53 57l33 332
q2 33 15 43t48 10h418z" />
    <glyph glyph-name="sixinferior" unicode="&#x2086;" horiz-adv-x="774" 
d="M272 35q0 -113 119 -113t119 83t-115 83q-59 0 -123 -25v-28zM709 5q0 -125 -84 -195t-237 -70q-154 0 -234 77t-80 222v237q0 146 83 226t244 80q105 0 181 -41t106 -105q25 -41 -29 -63l-77 -39q-37 -14 -48 -10t-24 22q-41 53 -109 53q-69 -1 -99 -27t-30 -87v-41
q84 27 156 26q141 0 211 -70t70 -195z" />
    <glyph glyph-name="seveninferior" unicode="&#x2087;" horiz-adv-x="667" 
d="M582 565q33 0 43 -10t10 -41v-49q0 -37 -14 -68l-267 -598q-14 -31 -26 -37t-60 -6h-75q-41 0 -49 16t12 56l247 553h-309q-31 0 -42 12t-11 41v80q0 33 11 42t42 9h488z" />
    <glyph glyph-name="eightinferior" unicode="&#x2088;" horiz-adv-x="792" 
d="M518 -14q0 41 -33 61t-110 39q-75 -37 -87 -58t-14 -44q0 -86 122 -86t122 88zM506 344q0 82 -110 82t-109 -80q1 -36 33 -58t104 -38q82 37 82 94zM88 341q0 116 82 178q82 63 228 63t227 -56q80 -56 80 -157q0 -125 -109 -181q133 -61 133 -194q0 -254 -334 -254
q-168 0 -250 59t-82 160q0 133 142 197q-117 69 -117 185z" />
    <glyph glyph-name="nineinferior" unicode="&#x2089;" horiz-adv-x="774" 
d="M502 287q0 59 -28 86t-91 26q-119 0 -119 -82t115 -81q59 0 123 24v27zM348 51q-143 0 -213 70q-69 69 -69 195t84 196t233 70q317 0 317 -299v-236q0 -151 -83 -229t-242 -78q-106 0 -181 42t-108 103q-20 41 29 66l78 39q39 12 48 9t25 -24q37 -53 106 -53q70 0 100 28
t30 89v39q-96 -27 -154 -27z" />
    <glyph glyph-name="Euro" unicode="&#x20ac;" horiz-adv-x="1505" 
d="M293 991q0 227 157 361t427 133q375 0 512 -230q53 -82 -29 -120l-80 -41q-43 -23 -68 -17t-44 37q-19 32 -42 54q-24 22 -92 50t-157 27q-147 0 -236 -64q-88 -65 -88 -182v-36h516q37 1 47 -13t2 -47l-20 -65q-18 -59 -84 -60h-471v-123h436q37 0 47 -13t0 -46l-20 -66
q-18 -59 -84 -59h-369v-25q8 -117 93 -177t231 -60q93 0 161 28q68 29 92 53t33 46q27 39 51 45t68 -16l80 -41q80 -41 29 -123q-139 -231 -514 -232q-268 0 -420 121t-162 356v25h-189q-35 0 -46 13t-1 48l21 66q8 33 26 45t56 12h133v123h-100q-35 0 -47 14t-1 48l21 65
q10 33 28 45t56 13h41v28z" />
    <glyph glyph-name="uni20BD" unicode="&#x20bd;" horiz-adv-x="1370" 
d="M471 786h348q105 0 163 58t58 155q0 99 -58 157t-163 58h-348v-428zM471 408h610q35 0 48 -14t14 -50v-57q1 -35 -13 -49t-49 -15h-610v-153q0 -38 -16 -54t-56 -16h-116q-39 0 -55 15q-15 15 -15 55v153h-78q-35 1 -49 15t-14 49v57q0 35 14 49t49 15h78v976q0 38 15 54
t55 16h561q217 0 341 -121t124 -334t-124 -333t-341 -119h-373v-139z" />
    <glyph glyph-name="uni2113" unicode="&#x2113;" horiz-adv-x="886" 
d="M618 1194q0 111 -75 111q-100 0 -101 -224v-288q176 186 176 401zM231 1083q-1 223 91 319t227 97q135 0 207 -83q72 -84 72 -246q-1 -351 -386 -674v-129q0 -168 136 -168q43 1 89 29t68 -1l70 -82q31 -39 -4 -67q-100 -90 -248 -90t-234 79t-86 226v41q-23 -14 -47 -33
q-45 -33 -75 14l-58 88q-31 49 13 80q90 57 165 117v483z" />
    <glyph glyph-name="uni2116" unicode="&#x2116;" horiz-adv-x="2144" 
d="M1980 655q38 0 54 -15t16 -54v-74q0 -39 -15 -54t-55 -16h-548q-38 0 -54 16t-16 54v74q0 39 15 54t55 15h548zM1565 1049q0 -127 141 -127t141 127v120q0 125 -141 125t-141 -125v-120zM1198 1454q39 0 54 -15t16 -55v-1314q0 -38 -16 -54t-54 -16h-117q-49 0 -69 35
l-502 741q-72 106 -143 286q-23 56 -23 58h-12q0 -2 22 -129t23 -278v-643q-1 -38 -17 -54t-55 -16h-108q-39 0 -55 15q-15 15 -15 55v1314q0 38 15 54t55 16h116q43 0 70 -33l498 -737q89 -132 148 -290q22 -56 24 -58h12q-1 4 -23 129t-22 285v634q0 38 15 54t55 16h108z
M2046 1034q0 -141 -88 -221t-252 -80t-252 80t-88 221v146q0 143 88 224t252 81t252 -81t88 -224v-146z" />
    <glyph glyph-name="uni2117" unicode="&#x2117;" horiz-adv-x="1638" 
d="M870 707q57 0 92 32q34 33 34 87t-34 88t-92 34h-149v-241h149zM879 1096q127 0 201 -73t73 -197q0 -124 -74 -196t-200 -71h-158v-178q0 -29 -9 -38t-38 -9h-60q-31 0 -39 9t-8 38v670q0 29 8 37t39 8h265zM248 719q0 -242 166 -408t406 -166t406 166q165 166 165 408
q0 243 -165 407t-407 164q-243 0 -407 -164t-164 -407zM84 720q0 306 214 520t522 214t521 -214t213 -522t-213 -521t-520 -213t-522 215t-215 521z" />
    <glyph glyph-name="trademark" unicode="&#x2122;" horiz-adv-x="1275" 
d="M1096 1423q31 0 40 -8t9 -37v-428q0 -27 -7 -35t-36 -8h-43q-29 0 -37 8t-8 35v129q0 25 8 107q-20 -39 -29 -47l-53 -80q-25 -33 -53 -33h-21q-27 0 -49 25l-55 77q-27 37 -29 41q4 -35 4 -90v-129q0 -27 -6 -35t-35 -8h-43q-29 0 -37 8t-8 35v428q0 29 9 37t40 8h25
q33 0 53 -30l142 -217l141 215q23 33 51 32h27zM522 1423q29 0 36 -8t7 -37v-41q0 -29 -7 -35t-36 -8h-131v-344q0 -27 -10 -35t-39 -8h-39q-27 0 -37 9t-10 34v344h-135q-31 0 -36 6t-5 37v41q0 35 10 40t31 5h401z" />
    <glyph glyph-name="Omega" unicode="&#x2126;" horiz-adv-x="1595" 
d="M109 764q0 320 192 520q193 201 495 201t498 -199q196 -200 197 -524q0 -324 -244 -512h180q39 0 55 -16t15 -54v-110q0 -38 -15 -54t-55 -16h-501q-53 0 -54 53v92q0 41 43 60q147 72 237 217q89 145 89 307q0 227 -113 369q-112 142 -328 143q-216 0 -330 -143
t-114 -367q0 -170 84 -314t236 -214q43 -18 43 -62v-88q0 -53 -53 -53h-500q-39 0 -54 15t-16 55v110q0 39 16 54t54 16h176q-233 194 -233 514z" />
    <glyph glyph-name="estimated" unicode="&#x212e;" horiz-adv-x="1660" 
d="M840 1317q-210 0 -369 -133v-381h741v381q-162 133 -372 133zM1599 682q0 -47 -49 -47h-1079v-367q158 -129 371 -129q137 0 274 68t236 225q14 23 27 29t48 6h80q27 0 32 -8t-5 -37q-88 -203 -276 -328t-416 -125q-313 0 -536 222q-222 221 -222 535t222 536t536 223
q314 0 535 -222q222 -222 222 -536v-45z" />
    <glyph glyph-name="uni2153" unicode="&#x2153;" horiz-adv-x="1746" 
d="M1653 594q-1 -63 -19 -102t-67 -68q111 -55 110 -207q-1 -111 -77 -172t-228 -61q-248 0 -317 196q-23 70 32 88l58 21q35 12 54 3t36 -46q29 -84 137 -84t109 79q0 79 -82 78h-78q-39 -1 -50 11t-11 51v51q0 45 11 55t56 11h59q80 0 80 73q0 78 -97 78t-128 -82
q-17 -43 -37 -53t-67 6l-37 15q-66 22 -43 88q70 203 315 202q133 0 207 -62t74 -169zM1403 1454q37 0 45 -20t-10 -48l-975 -1325q-31 -41 -53 -51t-84 -10h-80q-37 0 -46 20t11 50l975 1327q28 37 50 47t79 10h88zM440 1456q38 0 54 -15t16 -55v-669q0 -39 -15 -54
t-55 -16h-61q-39 -1 -54 15t-16 55v489l-114 -63q-61 -33 -99 24l-28 47q-33 57 30 97l221 127q31 18 82 18h39z" />
    <glyph glyph-name="uni2154" unicode="&#x2154;" horiz-adv-x="1851" 
d="M1786 217q0 -111 -76 -172t-227 -61q-248 0 -318 196q-25 68 33 88l57 21q35 12 55 3t34 -49q30 -81 138 -81q107 0 107 79t-80 78h-77q-38 1 -50 11t-12 51v51q0 45 10 55t56 11h61q80 0 80 73q0 78 -97 78t-128 -82q-16 -43 -36 -53t-69 6l-39 15q-66 25 -41 88
q70 203 316 202q133 0 207 -62t73 -169q0 -66 -19 -104t-69 -66q111 -55 111 -207zM1532 1454q37 0 45 -20t-10 -48l-975 -1325q-32 -41 -54 -51t-83 -10h-80q-37 0 -46 20t11 50l975 1327q29 37 51 47t78 10h88zM393 1483q137 0 214 -75q77 -74 77 -188t-50 -174t-175 -102
l-113 -33q-72 -20 -72 -55v-18h338q59 0 60 -60v-63q0 -59 -60 -60h-467q-35 -1 -50 13t-15 49v61q0 113 38 173t136 98l111 45q45 16 64 26q50 26 50 90q0 35 -24 59q-25 24 -66 23q-78 0 -110 -75q-17 -39 -33 -49t-58 3l-57 21q-68 27 -43 90q76 201 305 201z" />
    <glyph glyph-name="oneeighth" unicode="&#x215b;" horiz-adv-x="1781" 
d="M1503 229q0 41 -34 61t-111 40q-25 -13 -31 -17t-17 -10q-48 -26 -53 -76q0 -86 123 -86t123 88zM1489 588q0 82 -110 82t-109 -80q0 -37 34 -59t105 -37q80 37 80 94zM1073 584q0 117 82 179t227 62q146 0 226 -56t80 -168t-107 -169q131 -61 131 -194q0 -254 -332 -254
q-168 0 -250 58t-81 161q0 133 139 196q-115 68 -115 185zM1417 1454q35 0 43 -20t-10 -48l-975 -1325q-29 -41 -53 -51t-84 -10h-80q-37 0 -46 20t11 50l975 1327q30 37 52 47t77 10h90zM440 1466q38 0 54 -15t16 -54v-672q0 -39 -15 -54t-55 -16h-59q-39 -1 -55 15t-17 55
v489l-114 -63q-61 -33 -99 25l-28 47q-33 57 30 96l221 127q33 20 82 20h39z" />
    <glyph glyph-name="threeeighths" unicode="&#x215c;" horiz-adv-x="1824" 
d="M1550 229q0 41 -32 62q-33 20 -111 39q-21 -10 -29 -16t-19 -11q-52 -28 -52 -76q-1 -86 121 -86t122 88zM1538 588q0 82 -110 82t-109 -80q0 -37 33 -59t104 -37q82 35 82 94zM1120 585q0 116 82 178t228 62t227 -56q80 -56 80 -168t-107 -169q131 -61 131 -194
q0 -254 -334 -254q-167 0 -249 59t-82 160q0 133 141 196q-117 70 -117 186zM1491 1452q35 0 45 -19t-10 -47l-975 -1327q-31 -41 -53 -51t-84 -10h-80q-37 0 -46 22t11 48l975 1327q28 39 50 48t77 9h90zM393 1483q133 -1 206 -63t73 -169q0 -65 -18 -103t-68 -67
q111 -55 110 -207q0 -111 -76 -172t-227 -61q-252 0 -317 197q-14 41 -7 59t40 29l57 20q35 12 54 3q18 -9 34 -49t46 -59t93 -20q106 0 107 76q0 80 -80 80h-78q-39 0 -50 11t-11 50v52q0 45 10 55t55 10h62q78 0 77 74q0 78 -96 78t-127 -82q-16 -43 -36 -53t-68 6l-39 14
q-66 25 -41 88q70 203 315 203z" />
    <glyph glyph-name="fiveeighths" unicode="&#x215d;" horiz-adv-x="1843" 
d="M1569 229q0 41 -34 61t-110 40q-23 -11 -29 -16t-18 -11q-52 -27 -53 -76q0 -86 122 -86t122 88zM1556 588q0 82 -109 82t-110 -80q0 -37 33 -59t105 -37q81 35 81 94zM1139 584q0 117 82 179t227 62t225 -56t80 -168t-106 -169q133 -61 133 -194q0 -254 -334 -254
q-168 0 -250 59t-82 160q0 135 141 196q-116 68 -116 185zM1479 1454q37 0 45 -20t-11 -48l-974 -1325q-31 -41 -54 -51t-84 -10h-79q-37 0 -47 20q-9 20 12 50l975 1327q28 37 50 47t79 10h88zM602 1464q29 0 39 -10t10 -37v-76q0 -29 -10 -37t-39 -10h-311l-12 -110h108
q145 0 220 -72t75 -192t-80 -201q-80 -82 -219 -82q-246 0 -315 203q-25 63 30 84l56 20q39 12 54 6t30 -37q41 -100 137 -100q55 0 86 28t31 77q0 48 -28 76t-83 28h-238q-59 0 -53 57l33 332q2 33 15 43t48 10h416z" />
    <glyph glyph-name="seveneighths" unicode="&#x215e;" horiz-adv-x="1746" 
d="M1473 229q0 41 -33 61t-111 40q-21 -10 -29 -16t-29 -17q-42 -23 -42 -70q0 -86 122 -86t122 88zM1460 588q0 82 -109 82t-110 -80q0 -37 33 -59t104 -37q82 35 82 94zM1042 585q0 116 82 178t228 62t225 -56q80 -56 80 -169t-107 -168q133 -61 133 -194
q0 -254 -333 -254q-168 0 -250 59t-82 160q0 135 141 196q-117 70 -117 186zM1352 1454q37 0 45 -20t-11 -48l-974 -1325q-31 -41 -54 -51t-84 -10h-79q-37 0 -47 20q-9 20 12 50l975 1327q29 37 51 47t78 10h88zM602 1466q33 0 43 -11t10 -42v-49q0 -37 -14 -68l-266 -598
q-15 -30 -27 -36t-59 -7h-76q-41 -1 -49 15t12 57l248 555h-309q-31 0 -42 11t-12 40v80q-1 33 11 43t43 10h487z" />
    <glyph glyph-name="arrowleft" unicode="&#x2190;" horiz-adv-x="1525" 
d="M1384 778q55 0 56 -55v-80q0 -55 -56 -55h-964l270 -275q20 -23 20 -37t-20 -34l-59 -62q-37 -39 -76 0l-453 453q-55 51 0 104l453 453q39 37 76 0l61 -64q20 -24 20 -36t-20 -35l-272 -277h964z" />
    <glyph glyph-name="arrowup" unicode="&#x2191;" horiz-adv-x="1525" 
d="M864 55q0 -31 -12 -44t-45 -13h-86q-55 0 -55 57v961l-273 -271q-37 -37 -71 0l-64 62q-39 37 0 76l453 452q51 55 104 0l453 -452q39 -37 0 -76l-62 -59q-23 -20 -37 -20t-34 20l-271 268v-961z" />
    <glyph glyph-name="arrowright" unicode="&#x2192;" horiz-adv-x="1525" 
d="M141 588q-55 0 -55 55v80q0 55 55 55h965l-272 277q-20 23 -21 36q0 13 21 35l61 64q37 37 76 0l452 -453q55 -53 0 -104l-452 -453q-39 -39 -76 0l-59 62q-20 20 -21 34q0 14 21 37l270 275h-965z" />
    <glyph glyph-name="arrowdown" unicode="&#x2193;" horiz-adv-x="1525" 
d="M807 1352q33 0 45 -14t12 -44v-960l271 268q33 33 71 0l62 -59q39 -39 0 -78l-453 -451q-53 -59 -104 0l-453 451q-39 41 0 78l64 59q35 37 71 0l273 -268v960q0 57 55 58h86z" />
    <glyph glyph-name="uni2196" unicode="&#x2196;" horiz-adv-x="1525" 
d="M1178 1182q74 0 73 -74v-641q0 -29 -11 -40t-42 -11h-92q-47 0 -47 53v379l-678 -680q-41 -41 -80 0l-61 59q-41 39 0 82l680 678h-383q-29 0 -40 12t-12 41v88q1 29 13 41t41 13h639z" />
    <glyph glyph-name="uni2197" unicode="&#x2197;" horiz-adv-x="1525" 
d="M987 1182q29 0 41 -12t12 -42v-88q0 -29 -11 -41t-40 -12h-383l680 -678q41 -43 0 -82l-61 -59q-41 -41 -80 0l-678 680v-379q0 -53 -47 -53h-92q-31 0 -42 11t-12 40v641q0 74 74 74h639z" />
    <glyph glyph-name="uni2198" unicode="&#x2198;" horiz-adv-x="1525" 
d="M339 1176q17 0 40 -23l680 -680v379q0 29 9 41t36 12h92q31 0 42 -12t11 -41v-639q0 -76 -71 -76h-639q-55 0 -56 56v88q-1 29 11 41t41 12h383l-680 678q-39 43 0 82l61 59q23 23 40 23z" />
    <glyph glyph-name="uni2199" unicode="&#x2199;" horiz-adv-x="1525" 
d="M1187 1176q17 0 40 -23l61 -59q39 -39 0 -82l-680 -678h383q29 0 40 -12t11 -41v-88q0 -55 -55 -56h-639q-72 0 -72 76v639q0 29 12 41t42 12h92q27 0 36 -12t9 -41v-379l680 680q23 23 40 23z" />
    <glyph glyph-name="partialdiff" unicode="&#x2202;" horiz-adv-x="1134" 
d="M788 618q0 201 -233 201t-233 -201v-233q0 -96 59 -148q59 -53 174 -53t174 52t59 149v233zM1026 813v-428q0 -197 -121 -307t-350 -109q-229 0 -351 110t-122 306v233q0 190 115 304t321 112q206 0 283 -112q-10 194 -126 288t-368 95q-39 0 -52 13t-15 48l-2 92
q0 35 13 49t50 15q393 0 559 -166t166 -543z" />
    <glyph glyph-name="Delta" unicode="&#x2206;" horiz-adv-x="1312" 
d="M745 901q-43 120 -60 223t-19 109h-17q-2 -6 -17 -98t-63 -234l-239 -690h655zM717 1454q39 0 57 -11t29 -44l420 -1116q32 -76 34 -96q2 -21 3 -35v-82q0 -38 -16 -54t-56 -16h-1063q-39 0 -54 15t-16 55v82q0 39 35 131l420 1116q12 33 30 44t56 11h121z" />
    <glyph glyph-name="product" unicode="&#x220f;" horiz-adv-x="1417" 
d="M1288 1454q39 0 54 -15t16 -55v-100q0 -39 -16 -54t-54 -16h-108v-1349q0 -39 -16 -54t-54 -16h-119q-39 -1 -54 15t-15 55v1349h-424v-1349q0 -39 -16 -54t-56 -16h-117q-39 -1 -54 15t-15 55v1349h-111q-39 0 -54 16t-16 54v100q-1 38 15 54t55 16h1159z" />
    <glyph glyph-name="summation" unicode="&#x2211;" horiz-adv-x="1216" 
d="M1065 35q39 1 54 -15t16 -55v-100q1 -39 -15 -54t-55 -16h-920q-39 -1 -54 15t-15 55v100q0 41 22 70l375 596l-367 581q-23 29 -22 72v100q0 38 15 54t55 16h901q39 0 54 -15t15 -55v-100q0 -39 -15 -54t-54 -16h-658l316 -501q31 -45 31 -77t-31 -83l-326 -518h678z
" />
    <glyph glyph-name="minus" unicode="&#x2212;" horiz-adv-x="1204" 
d="M1016 782q39 0 54 -15t15 -54v-90q0 -39 -15 -55t-54 -17h-828q-39 0 -54 15t-15 57v90q0 41 14 55t55 14h828z" />
    <glyph glyph-name="uni2215" unicode="&#x2215;" horiz-adv-x="1257" 
d="M1120 1454h88q35 0 45 -20t-10 -48l-975 -1325q-32 -41 -54 -51t-83 -10h-80q-37 0 -47 20t12 50l975 1327q27 39 49 48t80 9z" />
    <glyph glyph-name="uni2219" unicode="&#x2219;" horiz-adv-x="503" 
d="M260 662q74 0 102 -29t29 -103v-18q0 -76 -29 -104t-102 -27h-16q-74 0 -103 28t-28 103v18q0 74 28 103q29 29 103 29h16z" />
    <glyph glyph-name="radical" unicode="&#x221a;" horiz-adv-x="1462" 
d="M1401 1538q37 0 47 -16t-2 -52l-510 -1630q-12 -35 -30 -46t-56 -11h-102q-37 0 -56 11q-18 11 -30 42l-300 834h-251q-39 0 -55 15q-15 15 -15 54v92q0 39 15 55t55 15h327q66 0 92 -12t37 -49l168 -498q35 -102 46 -209q11 -108 12 -110h16q0 37 17 144q17 108 36 173
l326 1137q10 37 33 49t86 12h94z" />
    <glyph glyph-name="infinity" unicode="&#x221e;" horiz-adv-x="1445" 
d="M1159 587q0 54 -36 92t-102 38t-128 -71q-5 -7 -25 -32t-22 -26q68 -90 104 -113t85 -23q50 0 87 41q37 40 37 94zM293 586q0 -58 36 -96t95 -37q12 0 24 3t23 5q9 2 21 10t27 16t34 35q20 27 24 30q3 2 14 18t13 18q-6 6 -32 38t-41 46q-46 43 -107 44t-96 -36t-35 -94z
M1358 586q0 -150 -100 -246t-236 -96q-98 0 -175 50t-122 130q-115 -180 -307 -180q-139 0 -235 96q-95 96 -95 244t95 244t245 98q178 -1 299 -191q121 190 303 191q144 0 236 -96q92 -94 92 -244z" />
    <glyph glyph-name="integral" unicode="&#x222b;" horiz-adv-x="792" 
d="M276 1094q0 215 98 318t333 104q37 0 50 -14t13 -52v-90q0 -37 -13 -51t-50 -15q-117 0 -155 -47t-38 -160v-1116q0 -215 -98 -318t-330 -104q-37 1 -51 15t-15 51v90q0 37 14 51t52 15q117 0 154 47t36 159v1117z" />
    <glyph glyph-name="approxequal" unicode="&#x2248;" horiz-adv-x="1150" 
d="M740 567q60 0 100 36q41 36 58 35t44 -28l72 -67q55 -51 0 -99q-163 -153 -424 -65q-112 37 -172 37t-113 -47q-31 -25 -48 -24t-44 28l-72 67q-53 52 0 99q104 96 242 98q77 2 187 -34t170 -36zM137 915q102 96 246 99q71 2 185 -36t170 -34t98 38t57 33q16 -1 45 -28
l72 -67q53 -51 0 -99q-174 -151 -429 -65q-109 37 -169 36q-60 0 -101 -36t-58 -34t-44 28l-72 67q-55 51 0 98z" />
    <glyph glyph-name="notequal" unicode="&#x2260;" horiz-adv-x="1198" 
d="M1012 582q39 0 54 -16t15 -54v-90q0 -39 -15 -54t-54 -16h-510l-99 -190q-10 -20 -45 -21h-84q-20 0 -10 23l96 188h-176q-41 0 -55 14t-14 56v90q0 41 14 55t55 15h295l88 174h-383q-41 0 -55 15t-14 54v90q0 41 15 57t54 15h502l96 187q10 20 41 20h86q23 0 11 -23
l-95 -184h187q39 0 54 -16t15 -56v-90q0 -39 -15 -54t-54 -15h-303l-91 -174h394z" />
    <glyph glyph-name="lessequal" unicode="&#x2264;" horiz-adv-x="1085" 
d="M879 336q41 0 56 -15t15 -55v-84q0 -39 -16 -54t-55 -15h-693q-39 0 -54 15t-15 56v82q0 38 15 54t54 16h693zM950 1165q0 -55 -12 -77t-51 -35l-465 -183v-12l463 -180q41 -14 53 -36t12 -77v-94q0 -47 -16 -59t-57 6l-705 323q-33 15 -44 33t-11 53v66q0 35 11 54
t44 34l705 322q41 18 57 6t16 -58v-86z" />
    <glyph glyph-name="greaterequal" unicode="&#x2265;" horiz-adv-x="1083" 
d="M899 336q39 0 54 -15t16 -55v-82q1 -41 -15 -56t-55 -15h-692q-39 0 -55 15t-17 54v84q-1 38 15 54t57 16h692zM135 1251q1 45 17 57t57 -5l704 -322q33 -13 44 -33t12 -55v-66q1 -35 -11 -52t-45 -34l-704 -323q-41 -18 -57 -6t-17 59v94q0 55 12 77t54 36l463 180v12
l-465 183q-39 14 -52 36q-12 22 -12 76v86z" />
    <glyph glyph-name="lozenge" unicode="&#x25ca;" horiz-adv-x="1130" 
d="M563 1165l-244 -438l244 -438h10l246 438l-246 438h-10zM598 1454q33 0 50 -12t38 -43l373 -623q27 -53 0 -98l-373 -623q-20 -31 -38 -43t-50 -12h-66q-33 0 -49 11t-37 44l-374 623q-29 47 0 98l374 623q20 33 36 44t50 11h66z" />
    <glyph glyph-name="zero.denom" horiz-adv-x="774" 
d="M498 537q0 47 -30 73t-82 25q-52 0 -82 -26t-30 -72v-265q0 -48 30 -74t82 -26t82 27t30 73v265zM76 537q0 133 82 211t229 78t229 -78t82 -211v-265q0 -135 -82 -212q-82 -76 -229 -76t-229 76t-82 212v265z" />
    <glyph glyph-name="one.denom" horiz-adv-x="583" 
d="M410 809q41 0 56 -15t15 -55v-669q0 -38 -16 -54t-55 -16h-60q-39 0 -54 15t-15 55v489l-115 -63q-63 -35 -100 24l-27 47q-33 59 31 97l221 127q35 18 82 18h37z" />
    <glyph glyph-name="two.denom" horiz-adv-x="745" 
d="M676 562q0 -114 -50 -174t-175 -99l-113 -33q-74 -20 -74 -55v-19h338q35 0 47 -14t13 -47v-62q0 -33 -12 -46t-48 -13h-467q-63 0 -63 61v62q0 111 37 171t135 99l112 45q63 22 88 44t25 65t-24 67t-64 23q-76 0 -113 -78q-18 -39 -34 -47t-54 4l-57 21q-70 24 -45 90
q80 199 305 198q137 -1 215 -75t78 -188z" />
    </font>
</defs>
</svg>
