<svg id="Layer_1" data-name="Layer 1" xmlns="http://www.w3.org/2000/svg" viewBox="0 0 21.7 18.86"><title>medium</title><path d="M9.64,15.7v.1q0,2,0,4a1.68,1.68,0,0,1-.37,1.12A1.41,1.41,0,0,1,8,21.43a1.78,1.78,0,0,1-.68-.2c-1.71-.86-3.42-1.72-5.12-2.6a2,2,0,0,1-1.06-1.54,1.57,1.57,0,0,1,0-.24q0-6.35,0-12.69a1.54,1.54,0,0,1,.36-1.05A1.36,1.36,0,0,1,3.1,2.76c.26.11.51.25.77.38L9,5.72a1.16,1.16,0,0,1,.5.39c.1.15.17.32.26.48l1.09,2.14,0,.06L11,8.5l3.11-5.12a1.6,1.6,0,0,1,1.48-.82,1.77,1.77,0,0,1,.78.23l5.84,3a1.05,1.05,0,0,1,.6,1q0,6.53,0,13.07a1.51,1.51,0,0,1-1.76,1.55,2.76,2.76,0,0,1-.92-.33l-4.94-2.5-5.51-2.8ZM8.7,13.3q0-3.25,0-6.5a.22.22,0,0,0-.14-.23L3.06,3.79a2.46,2.46,0,0,0-.4-.18.4.4,0,0,0-.53.3,1,1,0,0,0,0,.25q0,6.35,0,12.69a1,1,0,0,0,.59,1l4.77,2.42a3.52,3.52,0,0,0,.54.24.51.51,0,0,0,.68-.4,1.27,1.27,0,0,0,0-.3Q8.7,16.53,8.7,13.3Zm6.61,4.21.05-.09L21.83,6.77c.07-.11.06-.14-.06-.2l-5.86-3a.68.68,0,0,0-1,.27L11.4,9.71a.12.12,0,0,0,0,.14L15.05,17Zm.84.43.07,0,.76.39,3.83,1.94a1.22,1.22,0,0,0,.49.14.54.54,0,0,0,.59-.44,1.09,1.09,0,0,0,0-.22q0-5.61,0-11.22V8.49h0ZM9.65,8.5v0q0,3,0,6.05s0,.06.05.08l4.12,2.08.06,0Z" transform="translate(-1.15 -2.57)"/></svg>