<?xml version="1.0" encoding="utf-8"?>
<!-- Generator: Adobe Illustrator 21.0.0, SVG Export Plug-In . SVG Version: 6.00 Build 0)  -->
<svg version="1.1" id="Layer_1" xmlns="http://www.w3.org/2000/svg" xmlns:xlink="http://www.w3.org/1999/xlink" x="0px" y="0px"
	 viewBox="0 0 600 135.2" style="enable-background:new 0 0 600 135.2;" xml:space="preserve">
<style type="text/css">
	.st0{clip-path:url(#SVGID_2_);fill:#F8F8F8;}
	.st1{clip-path:url(#SVGID_4_);fill:#F8F8F8;}
	.st2{fill:#F8F8F8;}
</style>
<g>
	<g>
		<g>
			<g>
				<defs>
					<path id="SVGID_1_" d="M103.4,36.6c-3,0-5.4,2.4-5.4,5.4v70.4c0,0,0,0,0,0c0,0.6-0.2,1.2-0.8,1.5c-0.7,0.4-1.5,0.3-2-0.2
						c0,0,0,0,0,0l-29.5-26l0,0c-1.6-1.4-3.7-2.2-6-2.2l-20.5,0c-0.8,0-1.6-0.4-2.1-1.2c-0.3-0.4-0.4-0.9-0.4-1.3c0,0,0-31.5,0-31.5
						v0l0,0c0-0.8,0.4-1.5,1.2-2c0.4-0.3,0.9-0.4,1.3-0.4l0,0l20.7,0l0,0h0c2.6,0,4.6-1.1,6.7-2.9l34.9-30l0,0c1.9-1.6,2-4,0.6-6
						c-0.6-0.9-1.7-1.6-2.3-1.9C97.2,6.7,86.6,0,67.8,0c0,0,0,0,0,0c0,0,0,0,0,0C28.4,0,0,31.9,0,67.6c0,36.5,29.3,67.6,67.6,67.6
						c0,0,0,0,0,0c0,0,0,0,0,0c0,0,3.6,0,6.3-0.3s4.6-2.1,4.6-4.6c0-2.5-2.1-4.6-4.6-4.6c0,0,0,0,0,0c0,0,0,0,0,0
						c-0.2,0-4,0.3-6.2,0.3c-25.9,0-56.8-21.9-56.8-58.4c0-31,25.4-56.2,57-56.2c9.6,0,16.5,2.4,16.5,2.4c0.5,0.2,1.1,0.4,1.2,1
						c0.1,0.6-0.1,0.9-0.8,1.6L62.1,36c-1.7,1.6-3.2,2.4-5.4,2.4l-20,0.1c-1.8,0.1-3.7,0.6-5.3,1.6c-3.2,2-4.9,5.4-4.9,8.9l0,36.4
						c0.1,1.8,0.6,3.6,1.6,5.2c1.9,3.1,5.2,4.8,8.6,4.9l0,0l0,0l20-0.1c1.8,0,3.4,0.6,4.6,1.7l24.6,21.2c0,0,5.5,4.8,6.1,5.4
						c0.4,0.3,0.7,0.6,1.1,0.9c3.1,2.1,7.4,2.3,10.8,0.2c3.4-2.1,4.7-5.2,4.8-8.4V42v0c0,0,0,0,0,0C108.8,39,106.3,36.6,103.4,36.6z
						"/>
				</defs>
				<use xlink:href="#SVGID_1_"  style="overflow:visible;fill:#F8F8F8;"/>
				<clipPath id="SVGID_2_">
					<use xlink:href="#SVGID_1_"  style="overflow:visible;"/>
				</clipPath>
				<path class="st0" d="M0,135.2h108.8H0z"/>
				<rect x="0" y="134.1" class="st0" width="108.8" height="1.1"/>
				<rect x="0" y="133" class="st0" width="108.8" height="1.1"/>
				<rect x="0" y="131.9" class="st0" width="108.8" height="1.1"/>
				<rect x="0" y="130.7" class="st0" width="108.8" height="1.1"/>
				<rect x="0" y="129.6" class="st0" width="108.8" height="1.1"/>
				<rect x="0" y="128.5" class="st0" width="108.8" height="1.1"/>
				<rect x="0" y="127.3" class="st0" width="108.8" height="1.1"/>
				<rect x="0" y="126.2" class="st0" width="108.8" height="1.1"/>
				<rect x="0" y="125.1" class="st0" width="108.8" height="1.1"/>
				<rect x="0" y="124" class="st0" width="108.8" height="1.1"/>
				<rect x="0" y="122.8" class="st0" width="108.8" height="1.1"/>
				<rect x="0" y="121.7" class="st0" width="108.8" height="1.1"/>
				<rect x="0" y="120.6" class="st0" width="108.8" height="1.1"/>
				<rect x="0" y="119.5" class="st0" width="108.8" height="1.1"/>
				<rect x="0" y="118.3" class="st0" width="108.8" height="1.1"/>
				<rect x="0" y="117.2" class="st0" width="108.8" height="1.1"/>
				<rect x="0" y="116.1" class="st0" width="108.8" height="1.1"/>
				<rect x="0" y="115" class="st0" width="108.8" height="1.1"/>
				<rect x="0" y="113.8" class="st0" width="108.8" height="1.1"/>
				<rect x="0" y="112.7" class="st0" width="108.8" height="1.1"/>
				<rect x="0" y="111.6" class="st0" width="108.8" height="1.1"/>
				<rect x="0" y="110.4" class="st0" width="108.8" height="1.1"/>
				<rect x="0" y="109.3" class="st0" width="108.8" height="1.1"/>
				<rect x="0" y="108.2" class="st0" width="108.8" height="1.1"/>
				<rect x="0" y="107.1" class="st0" width="108.8" height="1.1"/>
				<rect x="0" y="105.9" class="st0" width="108.8" height="1.1"/>
				<rect x="0" y="104.8" class="st0" width="108.8" height="1.1"/>
				<rect x="0" y="103.7" class="st0" width="108.8" height="1.1"/>
				<rect x="0" y="102.6" class="st0" width="108.8" height="1.1"/>
				<rect x="0" y="101.4" class="st0" width="108.8" height="1.1"/>
				<rect x="0" y="100.3" class="st0" width="108.8" height="1.1"/>
				<rect x="0" y="99.2" class="st0" width="108.8" height="1.1"/>
				<rect x="0" y="98" class="st0" width="108.8" height="1.1"/>
				<rect x="0" y="96.9" class="st0" width="108.8" height="1.1"/>
				<rect x="0" y="95.8" class="st0" width="108.8" height="1.1"/>
				<rect x="0" y="94.7" class="st0" width="108.8" height="1.1"/>
				<rect x="0" y="93.5" class="st0" width="108.8" height="1.1"/>
				<rect x="0" y="92.4" class="st0" width="108.8" height="1.1"/>
				<rect x="0" y="91.3" class="st0" width="108.8" height="1.1"/>
				<rect x="0" y="90.2" class="st0" width="108.8" height="1.1"/>
				<rect x="0" y="89" class="st0" width="108.8" height="1.1"/>
				<rect x="0" y="87.9" class="st0" width="108.8" height="1.1"/>
				<rect x="0" y="86.8" class="st0" width="108.8" height="1.1"/>
				<rect x="0" y="85.7" class="st0" width="108.8" height="1.1"/>
				<rect x="0" y="84.5" class="st0" width="108.8" height="1.1"/>
				<rect x="0" y="83.4" class="st0" width="108.8" height="1.1"/>
				<rect x="0" y="82.3" class="st0" width="108.8" height="1.1"/>
				<rect x="0" y="81.1" class="st0" width="108.8" height="1.1"/>
				<rect x="0" y="80" class="st0" width="108.8" height="1.1"/>
				<rect x="0" y="78.9" class="st0" width="108.8" height="1.1"/>
				<rect x="0" y="77.8" class="st0" width="108.8" height="1.1"/>
				<rect x="0" y="76.6" class="st0" width="108.8" height="1.1"/>
				<rect x="0" y="75.5" class="st0" width="108.8" height="1.1"/>
				<rect x="0" y="74.4" class="st0" width="108.8" height="1.1"/>
				<rect x="0" y="73.3" class="st0" width="108.8" height="1.1"/>
				<rect x="0" y="72.1" class="st0" width="108.8" height="1.1"/>
				<rect x="0" y="71" class="st0" width="108.8" height="1.1"/>
				<rect x="0" y="69.9" class="st0" width="108.8" height="1.1"/>
				<rect x="0" y="68.7" class="st0" width="108.8" height="1.1"/>
				<rect x="0" y="67.6" class="st0" width="108.8" height="1.1"/>
				<rect x="0" y="66.5" class="st0" width="108.8" height="1.1"/>
				<rect x="0" y="65.4" class="st0" width="108.8" height="1.1"/>
				<rect x="0" y="64.2" class="st0" width="108.8" height="1.1"/>
				<rect x="0" y="63.1" class="st0" width="108.8" height="1.1"/>
				<rect x="0" y="62" class="st0" width="108.8" height="1.1"/>
				<rect x="0" y="60.9" class="st0" width="108.8" height="1.1"/>
				<rect x="0" y="59.7" class="st0" width="108.8" height="1.1"/>
				<rect x="0" y="58.6" class="st0" width="108.8" height="1.1"/>
				<rect x="0" y="57.5" class="st0" width="108.8" height="1.1"/>
				<rect x="0" y="56.3" class="st0" width="108.8" height="1.1"/>
				<rect x="0" y="55.2" class="st0" width="108.8" height="1.1"/>
				<rect x="0" y="54.1" class="st0" width="108.8" height="1.1"/>
				<rect x="0" y="53" class="st0" width="108.8" height="1.1"/>
				<rect x="0" y="51.8" class="st0" width="108.8" height="1.1"/>
				<rect x="0" y="50.7" class="st0" width="108.8" height="1.1"/>
				<rect x="0" y="49.6" class="st0" width="108.8" height="1.1"/>
				<rect x="0" y="48.5" class="st0" width="108.8" height="1.1"/>
				<rect x="0" y="47.3" class="st0" width="108.8" height="1.1"/>
				<rect x="0" y="46.2" class="st0" width="108.8" height="1.1"/>
				<rect x="0" y="45.1" class="st0" width="108.8" height="1.1"/>
				<rect x="0" y="44" class="st0" width="108.8" height="1.1"/>
				<rect x="0" y="42.8" class="st0" width="108.8" height="1.1"/>
				<rect x="0" y="41.7" class="st0" width="108.8" height="1.1"/>
				<rect x="0" y="40.6" class="st0" width="108.8" height="1.1"/>
				<rect x="0" y="39.4" class="st0" width="108.8" height="1.1"/>
				<rect x="0" y="38.3" class="st0" width="108.8" height="1.1"/>
				<rect x="0" y="37.2" class="st0" width="108.8" height="1.1"/>
				<rect x="0" y="36.1" class="st0" width="108.8" height="1.1"/>
				<rect x="0" y="34.9" class="st0" width="108.8" height="1.1"/>
				<rect x="0" y="33.8" class="st0" width="108.8" height="1.1"/>
				<rect x="0" y="32.7" class="st0" width="108.8" height="1.1"/>
				<rect x="0" y="31.6" class="st0" width="108.8" height="1.1"/>
				<rect x="0" y="30.4" class="st0" width="108.8" height="1.1"/>
				<rect x="0" y="29.3" class="st0" width="108.8" height="1.1"/>
				<rect x="0" y="28.2" class="st0" width="108.8" height="1.1"/>
				<rect x="0" y="27" class="st0" width="108.8" height="1.1"/>
				<rect x="0" y="25.9" class="st0" width="108.8" height="1.1"/>
				<rect x="0" y="24.8" class="st0" width="108.8" height="1.1"/>
				<rect x="0" y="23.7" class="st0" width="108.8" height="1.1"/>
				<rect x="0" y="22.5" class="st0" width="108.8" height="1.1"/>
				<rect x="0" y="21.4" class="st0" width="108.8" height="1.1"/>
				<rect x="0" y="20.3" class="st0" width="108.8" height="1.1"/>
				<rect x="0" y="19.2" class="st0" width="108.8" height="1.1"/>
				<rect x="0" y="18" class="st0" width="108.8" height="1.1"/>
				<rect x="0" y="16.9" class="st0" width="108.8" height="1.1"/>
				<rect x="0" y="15.8" class="st0" width="108.8" height="1.1"/>
				<rect x="0" y="14.7" class="st0" width="108.8" height="1.1"/>
				<rect x="0" y="13.5" class="st0" width="108.8" height="1.1"/>
				<rect x="0" y="12.4" class="st0" width="108.8" height="1.1"/>
				<rect x="0" y="11.3" class="st0" width="108.8" height="1.1"/>
				<rect x="0" y="10.1" class="st0" width="108.8" height="1.1"/>
				<rect x="0" y="9" class="st0" width="108.8" height="1.1"/>
				<rect x="0" y="7.9" class="st0" width="108.8" height="1.1"/>
				<rect x="0" y="6.8" class="st0" width="108.8" height="1.1"/>
				<rect x="0" y="5.6" class="st0" width="108.8" height="1.1"/>
				<rect x="0" y="4.5" class="st0" width="108.8" height="1.1"/>
				<rect x="0" y="3.4" class="st0" width="108.8" height="1.1"/>
				<rect x="0" y="2.3" class="st0" width="108.8" height="1.1"/>
				<rect x="0" y="1.1" class="st0" width="108.8" height="1.1"/>
				<rect x="0" y="0" class="st0" width="108.8" height="1.1"/>
			</g>
		</g>
		<g>
			<g>
				<defs>
					<path id="SVGID_3_" d="M125,31.8c-0.1-0.2-0.2-0.3-0.2-0.3c-1-1.4-2.7-2.3-4.6-2.3c0,0,0,0,0,0c0,0,0,0,0,0
						c-3.1,0-5.7,2.6-5.7,5.7c0,1.2,0.4,2.3,1,3.2c0,0,9,12.6,9,29.3c0,18.6-7.3,31.3-7.3,31.3c-0.4,0.7-0.6,1.4-0.6,2.2
						c0,2.5,2.1,4.6,4.6,4.6c0,0,0,0,0,0c0,0,0,0,0,0c1.6,0,3-0.8,3.9-2.1c0,0,10.2-15,10.2-36C135.3,46.4,125,31.8,125,31.8z"/>
				</defs>
				<use xlink:href="#SVGID_3_"  style="overflow:visible;fill:#F8F8F8;"/>
				<clipPath id="SVGID_4_">
					<use xlink:href="#SVGID_3_"  style="overflow:visible;"/>
				</clipPath>
				<path class="st1" d="M114.5,105.5h20.7H114.5z"/>
				<rect x="114.5" y="104.9" class="st1" width="20.7" height="0.6"/>
				<rect x="114.5" y="104.2" class="st1" width="20.7" height="0.6"/>
				<rect x="114.5" y="103.6" class="st1" width="20.7" height="0.6"/>
				<rect x="114.5" y="103" class="st1" width="20.7" height="0.6"/>
				<rect x="114.5" y="102.3" class="st1" width="20.7" height="0.6"/>
				<rect x="114.5" y="101.7" class="st1" width="20.7" height="0.6"/>
				<rect x="114.5" y="101.1" class="st1" width="20.7" height="0.6"/>
				<rect x="114.5" y="100.4" class="st1" width="20.7" height="0.6"/>
				<rect x="114.5" y="99.8" class="st1" width="20.7" height="0.6"/>
				<rect x="114.5" y="99.1" class="st1" width="20.7" height="0.6"/>
				<rect x="114.5" y="98.5" class="st1" width="20.7" height="0.6"/>
				<rect x="114.5" y="97.9" class="st1" width="20.7" height="0.6"/>
				<rect x="114.5" y="97.2" class="st1" width="20.7" height="0.6"/>
				<rect x="114.5" y="96.6" class="st1" width="20.7" height="0.6"/>
				<rect x="114.5" y="96" class="st1" width="20.7" height="0.6"/>
				<rect x="114.5" y="95.3" class="st1" width="20.7" height="0.6"/>
				<rect x="114.5" y="94.7" class="st1" width="20.7" height="0.6"/>
				<rect x="114.5" y="94.1" class="st1" width="20.7" height="0.6"/>
				<rect x="114.5" y="93.4" class="st1" width="20.7" height="0.6"/>
				<rect x="114.5" y="92.8" class="st1" width="20.7" height="0.6"/>
				<rect x="114.5" y="92.1" class="st1" width="20.7" height="0.6"/>
				<rect x="114.5" y="91.5" class="st1" width="20.7" height="0.6"/>
				<rect x="114.5" y="90.9" class="st1" width="20.7" height="0.6"/>
				<rect x="114.5" y="90.2" class="st1" width="20.7" height="0.6"/>
				<rect x="114.5" y="89.6" class="st1" width="20.7" height="0.6"/>
				<rect x="114.5" y="89" class="st1" width="20.7" height="0.6"/>
				<rect x="114.5" y="88.3" class="st1" width="20.7" height="0.6"/>
				<rect x="114.5" y="87.7" class="st1" width="20.7" height="0.6"/>
				<rect x="114.5" y="87.1" class="st1" width="20.7" height="0.6"/>
				<rect x="114.5" y="86.4" class="st1" width="20.7" height="0.6"/>
				<rect x="114.5" y="85.8" class="st1" width="20.7" height="0.6"/>
				<rect x="114.5" y="85.2" class="st1" width="20.7" height="0.6"/>
				<rect x="114.5" y="84.5" class="st1" width="20.7" height="0.6"/>
				<rect x="114.5" y="83.9" class="st1" width="20.7" height="0.6"/>
				<rect x="114.5" y="83.2" class="st1" width="20.7" height="0.6"/>
				<rect x="114.5" y="82.6" class="st1" width="20.7" height="0.6"/>
				<rect x="114.5" y="82" class="st1" width="20.7" height="0.6"/>
				<rect x="114.5" y="81.3" class="st1" width="20.7" height="0.6"/>
				<rect x="114.5" y="80.7" class="st1" width="20.7" height="0.6"/>
				<rect x="114.5" y="80.1" class="st1" width="20.7" height="0.6"/>
				<rect x="114.5" y="79.4" class="st1" width="20.7" height="0.6"/>
				<rect x="114.5" y="78.8" class="st1" width="20.7" height="0.6"/>
				<rect x="114.5" y="78.2" class="st1" width="20.7" height="0.6"/>
				<rect x="114.5" y="77.5" class="st1" width="20.7" height="0.6"/>
				<rect x="114.5" y="76.9" class="st1" width="20.7" height="0.6"/>
				<rect x="114.5" y="76.3" class="st1" width="20.7" height="0.6"/>
				<rect x="114.5" y="75.6" class="st1" width="20.7" height="0.6"/>
				<rect x="114.5" y="75" class="st1" width="20.7" height="0.6"/>
				<rect x="114.5" y="74.3" class="st1" width="20.7" height="0.6"/>
				<rect x="114.5" y="73.7" class="st1" width="20.7" height="0.6"/>
				<rect x="114.5" y="73.1" class="st1" width="20.7" height="0.6"/>
				<rect x="114.5" y="72.4" class="st1" width="20.7" height="0.6"/>
				<rect x="114.5" y="71.8" class="st1" width="20.7" height="0.6"/>
				<rect x="114.5" y="71.2" class="st1" width="20.7" height="0.6"/>
				<rect x="114.5" y="70.5" class="st1" width="20.7" height="0.6"/>
				<rect x="114.5" y="69.9" class="st1" width="20.7" height="0.6"/>
				<rect x="114.5" y="69.3" class="st1" width="20.7" height="0.6"/>
				<rect x="114.5" y="68.6" class="st1" width="20.7" height="0.6"/>
				<rect x="114.5" y="68" class="st1" width="20.7" height="0.6"/>
				<rect x="114.5" y="67.4" class="st1" width="20.7" height="0.6"/>
				<rect x="114.5" y="66.7" class="st1" width="20.7" height="0.6"/>
				<rect x="114.5" y="66.1" class="st1" width="20.7" height="0.6"/>
				<rect x="114.5" y="65.4" class="st1" width="20.7" height="0.6"/>
				<rect x="114.5" y="64.8" class="st1" width="20.7" height="0.6"/>
				<rect x="114.5" y="64.2" class="st1" width="20.7" height="0.6"/>
				<rect x="114.5" y="63.5" class="st1" width="20.7" height="0.6"/>
				<rect x="114.5" y="62.9" class="st1" width="20.7" height="0.6"/>
				<rect x="114.5" y="62.3" class="st1" width="20.7" height="0.6"/>
				<rect x="114.5" y="61.6" class="st1" width="20.7" height="0.6"/>
				<rect x="114.5" y="61" class="st1" width="20.7" height="0.6"/>
				<rect x="114.5" y="60.4" class="st1" width="20.7" height="0.6"/>
				<rect x="114.5" y="59.7" class="st1" width="20.7" height="0.6"/>
				<rect x="114.5" y="59.1" class="st1" width="20.7" height="0.6"/>
				<rect x="114.5" y="58.5" class="st1" width="20.7" height="0.6"/>
				<rect x="114.5" y="57.8" class="st1" width="20.7" height="0.6"/>
				<rect x="114.5" y="57.2" class="st1" width="20.7" height="0.6"/>
				<rect x="114.5" y="56.5" class="st1" width="20.7" height="0.6"/>
				<rect x="114.5" y="55.9" class="st1" width="20.7" height="0.6"/>
				<rect x="114.5" y="55.3" class="st1" width="20.7" height="0.6"/>
				<rect x="114.5" y="54.6" class="st1" width="20.7" height="0.6"/>
				<rect x="114.5" y="54" class="st1" width="20.7" height="0.6"/>
				<rect x="114.5" y="53.4" class="st1" width="20.7" height="0.6"/>
				<rect x="114.5" y="52.7" class="st1" width="20.7" height="0.6"/>
				<rect x="114.5" y="52.1" class="st1" width="20.7" height="0.6"/>
				<rect x="114.5" y="51.5" class="st1" width="20.7" height="0.6"/>
				<rect x="114.5" y="50.8" class="st1" width="20.7" height="0.6"/>
				<rect x="114.5" y="50.2" class="st1" width="20.7" height="0.6"/>
				<rect x="114.5" y="49.6" class="st1" width="20.7" height="0.6"/>
				<rect x="114.5" y="48.9" class="st1" width="20.7" height="0.6"/>
				<rect x="114.5" y="48.3" class="st1" width="20.7" height="0.6"/>
				<rect x="114.5" y="47.6" class="st1" width="20.7" height="0.6"/>
				<rect x="114.5" y="47" class="st1" width="20.7" height="0.6"/>
				<rect x="114.5" y="46.4" class="st1" width="20.7" height="0.6"/>
				<rect x="114.5" y="45.7" class="st1" width="20.7" height="0.6"/>
				<rect x="114.5" y="45.1" class="st1" width="20.7" height="0.6"/>
				<rect x="114.5" y="44.5" class="st1" width="20.7" height="0.6"/>
				<rect x="114.5" y="43.8" class="st1" width="20.7" height="0.6"/>
				<rect x="114.5" y="43.2" class="st1" width="20.7" height="0.6"/>
				<rect x="114.5" y="42.6" class="st1" width="20.7" height="0.6"/>
				<rect x="114.5" y="41.9" class="st1" width="20.7" height="0.6"/>
				<rect x="114.5" y="41.3" class="st1" width="20.7" height="0.6"/>
				<rect x="114.5" y="40.7" class="st1" width="20.7" height="0.6"/>
				<rect x="114.5" y="40" class="st1" width="20.7" height="0.6"/>
				<rect x="114.5" y="39.4" class="st1" width="20.7" height="0.6"/>
				<rect x="114.5" y="38.7" class="st1" width="20.7" height="0.6"/>
				<rect x="114.5" y="38.1" class="st1" width="20.7" height="0.6"/>
				<rect x="114.5" y="37.5" class="st1" width="20.7" height="0.6"/>
				<rect x="114.5" y="36.8" class="st1" width="20.7" height="0.6"/>
				<rect x="114.5" y="36.2" class="st1" width="20.7" height="0.6"/>
				<rect x="114.5" y="35.6" class="st1" width="20.7" height="0.6"/>
				<rect x="114.5" y="34.9" class="st1" width="20.7" height="0.6"/>
				<rect x="114.5" y="34.3" class="st1" width="20.7" height="0.6"/>
				<rect x="114.5" y="33.7" class="st1" width="20.7" height="0.6"/>
				<rect x="114.5" y="33" class="st1" width="20.7" height="0.6"/>
				<rect x="114.5" y="32.4" class="st1" width="20.7" height="0.6"/>
				<rect x="114.5" y="31.7" class="st1" width="20.7" height="0.6"/>
				<rect x="114.5" y="31.1" class="st1" width="20.7" height="0.6"/>
				<rect x="114.5" y="30.5" class="st1" width="20.7" height="0.6"/>
				<rect x="114.5" y="29.8" class="st1" width="20.7" height="0.6"/>
				<rect x="114.5" y="29.2" class="st1" width="20.7" height="0.6"/>
			</g>
		</g>
	</g>
	<g>
		<path class="st2" d="M174.2,38.6c12.3,0,19.4,4.5,22.8,11.4c1.3,2.4,0.6,3.7-1.7,4.8l-4.8,1.9c-2.3,1.1-3.1,0.7-4.5-1.5
			c-1.8-3.2-4.7-5.5-11.5-5.5c-6.9,0-10,1.9-10,5.7c0,5,4.3,5.9,12.4,6.6c12.7,1.3,21.7,4.1,21.7,17.1c0,10.4-7.9,17.8-23,17.8
			c-12.6,0-20.5-4.6-23.7-12.9c-0.9-2.2-0.3-3.6,2.1-4.5l4.8-1.5c2.1-0.7,3.3-0.4,4.4,2c1.7,4.2,5.5,5.9,12,5.9
			c7.6,0,11.3-2.1,11.3-6.3c0-5-4.2-6-12.8-6.8c-10.4-1.1-21.5-3.3-21.5-17.1C152.3,45.6,159.5,38.6,174.2,38.6z"/>
		<path class="st2" d="M227.5,38.6c16,0,24.6,8.1,24.6,21.3v15.7c0,13.2-8.6,21.3-24.6,21.3c-15.7,0-24.5-8.1-24.5-21.3V59.9
			C203,46.7,211.7,38.6,227.5,38.6z M227.5,49.8c-7.8,0-12.1,3.6-12.1,10.1v15.7c0,6.4,4.4,10.1,12.1,10.1c7.9,0,12.2-3.7,12.2-10.1
			V59.9C239.7,53.4,235.4,49.8,227.5,49.8z"/>
		<path class="st2" d="M306.1,43.4v43.8c0,3.3-0.7,4.6-4.2,6c-4.3,1.7-10.7,3.7-20.9,3.7c-15.2,0-22.2-8-22.2-21.4V43.4
			c0-2.4,0.9-3.2,3.3-3.2h5.9c2.4,0,3.2,0.7,3.2,3.2v31.7c0,7.1,3.8,10.5,11.6,10.5c4.1,0,6.9-0.4,9.8-1.3c1-0.3,1.2-1,1.2-1.8V43.4
			c0-2.4,0.9-3.2,3.3-3.2h5.7C305.3,40.2,306.1,41,306.1,43.4z"/>
		<path class="st2" d="M340,38.6c15.1,0,22.1,7.9,22.1,21.4v32c0,2.4-0.9,3.3-3.3,3.3h-5.9c-2.4,0-3.2-0.9-3.2-3.3V60.3
			c0-7-3.8-10.4-11.6-10.4c-4.2,0-7.4,0.6-10.2,1.4c-0.5,0.2-0.7,0.6-0.7,1.1V92c0,2.4-0.7,3.3-3.2,3.3h-5.9c-2.4,0-3.3-0.9-3.3-3.3
			V48.3c0-3.4,0.7-4.7,4.1-6.1C323.2,40.5,329.7,38.6,340,38.6z"/>
		<path class="st2" d="M391.2,38.6c5.2,0,9.7,0.9,12.7,1.4V19.9c0-2.4,0.7-3.3,3.2-3.3h5.9c2.4,0,3.3,0.9,3.3,3.3v67.8
			c0,3.5-0.9,4.5-4.3,5.9c-4.3,1.6-10.2,3.4-19.9,3.4c-15.9,0-23.1-7.9-23.1-21.5V60.9C369,46.5,376.4,38.6,391.2,38.6z M393.6,49.9
			c-8.4,0-12.2,3.7-12.2,11.3V75c0,6.9,4.2,10.6,11.9,10.6c3.8,0,7.1-0.4,9.8-1.2c0.7-0.3,0.9-0.5,0.9-1.2v-32
			C401.5,50.8,397.8,49.9,393.6,49.9z"/>
		<path class="st2" d="M447.8,38.6c12.7,0,20.1,6,22.8,13.9c0.9,2.7,0.1,3.8-2.3,4.8l-4.7,1.5c-2.6,1.1-3.7,0.3-4.7-2.2
			c-1.7-4.5-5.3-7.1-11.6-7.1c-7.7,0-11.6,3.7-11.6,10.4v15.7c0,6.6,3.9,10.4,11.6,10.4c6.2,0,9.9-2.8,11.6-7.3c1-2.6,2.1-3,4.7-2.1
			l4.8,1.4c2.4,1,3.3,2.1,2.2,4.8c-3.5,9-10.9,14.2-23.7,14.2c-16.2,0-23.5-8.3-23.5-21.8V60.4C423.4,46.9,431.1,38.6,447.8,38.6z"
			/>
		<path class="st2" d="M499.7,38.6c16,0,24.6,8.1,24.6,21.3v15.7c0,13.2-8.6,21.3-24.6,21.3c-15.7,0-24.5-8.1-24.5-21.3V59.9
			C475.2,46.7,483.9,38.6,499.7,38.6z M499.7,49.8c-7.8,0-12.1,3.6-12.1,10.1v15.7c0,6.4,4.4,10.1,12.1,10.1
			c7.9,0,12.2-3.7,12.2-10.1V59.9C511.9,53.4,507.5,49.8,499.7,49.8z"/>
		<path class="st2" d="M544.6,26v1c0,4.9-1.6,6.5-6.5,6.5h-0.7c-4.9,0-6.5-1.6-6.5-6.5v-1c0-4.9,1.6-6.4,6.5-6.4h0.7
			C543,19.6,544.6,21.1,544.6,26z M543.9,43.4V92c0,2.4-0.9,3.3-3.3,3.3h-5.9c-2.4,0-3.2-0.9-3.2-3.3V43.4c0-2.4,0.7-3.2,3.2-3.2
			h5.9C543.1,40.2,543.9,41,543.9,43.4z"/>
		<path class="st2" d="M577.9,38.6C593,38.6,600,46.5,600,60v32c0,2.4-0.9,3.3-3.3,3.3h-5.9c-2.4,0-3.2-0.9-3.2-3.3V60.3
			c0-7-3.8-10.4-11.6-10.4c-4.2,0-7.4,0.6-10.2,1.4c-0.5,0.2-0.7,0.6-0.7,1.1V92c0,2.4-0.7,3.3-3.2,3.3h-5.9c-2.4,0-3.3-0.9-3.3-3.3
			V48.3c0-3.4,0.7-4.7,4.2-6.1C561.2,40.5,567.7,38.6,577.9,38.6z"/>
	</g>
</g>
</svg>
