<?xml version="1.0" encoding="utf-8"?>
<!-- Generator: Adobe Illustrator 21.0.0, SVG Export Plug-In . SVG Version: 6.00 Build 0)  -->
<svg version="1.1" id="Layer_1" xmlns="http://www.w3.org/2000/svg" xmlns:xlink="http://www.w3.org/1999/xlink" x="0px" y="0px"
	 viewBox="0 0 135.2 135.2" style="enable-background:new 0 0 135.2 135.2;" xml:space="preserve">
<style type="text/css">
	.st0{clip-path:url(#SVGID_2_);fill:#F8F8F8;}
	.st1{clip-path:url(#SVGID_4_);fill:#F8F8F8;}
	.st2{fill:#F8F8F8;}
</style>
	<path id="SVGID_1_" d="M103.4,36.6c-3,0-5.4,2.4-5.4,5.4v70.4c0,0,0,0,0,0c0,0.6-0.2,1.2-0.8,1.5c-0.7,0.4-1.5,0.3-2-0.2
		c0,0,0,0,0,0l-29.5-26l0,0c-1.6-1.4-3.7-2.2-6-2.2l-20.5,0c-0.8,0-1.6-0.4-2.1-1.2c-0.3-0.4-0.4-0.9-0.4-1.3c0,0,0-31.5,0-31.5
		v0l0,0c0-0.8,0.4-1.5,1.2-2c0.4-0.3,0.9-0.4,1.3-0.4l0,0l20.7,0l0,0h0c2.6,0,4.6-1.1,6.7-2.9l34.9-30l0,0c1.9-1.6,2-4,0.6-6
		c-0.6-0.9-1.7-1.6-2.3-1.9C97.2,6.7,86.6,0,67.8,0c0,0,0,0,0,0c0,0,0,0,0,0C28.4,0,0,31.9,0,67.6c0,36.5,29.3,67.6,67.6,67.6
		c0,0,0,0,0,0c0,0,0,0,0,0c0,0,3.6,0,6.3-0.3s4.6-2.1,4.6-4.6c0-2.5-2.1-4.6-4.6-4.6c0,0,0,0,0,0c0,0,0,0,0,0
		c-0.2,0-4,0.3-6.2,0.3c-25.9,0-56.8-21.9-56.8-58.4c0-31,25.4-56.2,57-56.2c9.6,0,16.5,2.4,16.5,2.4c0.5,0.2,1.1,0.4,1.2,1
		c0.1,0.6-0.1,0.9-0.8,1.6L62.1,36c-1.7,1.6-3.2,2.4-5.4,2.4l-20,0.1c-1.8,0.1-3.7,0.6-5.3,1.6c-3.2,2-4.9,5.4-4.9,8.9l0,36.4
		c0.1,1.8,0.6,3.6,1.6,5.2c1.9,3.1,5.2,4.8,8.6,4.9l0,0l0,0l20-0.1c1.8,0,3.4,0.6,4.6,1.7l24.6,21.2c0,0,5.5,4.8,6.1,5.4
		c0.4,0.3,0.7,0.6,1.1,0.9c3.1,2.1,7.4,2.3,10.8,0.2c3.4-2.1,4.7-5.2,4.8-8.4V42v0c0,0,0,0,0,0C108.8,39,106.3,36.6,103.4,36.6z
		"/>
	<use xlink:href="#SVGID_1_"  style="overflow:visible;fill:#F8F8F8;"/>

	<path id="SVGID_3_" d="M125,31.8c-0.1-0.2-0.2-0.3-0.2-0.3c-1-1.4-2.7-2.3-4.6-2.3c0,0,0,0,0,0c0,0,0,0,0,0
		c-3.1,0-5.7,2.6-5.7,5.7c0,1.2,0.4,2.3,1,3.2c0,0,9,12.6,9,29.3c0,18.6-7.3,31.3-7.3,31.3c-0.4,0.7-0.6,1.4-0.6,2.2
		c0,2.5,2.1,4.6,4.6,4.6c0,0,0,0,0,0c0,0,0,0,0,0c1.6,0,3-0.8,3.9-2.1c0,0,10.2-15,10.2-36C135.3,46.4,125,31.8,125,31.8z"/>
	<use xlink:href="#SVGID_3_"  style="overflow:visible;fill:#F8F8F8;"/>
</svg>
