<svg id="Layer_1" data-name="Layer 1" xmlns="http://www.w3.org/2000/svg" viewBox="0 0 617.79 145.58">
<defs>
  <!-- <style>..st2{fill:#2989E0;}</style> -->
  <style type="text/css">
    .st0{fill:url(#SVGID_1_);}
    .st1{fill:url(#SVGID_2_);}
    .st2{fill:#2989E0;}
  </style>
</defs>
<g>
  <g>
  	<linearGradient id="SVGID_1_" gradientUnits="userSpaceOnUse" x1="54.3769" y1="135.2368" x2="54.3769" y2="-9.094947e-13">
  		<stop  offset="0" style="stop-color:#784BFF"/>
  		<stop  offset="0.1291" style="stop-color:#615DF6"/>
  		<stop  offset="0.3994" style="stop-color:#377EE6"/>
  		<stop  offset="0.6442" style="stop-color:#1995DA"/>
  		<stop  offset="0.8526" style="stop-color:#07A4D3"/>
  		<stop  offset="1" style="stop-color:#00A9D0"/>
  	</linearGradient>
  	<path class="st0" d="M103.4,36.6c-3,0-5.4,2.4-5.4,5.4v70.4c0,0,0,0,0,0c0,0.6-0.2,1.2-0.8,1.5c-0.7,0.4-1.5,0.3-2-0.2
  		c0,0,0,0,0,0l-29.5-26l0,0c-1.6-1.4-3.7-2.2-6-2.2l-20.5,0c-0.8,0-1.6-0.4-2.1-1.2c-0.3-0.4-0.4-0.9-0.4-1.3c0,0,0-31.5,0-31.5v0
  		l0,0c0-0.8,0.4-1.5,1.2-2c0.4-0.3,0.9-0.4,1.3-0.4l0,0l20.7,0l0,0h0c2.6,0,4.6-1.1,6.7-2.9l34.9-30l0,0c1.9-1.6,2-4,0.6-6
  		c-0.6-0.9-1.7-1.6-2.3-1.9C97.2,6.7,86.6,0,67.8,0c0,0,0,0,0,0c0,0,0,0,0,0C28.4,0,0,31.9,0,67.6c0,36.5,29.3,67.6,67.6,67.6
  		c0,0,0,0,0,0c0,0,0,0,0,0c0,0,3.6,0,6.3-0.3s4.6-2.1,4.6-4.6c0-2.5-2.1-4.6-4.6-4.6c0,0,0,0,0,0c0,0,0,0,0,0c-0.2,0-4,0.3-6.2,0.3
  		c-25.9,0-56.8-21.9-56.8-58.4c0-31,25.4-56.2,57-56.2c9.6,0,16.5,2.4,16.5,2.4c0.5,0.2,1.1,0.4,1.2,1c0.1,0.6-0.1,0.9-0.8,1.6
  		L62.1,36c-1.7,1.6-3.2,2.4-5.4,2.4l-20,0.1c-1.8,0.1-3.7,0.6-5.3,1.6c-3.2,2-4.9,5.4-4.9,8.9l0,36.4c0.1,1.8,0.6,3.6,1.6,5.2
  		c1.9,3.1,5.2,4.8,8.6,4.9l0,0l0,0l20-0.1c1.8,0,3.4,0.6,4.6,1.7l24.6,21.2c0,0,5.5,4.8,6.1,5.4c0.4,0.3,0.7,0.6,1.1,0.9
  		c3.1,2.1,7.4,2.3,10.8,0.2c3.4-2.1,4.7-5.2,4.8-8.4V42v0c0,0,0,0,0,0C108.8,39,106.3,36.6,103.4,36.6z"/>
  	<linearGradient id="SVGID_2_" gradientUnits="userSpaceOnUse" x1="124.8901" y1="105.5007" x2="124.8901" y2="29.2064">
  		<stop  offset="0" style="stop-color:#784BFF"/>
  		<stop  offset="0.1291" style="stop-color:#615DF6"/>
  		<stop  offset="0.3994" style="stop-color:#377EE6"/>
  		<stop  offset="0.6442" style="stop-color:#1995DA"/>
  		<stop  offset="0.8526" style="stop-color:#07A4D3"/>
  		<stop  offset="1" style="stop-color:#00A9D0"/>
  	</linearGradient>
  	<path class="st1" d="M125,31.8c-0.1-0.2-0.2-0.3-0.2-0.3c-1-1.4-2.7-2.3-4.6-2.3c0,0,0,0,0,0c0,0,0,0,0,0c-3.1,0-5.7,2.6-5.7,5.7
  		c0,1.2,0.4,2.3,1,3.2c0,0,9,12.6,9,29.3c0,18.6-7.3,31.3-7.3,31.3c-0.4,0.7-0.6,1.4-0.6,2.2c0,2.5,2.1,4.6,4.6,4.6c0,0,0,0,0,0
  		c0,0,0,0,0,0c1.6,0,3-0.8,3.9-2.1c0,0,10.2-15,10.2-36C135.3,46.4,125,31.8,125,31.8z"/>
  </g>
  <g>
    <!-- <path class="st2" d="M110.69,38.78a6.84,6.84,0,0,0-6.83,6.83v74.51l0,.13v.11a.61.61,0,0,1-1,.5l-.85-.8,0,0L71.48,93.24l-.14-.12h0a11,11,0,0,0-7-2.5l-21.69,0a1.51,1.51,0,0,1-1.25-.71,1.48,1.48,0,0,1-.23-.8c0-.32,0-31.68,0-33.38h0a1.5,1.5,0,0,1,.7-1.2,1.48,1.48,0,0,1,.8-.23h22c2.82,0,5.18-1,7.86-3.33l36.94-31.83.54-.47v0a5.79,5.79,0,0,0,.35-7.36,8.16,8.16,0,0,0-2.84-2.42l-.37-.21C97.34,2.88,85.85,0,72.95,0A72.1,72.1,0,0,0,20.57,22,73.79,73.79,0,0,0,0,72.79a72.88,72.88,0,0,0,72.82,72.79c.16,0,3.86,0,6.73-.31,3.52-.35,5.88-2.76,5.88-6a6,6,0,0,0-6-6l-.85,0c-1.31.08-4,.26-5.76.26-35.37,0-59.12-31.44-59.12-60.81,0-32.23,26.59-58.46,59.27-58.46A57.1,57.1,0,0,1,90,16.84l.14.06a3.34,3.34,0,0,1,.44.2.06.06,0,0,0,0,0s-.08.16-.47.54l-24,20.8c-1.79,1.65-3.12,2.26-4.94,2.26L40,40.86A12.27,12.27,0,0,0,28,53.14V91.8a12.29,12.29,0,0,0,11.47,11.78l0,0,21.65-.06a6.52,6.52,0,0,1,4.17,1.51l26.14,22.51c1.35,1.19,5.82,5.1,6.4,5.64a11.6,11.6,0,0,0,14,1.25,11.42,11.42,0,0,0,5.61-9.83v-79A6.84,6.84,0,0,0,110.69,38.78Z"/> -->
    <!-- <path class="st2" d="M134.34,33.87a7.2,7.2,0,0,0-5.7-2.91h-.08a7.17,7.17,0,0,0-5.92,11.2c.09.13,9.3,13.21,9.3,30.41a71.33,71.33,0,0,1-7.64,32.64,6,6,0,0,0,5.22,8.87h.07a6,6,0,0,0,5-2.72,74.22,74.22,0,0,0,11-38.78,72.72,72.72,0,0,0-11.05-38.38Z"/> -->
    <path class="st2" d="M206.78,46.75h-4.51c-4.29,0-5.19.68-6.32,3.5L185.58,77.42c-1.92,5.41-2.82,11.5-3,12H182a74.86,74.86,0,0,0-3.16-12.07L168.33,50.25c-.9-2.82-2-3.5-6.2-3.5h-4.4c-3.38,0-4.06.79-2.82,4.06l20.75,51.31c.9,2.48,2.14,3.16,4.74,3.16h3.72c2.59,0,3.72-.68,4.74-3.16L209.71,50.7C211,47.54,210.17,46.75,206.78,46.75Z"/>
    <path class="st2" d="M237,45.06c-16.69,0-25.94,8.57-25.94,22.56V84.3c0,14,9.25,22.55,25.94,22.55,16.92,0,26.05-8.57,26.05-22.55V67.61C263.06,53.63,253.92,45.06,237,45.06ZM250,84.3C250,91.07,245.35,95,237,95s-12.86-3.95-12.86-10.71V67.61c0-6.88,4.62-10.71,12.86-10.71s13,3.83,13,10.71Z"/>
    <path class="st2" d="M280.76,21.71h-6.09c-2.71,0-3.5.9-3.5,3.5v76.46c0,2.59.79,3.5,3.5,3.5h6.09c2.59,0,3.5-.9,3.5-3.5V25.21C284.26,22.61,283.36,21.71,280.76,21.71Z"/>
    <path class="st2" d="M340.31,46.75h-6.09c-2.59,0-3.5.79-3.5,3.38v41.5a1.72,1.72,0,0,1-1.24,1.92,34,34,0,0,1-10.37,1.35c-8.23,0-12.29-3.61-12.29-11.17V50.13c0-2.59-.79-3.38-3.38-3.38h-6.2c-2.59,0-3.5.79-3.5,3.38V84.19c0,14.21,7.44,22.67,23.57,22.67,10.71,0,17.59-2.14,22.1-3.95,3.61-1.47,4.4-2.82,4.4-6.32V50.13C343.81,47.54,342.9,46.75,340.31,46.75Z"/>
    <path class="st2" d="M411.81,45.06A50.51,50.51,0,0,0,392,48.78c-3.38-2.48-8-3.72-14-3.72a50.92,50.92,0,0,0-20.53,3.83c-3.5,1.47-4.4,2.82-4.4,6.43v46.35c0,2.59.9,3.5,3.5,3.5h6.2c2.59,0,3.38-.9,3.38-3.5v-42a1.26,1.26,0,0,1,.9-1.35,28.08,28.08,0,0,1,9-1.35c7.22,0,11.05,3.72,11.05,10.94v33.72c0,2.59.9,3.5,3.5,3.5h6.09c2.59,0,3.5-.9,3.5-3.5V67.5A24.29,24.29,0,0,0,399,59a33.15,33.15,0,0,1,10.94-2c7.33,0,10.94,3.72,10.94,10.94v33.72c0,2.59.9,3.5,3.5,3.5h6.2c2.59,0,3.38-.9,3.38-3.5V67.5C433.91,53.29,427.15,45.06,411.81,45.06Z"/>
    <path class="st2" d="M467.29,45.06c-17,0-26.17,8.68-26.17,24.36V82.73c0,13.87,7.44,24.13,25.94,24.13,12.74,0,20.3-4.17,24.36-10.83,1.58-2.48,1.24-4.4-1.35-5.64l-3.95-2.14c-2.71-1.47-3.95-1.13-5.75,1.35-2.37,3.72-6.65,6-13.31,6-8.23,0-12.86-3.95-12.86-11.28V80.13h34.06c3.95,0,5.08-1.92,5.08-4.85V68.4C493.35,55.43,485.23,45.06,467.29,45.06Zm13,25H454.21V67.61c0-7.33,4.62-11.5,13.08-11.5s13,4.17,13,11.5Z"/>
    <path class="st2" d="M529.54,23.4c-18.95,0-29.89,10.6-29.89,27.18v29c0,16.69,10.94,27.29,29.89,27.29s29.77-10.6,29.77-27.29v-29C559.32,34,548.49,23.4,529.54,23.4ZM513.87,79.57v-29c0-8.91,5.75-14,15.68-14a21.54,21.54,0,0,1,6.93,1L514.54,84.4A16.76,16.76,0,0,1,513.87,79.57Zm31.35,0c0,8.91-5.75,14.1-15.68,14.1a20.48,20.48,0,0,1-7.68-1.34l22.33-47.6a15.91,15.91,0,0,1,1,5.85Z"/>
    <path class="st2" d="M616.72,101.11l-18-26.05,16.92-24.25c1.8-2.71,1.24-4.06-2.37-4.06H607.7c-3.72,0-4.4.34-6.09,2.93l-10.94,15.9L579.5,49.68c-1.58-2.48-2.59-2.93-6.43-2.93H568c-4.17,0-4.4,1.69-2.71,4.06l17.25,24.36-18,25.94c-1.92,2.71-1.58,4.06,2.59,4.06h5.3c3.72,0,4.62-.34,6.32-2.93l11.62-17.71,12.18,17.71c1.69,2.48,2.48,2.93,6.32,2.93h5.41C618.07,105.17,618.64,103.81,616.72,101.11Z"/>
  </g>
</g>
</svg>
